<svg width="137" height="44" viewBox="0 0 137 44" fill="none" xmlns="http://www.w3.org/2000/svg">
<circle cx="20" cy="22" r="17" stroke="#6366F1" stroke-width="6"/>
<path d="M54.517 31V13.5455H61.5057C62.7898 13.5455 63.8608 13.7358 64.7188 14.1165C65.5767 14.4972 66.2216 15.0256 66.6534 15.7017C67.0852 16.3722 67.3011 17.1449 67.3011 18.0199C67.3011 18.7017 67.1648 19.3011 66.892 19.8182C66.6193 20.3295 66.2443 20.75 65.767 21.0795C65.2955 21.4034 64.7557 21.6335 64.1477 21.7699V21.9403C64.8125 21.9687 65.4347 22.1562 66.0142 22.5028C66.5994 22.8494 67.0739 23.3352 67.4375 23.9602C67.8011 24.5795 67.983 25.3182 67.983 26.1761C67.983 27.1023 67.7528 27.929 67.2926 28.6562C66.8381 29.3778 66.1648 29.9489 65.2727 30.3693C64.3807 30.7898 63.2813 31 61.9744 31H54.517ZM58.2074 27.983H61.2159C62.2443 27.983 62.9943 27.7869 63.4659 27.3949C63.9375 26.9972 64.1733 26.4687 64.1733 25.8097C64.1733 25.3267 64.0568 24.9006 63.8239 24.5312C63.5909 24.1619 63.2585 23.8722 62.8267 23.6619C62.4006 23.4517 61.892 23.3466 61.3011 23.3466H58.2074V27.983ZM58.2074 20.8494H60.9432C61.4489 20.8494 61.8977 20.7614 62.2898 20.5852C62.6875 20.4034 63 20.1477 63.2273 19.8182C63.4602 19.4886 63.5767 19.0938 63.5767 18.6335C63.5767 18.0028 63.3523 17.4943 62.9034 17.108C62.4602 16.7216 61.8295 16.5284 61.0114 16.5284H58.2074V20.8494ZM73.9467 13.5455V31H70.3161V13.5455H73.9467ZM76.8551 31V17.9091H80.4858V31H76.8551ZM78.679 16.2216C78.1392 16.2216 77.6761 16.0426 77.2898 15.6847C76.9091 15.321 76.7188 14.8864 76.7188 14.3807C76.7188 13.8807 76.9091 13.4517 77.2898 13.0938C77.6761 12.7301 78.1392 12.5483 78.679 12.5483C79.2188 12.5483 79.679 12.7301 80.0597 13.0938C80.446 13.4517 80.6392 13.8807 80.6392 14.3807C80.6392 14.8864 80.446 15.321 80.0597 15.6847C79.679 16.0426 79.2188 16.2216 78.679 16.2216ZM87.0249 23.4318V31H83.3942V17.9091H86.8544V20.2188H87.0078C87.2976 19.4574 87.7834 18.8551 88.4652 18.4119C89.147 17.9631 89.9737 17.7386 90.9453 17.7386C91.8544 17.7386 92.647 17.9375 93.3232 18.3352C93.9993 18.733 94.5249 19.3011 94.8999 20.0398C95.2749 20.7727 95.4624 21.6477 95.4624 22.6648V31H91.8317V23.3125C91.8374 22.5114 91.6328 21.8864 91.218 21.4375C90.8033 20.983 90.2322 20.7557 89.505 20.7557C89.0163 20.7557 88.5845 20.8608 88.2095 21.071C87.8402 21.2812 87.5504 21.5881 87.3402 21.9915C87.1357 22.3892 87.0305 22.8693 87.0249 23.4318ZM103.148 31.2131C102.153 31.2131 101.253 30.9574 100.446 30.446C99.6449 29.929 99.0085 29.1705 98.5369 28.1705C98.071 27.1648 97.8381 25.9318 97.8381 24.4716C97.8381 22.9716 98.0795 21.7244 98.5625 20.7301C99.0455 19.7301 99.6875 18.983 100.489 18.4886C101.295 17.9886 102.179 17.7386 103.139 17.7386C103.872 17.7386 104.483 17.8636 104.972 18.1136C105.466 18.358 105.864 18.6648 106.165 19.0341C106.472 19.3977 106.705 19.7557 106.864 20.108H106.974V13.5455H110.597V31H107.017V28.9034H106.864C106.693 29.267 106.452 29.6278 106.139 29.9858C105.832 30.3381 105.432 30.6307 104.938 30.8636C104.449 31.0966 103.852 31.2131 103.148 31.2131ZM104.298 28.3239C104.884 28.3239 105.378 28.1648 105.781 27.8466C106.19 27.5227 106.503 27.071 106.719 26.4915C106.94 25.9119 107.051 25.233 107.051 24.4545C107.051 23.6761 106.943 23 106.727 22.4261C106.511 21.8523 106.199 21.4091 105.79 21.0966C105.381 20.7841 104.884 20.6278 104.298 20.6278C103.702 20.6278 103.199 20.7898 102.79 21.1136C102.381 21.4375 102.071 21.8864 101.861 22.4602C101.651 23.0341 101.545 23.6989 101.545 24.4545C101.545 25.2159 101.651 25.8892 101.861 26.4744C102.077 27.054 102.386 27.5085 102.79 27.8381C103.199 28.1619 103.702 28.3239 104.298 28.3239ZM119.548 31.2557C118.201 31.2557 117.042 30.983 116.07 30.4375C115.104 29.8864 114.36 29.108 113.837 28.1023C113.315 27.0909 113.053 25.8949 113.053 24.5142C113.053 23.1676 113.315 21.9858 113.837 20.9688C114.36 19.9517 115.096 19.1591 116.045 18.5909C116.999 18.0227 118.119 17.7386 119.403 17.7386C120.266 17.7386 121.07 17.8778 121.815 18.1562C122.565 18.429 123.218 18.8409 123.775 19.392C124.337 19.9432 124.775 20.6364 125.087 21.4716C125.4 22.3011 125.556 23.2727 125.556 24.3864V25.3835H114.502V23.1335H122.138C122.138 22.6108 122.025 22.1477 121.798 21.7443C121.57 21.3409 121.255 21.0256 120.852 20.7983C120.454 20.5653 119.991 20.4489 119.462 20.4489C118.911 20.4489 118.423 20.5767 117.996 20.8324C117.576 21.0824 117.246 21.4205 117.008 21.8466C116.769 22.267 116.647 22.7358 116.641 23.2528V25.392C116.641 26.0398 116.761 26.5994 116.999 27.071C117.244 27.5426 117.587 27.9062 118.031 28.1619C118.474 28.4176 118.999 28.5455 119.607 28.5455C120.011 28.5455 120.38 28.4886 120.715 28.375C121.05 28.2614 121.337 28.0909 121.576 27.8636C121.815 27.6364 121.996 27.358 122.121 27.0284L125.479 27.25C125.309 28.0568 124.96 28.7614 124.431 29.3636C123.908 29.9602 123.232 30.4261 122.403 30.7614C121.579 31.0909 120.627 31.2557 119.548 31.2557ZM127.925 31V17.9091H131.445V20.1932H131.582C131.82 19.3807 132.221 18.767 132.783 18.3523C133.346 17.9318 133.994 17.7216 134.727 17.7216C134.908 17.7216 135.104 17.733 135.315 17.7557C135.525 17.7784 135.71 17.8097 135.869 17.8494V21.071C135.698 21.0199 135.462 20.9744 135.161 20.9347C134.86 20.8949 134.585 20.875 134.335 20.875C133.8 20.875 133.323 20.9915 132.903 21.2244C132.488 21.4517 132.158 21.7699 131.914 22.179C131.675 22.5881 131.556 23.0597 131.556 23.5938V31H127.925Z" fill="#1F2937"/>
</svg>
