<svg width="122" height="44" viewBox="0 0 122 44" fill="none" xmlns="http://www.w3.org/2000/svg">
<path d="M57.4029 15.4545H61.1955L65.2012 25.2273H65.3716L69.3773 15.4545H73.1699V30H70.187V20.5327H70.0662L66.302 29.929H64.2708L60.5066 20.4972H60.3858V30H57.4029V15.4545ZM78.7576 30.206C78.0616 30.206 77.4413 30.0852 76.8968 29.8438C76.3523 29.5975 75.9215 29.2353 75.6042 28.7571C75.2917 28.2741 75.1355 27.6728 75.1355 26.9531C75.1355 26.3471 75.2467 25.8381 75.4693 25.4261C75.6918 25.0142 75.9949 24.6828 76.3784 24.4318C76.7619 24.1809 77.1975 23.9915 77.6852 23.8636C78.1776 23.7358 78.6937 23.6458 79.2335 23.5938C79.868 23.5275 80.3793 23.4659 80.7676 23.4091C81.1558 23.3475 81.4376 23.2576 81.6127 23.1392C81.7879 23.0208 81.8755 22.8456 81.8755 22.6136V22.571C81.8755 22.1212 81.7335 21.7732 81.4494 21.527C81.17 21.2808 80.7723 21.1577 80.2562 21.1577C79.7117 21.1577 79.2785 21.2784 78.9565 21.5199C78.6345 21.7566 78.4215 22.0549 78.3173 22.4148L75.519 22.1875C75.661 21.5246 75.9404 20.9517 76.3571 20.4688C76.7737 19.9811 77.3111 19.607 77.9693 19.3466C78.6322 19.0814 79.3992 18.9489 80.2704 18.9489C80.8765 18.9489 81.4565 19.0199 82.0105 19.1619C82.5692 19.304 83.064 19.5241 83.4949 19.8224C83.9305 20.1207 84.2737 20.5043 84.5247 20.973C84.7756 21.437 84.9011 21.9934 84.9011 22.642V30H82.0318V28.4872H81.9466C81.7714 28.8281 81.537 29.1288 81.2434 29.3892C80.9499 29.6449 80.5971 29.8461 80.1852 29.9929C79.7733 30.1349 79.2974 30.206 78.7576 30.206ZM79.6241 28.1179C80.0692 28.1179 80.4622 28.0303 80.8031 27.8551C81.144 27.6752 81.4115 27.4337 81.6056 27.1307C81.7998 26.8277 81.8968 26.4844 81.8968 26.1009V24.9432C81.8021 25.0047 81.6719 25.0616 81.5062 25.1136C81.3452 25.161 81.1629 25.206 80.9593 25.2486C80.7557 25.2865 80.5521 25.322 80.3485 25.3551C80.1449 25.3835 79.9603 25.4096 79.7946 25.4332C79.4395 25.4853 79.1293 25.5682 78.8642 25.6818C78.599 25.7955 78.3931 25.9493 78.2463 26.1435C78.0995 26.3329 78.0261 26.5696 78.0261 26.8537C78.0261 27.2656 78.1752 27.5805 78.4735 27.7983C78.7766 28.0114 79.1601 28.1179 79.6241 28.1179ZM87.2484 30V19.0909H90.274V30H87.2484ZM88.7683 17.6847C88.3185 17.6847 87.9326 17.5355 87.6106 17.2372C87.2934 16.9342 87.1348 16.572 87.1348 16.1506C87.1348 15.7339 87.2934 15.3764 87.6106 15.0781C87.9326 14.7751 88.3185 14.6236 88.7683 14.6236C89.2181 14.6236 89.6016 14.7751 89.9189 15.0781C90.2408 15.3764 90.4018 15.7339 90.4018 16.1506C90.4018 16.572 90.2408 16.9342 89.9189 17.2372C89.6016 17.5355 89.2181 17.6847 88.7683 17.6847ZM95.7232 15.4545V30H92.6976V15.4545H95.7232ZM103.062 34.3182C102.081 34.3182 101.241 34.1832 100.54 33.9134C99.8443 33.6482 99.2903 33.286 98.8784 32.8267C98.4664 32.3674 98.1989 31.8513 98.0758 31.2784L100.874 30.902C100.959 31.1198 101.094 31.3234 101.279 31.5128C101.464 31.7022 101.707 31.8537 102.01 31.9673C102.318 32.0857 102.692 32.1449 103.133 32.1449C103.791 32.1449 104.333 31.9839 104.759 31.6619C105.19 31.3447 105.405 30.812 105.405 30.0639V28.0682H105.278C105.145 28.3712 104.946 28.6577 104.681 28.9276C104.416 29.1974 104.075 29.4176 103.658 29.5881C103.242 29.7585 102.744 29.8438 102.167 29.8438C101.348 29.8438 100.602 29.6544 99.9295 29.2756C99.2619 28.892 98.7292 28.3073 98.3315 27.5213C97.9385 26.7306 97.742 25.7315 97.742 24.5241C97.742 23.2884 97.9432 22.2562 98.3457 21.4276C98.7482 20.599 99.2832 19.9787 99.9508 19.5668C100.623 19.1548 101.359 18.9489 102.16 18.9489C102.77 18.9489 103.282 19.053 103.694 19.2614C104.106 19.465 104.437 19.7206 104.688 20.0284C104.944 20.3314 105.14 20.6297 105.278 20.9233H105.391V19.0909H108.395V30.1065C108.395 31.0346 108.168 31.8111 107.714 32.4361C107.259 33.0611 106.629 33.5298 105.824 33.8423C105.024 34.1596 104.103 34.3182 103.062 34.3182ZM103.126 27.571C103.613 27.571 104.025 27.4503 104.361 27.2088C104.702 26.9626 104.963 26.6122 105.143 26.1577C105.327 25.6984 105.42 25.1491 105.42 24.5099C105.42 23.8707 105.33 23.3168 105.15 22.848C104.97 22.3745 104.709 22.0076 104.368 21.7472C104.028 21.4867 103.613 21.3565 103.126 21.3565C102.628 21.3565 102.209 21.4915 101.868 21.7614C101.528 22.0265 101.269 22.3958 101.094 22.8693C100.919 23.3428 100.831 23.8897 100.831 24.5099C100.831 25.1397 100.919 25.6842 101.094 26.1435C101.274 26.598 101.532 26.9508 101.868 27.2017C102.209 27.4479 102.628 27.571 103.126 27.571ZM115.732 30.2131C114.629 30.2131 113.675 29.9787 112.87 29.5099C112.07 29.0365 111.452 28.3783 111.016 27.5355C110.581 26.688 110.363 25.7055 110.363 24.5881C110.363 23.4612 110.581 22.4763 111.016 21.6335C111.452 20.786 112.07 20.1278 112.87 19.6591C113.675 19.1856 114.629 18.9489 115.732 18.9489C116.835 18.9489 117.787 19.1856 118.587 19.6591C119.392 20.1278 120.012 20.786 120.448 21.6335C120.884 22.4763 121.101 23.4612 121.101 24.5881C121.101 25.7055 120.884 26.688 120.448 27.5355C120.012 28.3783 119.392 29.0365 118.587 29.5099C117.787 29.9787 116.835 30.2131 115.732 30.2131ZM115.746 27.8693C116.248 27.8693 116.667 27.7273 117.003 27.4432C117.34 27.1544 117.593 26.7614 117.763 26.2642C117.939 25.767 118.026 25.2012 118.026 24.5668C118.026 23.9323 117.939 23.3665 117.763 22.8693C117.593 22.3722 117.34 21.9792 117.003 21.6903C116.667 21.4015 116.248 21.2571 115.746 21.2571C115.24 21.2571 114.814 21.4015 114.468 21.6903C114.127 21.9792 113.869 22.3722 113.694 22.8693C113.523 23.3665 113.438 23.9323 113.438 24.5668C113.438 25.2012 113.523 25.767 113.694 26.2642C113.869 26.7614 114.127 27.1544 114.468 27.4432C114.814 27.7273 115.24 27.8693 115.746 27.8693Z" fill="white"/>
<path fill-rule="evenodd" clip-rule="evenodd" d="M0 22C13.9836 22 22 13.9836 22 0C22 13.9836 30.0164 22 44 22C30.0164 22 22 30.0164 22 44C22 30.0164 13.9836 22 0 22Z" fill="white"/>
</svg>
