<?xml version="1.0" ?><svg height="1000" preserveAspectRatio="xMidYMid meet" width="1000" xmlns="http://www.w3.org/2000/svg"><g><title/><rect fill="none" height="1026" id="canvas_background" width="1026" x="-1" y="-1"/></g><g><title/><g fill="#000000" id="svg_1" transform="translate(0,1024) scale(0.10000000149011612,-0.10000000149011612) "><path d="m4869,9439c-559,-33 -1115,-178 -1618,-420c-1221,-588 -2102,-1719 -2371,-3044c-189,-929 -67,-1900 344,-2750c589,-1219 1718,-2097 3041,-2365c929,-189 1900,-67 2750,344c878,424 1597,1143 2021,2021c202,418 335,865 394,1324c109,840 -28,1690 -394,2446c-424,878 -1143,1597 -2021,2021c-665,322 -1407,468 -2146,423zm1769,-2361l-3,-473l-460,-5c-520,-6 -488,0 -544,-88c-57,-91 -61,-122 -61,-494l0,-338l535,0l535,0l0,-445l0,-445l-535,0l-535,0l0,-1330l0,-1330l-515,0l-515,0l0,1330l0,1330l-460,0l-460,0l0,445l0,445l460,0l460,0l0,321c0,349 10,457 56,616c126,434 462,783 857,888c144,39 206,42 715,44l472,1l-2,-472z" fill="#a1a1aa" id="svg_2"/></g></g></svg>