<svg width="254" height="91" viewBox="0 0 254 91" fill="none" xmlns="http://www.w3.org/2000/svg">
    <path fill-rule="evenodd" clip-rule="evenodd" d="M25.9106 10.0885C25.9106 10.1773 25.8149 10.188 24.9897 10.1908C24.751 10.1917 24.5481 10.3485 24.774 10.3577C24.9119 10.3634 24.6404 10.4734 24.4695 10.4812C24.2251 10.4921 24.1378 10.5377 24.0887 10.6801C24.0266 10.8602 23.8224 10.8614 23.8672 10.6814C23.8932 10.5773 23.9002 10.5748 23.917 10.6638C23.9405 10.7885 24.0178 10.8017 24.0178 10.681C24.0178 10.5275 23.8745 10.5265 23.8112 10.6796C23.7779 10.7601 23.7294 10.826 23.7034 10.826C23.616 10.826 23.4347 11.0524 23.4707 11.1166C23.4932 11.1566 23.445 11.18 23.3393 11.18C23.2205 11.18 23.1835 11.1587 23.2114 11.1063C23.233 11.0657 23.2042 11.0749 23.1476 11.1268C23.0909 11.1787 23.0024 11.2375 22.9509 11.2578C22.8994 11.2779 22.8572 11.3349 22.8572 11.3847C22.8572 11.4416 22.8077 11.4749 22.7232 11.4749C22.595 11.4749 22.5709 11.5152 22.5814 11.711C22.5846 11.7703 22.5764 11.7752 22.5565 11.7258C22.5401 11.6852 22.4897 11.652 22.4444 11.652C22.3737 11.652 22.3724 11.6663 22.4354 11.7518C22.4773 11.8087 22.4817 11.8336 22.4456 11.8099C22.4108 11.7868 22.3671 11.7955 22.3482 11.829C22.3294 11.8624 22.2916 11.8746 22.2642 11.856C22.2368 11.8373 22.2143 11.8501 22.2143 11.8845C22.2143 11.9188 22.1888 11.9469 22.1576 11.9469C22.1264 11.9469 22.1157 11.9204 22.134 11.8879C22.1521 11.8555 22.144 11.829 22.116 11.829C22.0481 11.829 21.9988 11.9783 22.0453 12.043C22.0656 12.0713 22.0721 12.0883 22.0598 12.0807C22.0475 12.073 22.0031 12.1129 21.9612 12.1691C21.9193 12.2255 21.9002 12.2383 21.9188 12.1977C21.9383 12.1552 21.9194 12.124 21.8742 12.124C21.8202 12.124 21.8051 12.1637 21.8259 12.2512C21.8486 12.3467 21.8383 12.3663 21.7851 12.3301C21.7333 12.2949 21.7232 12.3084 21.7481 12.3799C21.7709 12.4449 21.7549 12.478 21.7005 12.478C21.6493 12.478 21.6337 12.5056 21.6589 12.5518C21.6856 12.6005 21.6681 12.5977 21.6073 12.5433C21.4717 12.4222 21.4332 12.4952 21.3958 12.9441C21.3841 13.0834 21.2176 13.2022 21.1212 13.14C21.0946 13.1228 21.0886 13.137 21.108 13.1715C21.1584 13.2614 21.0913 13.422 21.0033 13.422C20.9622 13.422 20.9286 13.4501 20.9286 13.4845C20.9286 13.5188 20.9025 13.5292 20.8706 13.5075C20.836 13.4839 20.8169 13.5124 20.8232 13.5778C20.8544 13.9023 20.8195 14.1254 20.7424 14.093C20.6072 14.0357 20.5087 14.2085 20.5251 14.4742C20.5334 14.6094 20.5182 14.72 20.4911 14.72C20.3296 14.72 20.2369 14.942 20.2213 15.366C20.2101 15.6737 20.1835 15.81 20.1309 15.8291C20.0901 15.844 20.0709 15.8307 20.0883 15.7995C20.106 15.7682 20.0852 15.7427 20.0424 15.7427C19.9529 15.7427 19.9387 15.8166 20.0178 15.8706C20.0959 15.9237 20.0835 16.0194 20.0031 15.9854C19.9512 15.9636 19.9316 16.0867 19.9222 16.4954C19.9085 17.0864 19.8921 17.15 19.7593 17.1257C19.662 17.108 19.6614 17.1119 19.6496 17.9155C19.6437 18.308 19.6307 18.3656 19.5502 18.3526C19.4503 18.3365 19.3215 18.4482 19.3215 18.5507C19.3215 18.5856 19.3456 18.614 19.375 18.614C19.4045 18.614 19.4286 18.5741 19.4286 18.5256C19.4286 18.4768 19.4683 18.4369 19.5168 18.4369C19.5867 18.4369 19.5784 18.4645 19.4766 18.5698C19.3656 18.6844 19.3468 18.7622 19.3385 19.1427C19.3294 19.5644 19.2356 19.7929 19.1078 19.7058C19.0871 19.6919 19.069 19.8055 19.0671 19.9585C19.0614 20.4586 19.0277 21.0364 19.0082 20.9719C18.9975 20.9363 18.9547 20.9552 18.9102 21.0151C18.8668 21.0737 18.8498 21.0817 18.8724 21.0329C18.9077 20.9568 18.9008 20.9557 18.8228 21.0255C18.7286 21.1096 18.6942 21.2428 18.782 21.183C18.8094 21.1644 18.8474 21.1767 18.8663 21.2105C18.8854 21.2442 18.8707 21.2647 18.8337 21.2556C18.7839 21.2437 18.7624 21.4069 18.7499 21.8884C18.7312 22.621 18.7162 22.6971 18.6006 22.6484C18.5554 22.6293 18.5333 22.587 18.5516 22.5545C18.5721 22.5181 18.6025 22.5262 18.6308 22.5755C18.6631 22.6314 18.6771 22.6067 18.6778 22.4933C18.6782 22.404 18.653 22.3309 18.6219 22.3309C18.5907 22.3309 18.5825 22.3621 18.6039 22.4C18.6286 22.4442 18.6149 22.4574 18.5658 22.4366C18.4787 22.3998 18.4444 22.6959 18.4492 23.4419L18.4521 23.8744L18.3149 23.8366C18.1983 23.8043 18.1876 23.8118 18.2432 23.8855C18.2941 23.9531 18.2944 23.9823 18.2443 24.0164C18.2034 24.0442 18.1939 24.0353 18.218 23.9922C18.2391 23.9547 18.2347 23.924 18.2081 23.924C18.1817 23.924 18.1576 24.1892 18.1546 24.5132C18.1516 24.8372 18.1243 25.1491 18.0941 25.2064C18.0637 25.2636 18.0382 25.2773 18.0374 25.2367C18.0364 25.1961 18.0101 25.163 17.9789 25.163C17.9478 25.163 17.936 25.1873 17.9525 25.217C17.9692 25.2466 17.9544 25.2813 17.9197 25.2941C17.8775 25.3096 17.8542 25.5191 17.849 25.9297C17.8433 26.3797 17.8224 26.5491 17.7703 26.5682C17.7281 26.5838 17.7145 26.5673 17.7367 26.5276C17.7573 26.491 17.7512 26.461 17.7232 26.461C17.632 26.461 17.5898 26.6572 17.558 27.228C17.5375 27.5961 17.5053 27.7885 17.4642 27.7885C17.3551 27.7885 17.3217 27.8711 17.3927 27.9654C17.4507 28.0423 17.4477 28.0508 17.3737 28.0195C17.2737 27.9772 17.2715 27.9895 17.2617 28.644C17.2546 29.1257 17.2173 29.2459 17.0828 29.2208C17.0324 29.2114 16.9862 29.2516 16.9744 29.3148C16.9596 29.3944 16.9741 29.4117 17.0261 29.3772C17.0823 29.3399 17.085 29.3481 17.0384 29.4145C17.0054 29.4612 16.9736 29.711 16.9676 29.9692C16.956 30.4686 16.9415 30.5325 16.8405 30.5311C16.8023 30.5306 16.8089 30.5073 16.8571 30.473C16.9013 30.4416 16.9103 30.4154 16.8771 30.4149C16.8438 30.4143 16.7837 30.4589 16.7432 30.5139C16.6933 30.5817 16.6911 30.5994 16.7366 30.5694C16.7734 30.545 16.8035 30.5531 16.8035 30.5874C16.8035 30.622 16.7769 30.6501 16.7443 30.6501C16.7115 30.6501 16.6999 30.6929 16.7185 30.746C16.7367 30.7987 16.7292 30.8721 16.7013 30.9089C16.6159 31.0223 16.6583 32.0624 16.7511 32.1269C16.8043 32.164 16.8084 32.1824 16.7634 32.1831C16.6197 32.185 16.7059 32.2728 16.8572 32.2789C16.9708 32.2832 17.0184 32.2573 17.0196 32.1902C17.021 32.1089 17.0316 32.1104 17.0947 32.2024C17.194 32.3463 17.2189 32.2778 17.2196 31.8594C17.2209 31.2338 17.2234 31.2176 17.3077 31.2946C17.414 31.3918 17.4852 31.2594 17.5184 30.9035C17.5252 30.8322 17.5461 30.7566 17.5652 30.7356C17.5843 30.7146 17.5849 30.6535 17.5666 30.5999C17.5389 30.5182 17.5469 30.5144 17.6169 30.577C17.7307 30.6789 17.7997 30.5724 17.8145 30.2716C17.8274 30.0124 17.8605 29.9252 17.9285 29.9715C17.9539 29.9888 17.9901 29.9755 18.0089 29.942C18.0278 29.9085 18.0694 29.899 18.1015 29.9208C18.1394 29.9467 18.1492 29.9163 18.1295 29.8332C18.113 29.7632 18.1238 29.7059 18.1536 29.7059C18.1854 29.7059 18.1935 29.6423 18.1731 29.5528C18.1479 29.4419 18.1572 29.4065 18.207 29.4247C18.2914 29.4558 18.4157 29.3266 18.4341 29.1885C18.4415 29.1325 18.4696 29.0862 18.4962 29.0856C18.5228 29.0851 18.5726 29.0652 18.6067 29.0412C18.6409 29.0173 18.7075 29.014 18.7546 29.0339C18.8175 29.0605 18.8317 29.0449 18.8076 28.9755C18.7893 28.9233 18.7532 28.8952 18.7271 28.9129C18.7011 28.9306 18.6942 28.9038 18.7116 28.8535C18.7312 28.7977 18.7893 28.7711 18.8608 28.7854C18.9588 28.805 18.9802 28.7788 18.9907 28.6263C19.0058 28.4081 19.0175 28.3916 19.1393 28.4175C19.2275 28.4362 19.2276 28.4438 19.1435 28.5365C19.0454 28.6445 19.0292 28.703 19.0972 28.703C19.1213 28.703 19.1813 28.6095 19.2309 28.4952C19.2804 28.3809 19.3813 28.262 19.455 28.2312C19.5289 28.2003 19.5892 28.1432 19.5892 28.1045C19.5892 28.066 19.6051 28.0518 19.6245 28.0731C19.6439 28.0945 19.6968 28.079 19.742 28.0388C19.8075 27.9803 19.816 27.9803 19.7839 28.0393C19.7618 28.0797 19.7631 28.1125 19.787 28.1122C19.8694 28.1104 19.9375 28.0241 19.9375 27.9212C19.9375 27.8645 19.9616 27.8197 19.991 27.8218C20.0205 27.8241 20.037 27.8666 20.0276 27.9167C20.0175 27.971 20.0389 27.9965 20.0811 27.9802C20.12 27.9651 20.1485 27.9092 20.1444 27.856C20.14 27.7996 20.1792 27.7559 20.2381 27.7516C20.2937 27.7476 20.3693 27.741 20.4062 27.7368C20.443 27.7328 20.4731 27.6764 20.4731 27.6116C20.4733 27.4934 20.879 27.3708 21.0037 27.4511C21.0305 27.4683 21.0349 27.4515 21.0138 27.4137C20.9922 27.3751 21.0127 27.3293 21.0604 27.3092C21.1263 27.2815 21.1316 27.2548 21.0842 27.1916C21.0344 27.1257 21.048 27.1125 21.1553 27.1222C21.2573 27.1314 21.2831 27.1621 21.2674 27.2549C21.2496 27.3597 21.254 27.3581 21.3003 27.2428C21.3387 27.1474 21.4032 27.1075 21.5295 27.1012C21.6262 27.0964 21.7536 27.0898 21.8125 27.0865C21.8813 27.0827 21.9144 27.0452 21.9048 26.9817C21.8966 26.9274 21.9147 26.866 21.945 26.8454C21.9954 26.8112 22.024 26.8907 22.005 27.0114C21.9883 27.1165 22.1845 27.0138 22.2119 26.903C22.2366 26.8031 22.2859 26.7854 22.5357 26.7868C22.6978 26.7876 22.8484 26.7611 22.8706 26.728C22.8969 26.6882 22.926 26.6936 22.9553 26.7436C23.0158 26.8466 23.2858 26.7347 23.2858 26.6065C23.2858 26.555 23.3087 26.5287 23.3369 26.5479C23.3651 26.5672 23.373 26.6261 23.3546 26.679C23.3322 26.7434 23.3418 26.7613 23.3837 26.7326C23.4182 26.7092 23.4464 26.6385 23.4464 26.5755C23.4464 26.4714 24.5338 26.3887 24.992 26.4579C25.0364 26.4647 25.0487 26.4411 25.0239 26.3968C25.0014 26.3568 25.0057 26.3399 25.0337 26.359C25.1019 26.4053 37.0484 26.4669 45.5446 26.4647C52.0993 26.4629 52.8587 26.4796 52.5491 26.618C52.4518 26.6614 52.467 26.7295 52.5759 26.7377C52.6598 26.7441 63.9782 26.7476 64.3332 26.7415C64.4133 26.7401 64.4662 26.7162 64.4506 26.6884C64.435 26.6607 64.4492 26.6379 64.4821 26.6379C64.5152 26.6379 64.5282 26.6133 64.5112 26.5831C64.4591 26.4903 64.5438 26.4719 65.1152 26.4523C65.6066 26.4353 65.664 26.4222 65.6424 26.3313C65.6041 26.1699 65.7125 26.1188 66.1371 26.0974C66.4667 26.0808 66.5431 26.0577 66.5924 25.9595C66.6825 25.7804 66.7403 25.7509 66.9678 25.7673C67.1078 25.7776 67.1851 25.7554 67.2024 25.7006C67.2202 25.6437 67.2056 25.6336 67.1542 25.6676C67.0939 25.7077 67.0926 25.7 67.1468 25.6261C67.1834 25.5764 67.1975 25.5183 67.1782 25.4967C67.1588 25.4754 67.2177 25.4581 67.3091 25.4581C67.5447 25.4581 67.7378 25.3646 67.7597 25.24C67.7727 25.1656 67.8266 25.1335 67.9383 25.1335C68.0784 25.1335 68.0975 25.1134 68.0925 24.9713C68.0893 24.882 68.1073 24.8057 68.1326 24.8017C68.1578 24.7975 68.2027 24.7876 68.2322 24.7795C68.2616 24.7713 68.3081 24.7614 68.3356 24.7575C68.363 24.7533 68.3931 24.6903 68.4026 24.6173C68.4158 24.5143 68.4497 24.4882 68.5536 24.5014C68.6645 24.5155 68.6889 24.4921 68.6954 24.3649C68.705 24.1795 68.7232 24.1564 68.8689 24.1443C68.9537 24.1373 68.9822 24.0954 68.9822 23.9781C68.9822 23.868 69.0101 23.8215 69.0759 23.8218C69.274 23.8227 69.3036 23.8015 69.3036 23.6584C69.3036 23.5774 69.3277 23.511 69.3572 23.511C69.4614 23.511 69.4918 23.5002 69.5575 23.4404C69.5939 23.4069 69.612 23.3585 69.5975 23.3327C69.5574 23.2614 69.6295 23.0941 69.6842 23.1313C69.7106 23.1493 69.7338 23.116 69.736 23.0572C69.7393 22.962 69.7446 22.9632 69.7857 23.0685C69.8259 23.1717 69.8331 23.1736 69.8423 23.0832C69.848 23.0265 69.8587 22.9535 69.8661 22.921C69.8735 22.8886 69.8824 22.7849 69.8862 22.6905C69.8919 22.5448 69.9109 22.5235 70.0133 22.5481C70.1102 22.5715 70.1181 22.5647 70.0536 22.5141C69.9845 22.4598 69.9869 22.4506 70.0702 22.4499C70.1234 22.4494 70.1521 22.4225 70.134 22.3901C70.1157 22.3575 70.1278 22.3309 70.1607 22.3309C70.1937 22.3309 70.2078 22.3084 70.1924 22.2806C70.1768 22.2529 70.2236 22.2003 70.2964 22.1639C70.3691 22.1275 70.4285 22.0556 70.4285 22.0043C70.4285 21.953 70.4041 21.9276 70.3742 21.9481C70.3442 21.9684 70.3305 22.0043 70.3436 22.0279C70.3568 22.0513 70.325 22.074 70.273 22.0784C70.2211 22.0827 70.1785 22.0496 70.1785 22.0046C70.1785 21.9599 70.1929 21.933 70.2105 21.945C70.2734 21.9876 70.4591 21.8275 70.4638 21.7262C70.4666 21.6695 70.4718 21.5309 70.4754 21.4184C70.4805 21.264 70.5016 21.2218 70.5611 21.2471C70.6969 21.3044 70.7919 21.1304 70.793 20.8223C70.7944 20.4591 70.8177 20.3432 70.9084 20.2506C70.9654 20.1923 70.9723 20.1925 70.9423 20.2513C70.9197 20.2952 70.9352 20.325 70.9802 20.325C71.0335 20.325 71.0568 20.2501 71.0583 20.0742C71.0653 19.2638 71.0654 19.2629 71.1831 19.2629C71.2495 19.2629 71.2848 19.2333 71.2703 19.1892C71.2571 19.1486 71.2825 19.0695 71.3269 19.0133C71.396 18.9259 71.397 18.8968 71.3333 18.8102C71.2924 18.7547 71.2858 18.7271 71.3187 18.7488C71.3607 18.7766 71.3754 18.6662 71.368 18.3766C71.3622 18.1502 71.3748 17.9649 71.3959 17.9649C71.4171 17.9649 71.4286 17.8707 71.4217 17.7556C71.4119 17.5946 71.4267 17.5537 71.4856 17.5786C71.5279 17.5963 71.5738 17.6111 71.5879 17.6111C71.602 17.6111 71.5986 17.6376 71.5803 17.6701C71.5622 17.7025 71.5691 17.729 71.5959 17.729C71.6227 17.729 71.6464 17.5564 71.6487 17.3455C71.657 16.5469 71.6565 16.5509 71.737 16.5849C71.8342 16.626 71.9567 16.3981 71.8695 16.3387C71.8265 16.3094 71.8274 16.2864 71.8726 16.2557C71.911 16.2295 71.9413 16.0048 71.9507 15.6749C71.9592 15.379 71.9936 15.1004 72.0273 15.0557C72.0608 15.0111 72.0748 14.9597 72.0585 14.9417C72.0421 14.9237 72.0698 14.9127 72.1202 14.9176C72.1704 14.9224 72.2234 14.8897 72.2379 14.8446C72.2557 14.7885 72.2405 14.7773 72.19 14.809C72.1303 14.8465 72.129 14.8401 72.183 14.7759C72.2262 14.7247 72.2503 14.5067 72.2508 14.1625C72.2512 13.8689 72.27 13.6604 72.2924 13.6992C72.3193 13.7457 72.3601 13.7511 72.4121 13.7148C72.4814 13.6666 72.4812 13.6597 72.4108 13.6579C72.3412 13.6564 72.3407 13.6489 72.4081 13.6021C72.451 13.5722 72.5007 13.5578 72.5187 13.5702C72.5368 13.5823 72.5524 13.3429 72.5536 13.038C72.5557 12.4923 72.6401 12.183 72.7869 12.183C72.8173 12.183 72.8394 11.948 72.8394 11.6225C72.8394 11.1636 72.8538 11.0619 72.9197 11.0619C72.9852 11.0619 73 10.9637 73 10.531V10H49.4553C28.5625 10 25.9106 10.0099 25.9106 10.0885ZM23.305 10.9301C23.2602 10.962 23.2624 10.9924 23.313 11.0439C23.3673 11.0994 23.3877 11.09 23.4092 10.9997C23.4377 10.8791 23.4066 10.8581 23.305 10.9301ZM21.179 12.8708C21.1386 12.9155 21.2398 13.068 21.3101 13.068C21.3361 13.068 21.3572 13.0414 21.3572 13.009C21.3572 12.9766 21.3271 12.9566 21.2902 12.9648C21.2534 12.9729 21.2293 12.9464 21.2367 12.9058C21.2515 12.8239 21.2323 12.8121 21.179 12.8708ZM18.2593 23.7299C18.3347 23.83 18.3929 23.8265 18.3929 23.7219C18.3929 23.6756 18.3499 23.6414 18.2974 23.6458C18.2258 23.6516 18.2161 23.6726 18.2593 23.7299ZM67.6786 25.2397C67.6786 25.2818 67.6344 25.32 67.5804 25.3245C67.4814 25.3327 67.4519 25.2751 67.5179 25.2024C67.5784 25.1356 67.6786 25.1588 67.6786 25.2397ZM19.442 28.2919C19.2949 28.3569 19.2865 28.4079 19.4229 28.4079C19.4787 28.4079 19.5382 28.3682 19.5551 28.3195C19.5721 28.2709 19.5807 28.2327 19.5743 28.2348C19.5678 28.2367 19.5083 28.2626 19.442 28.2919ZM18.5258 29.2107C18.4281 29.3323 18.491 29.3899 18.5957 29.2747C18.6412 29.2246 18.6786 29.1682 18.6786 29.1496C18.6786 29.0877 18.599 29.1195 18.5258 29.2107ZM21.3572 33.3635C21.3572 33.3919 21.3102 33.4315 21.2527 33.4516C21.1953 33.4716 21.1604 33.5229 21.1753 33.5654C21.2012 33.64 20.854 33.6724 20.0312 33.6723C19.8211 33.6723 19.8034 33.6842 19.8028 33.8279C19.8022 33.9321 19.7874 33.9583 19.7579 33.907C19.7222 33.8452 19.7015 33.8466 19.6503 33.9146C19.6078 33.971 19.4993 33.9939 19.3215 33.9843C19.1755 33.9763 19.0679 33.9909 19.0826 34.0168C19.097 34.0426 19.0844 34.0806 19.0545 34.1009C19.0244 34.1213 19 34.0915 19 34.0348C19 33.9411 18.9921 33.9422 18.9156 34.0459C18.8693 34.109 18.8498 34.1207 18.8724 34.0721C18.9077 33.9958 18.9008 33.9947 18.8228 34.0645C18.7286 34.1486 18.6942 34.2818 18.782 34.222C18.8094 34.2034 18.8439 34.2095 18.8586 34.2358C18.8846 34.2821 18.6994 34.3207 18.3973 34.3319C18.2632 34.337 18.2264 34.377 18.2434 34.4988C18.2467 34.5226 18.1832 34.5573 18.1024 34.576C18.0215 34.5947 17.9106 34.637 17.8559 34.67C17.7868 34.7116 17.7673 34.7106 17.7918 34.6671C17.8133 34.6287 17.7947 34.618 17.7441 34.6393C17.6986 34.6586 17.6745 34.6979 17.6907 34.7267C17.7235 34.785 17.6321 34.9949 17.5841 34.9718C17.4349 34.8998 17.2913 34.9717 17.2589 35.1345C17.2393 35.2322 17.2039 35.2986 17.18 35.2825C17.0684 35.2065 16.7637 35.427 16.7309 35.6074C16.7126 35.7083 16.676 35.7762 16.6495 35.7581C16.623 35.7401 16.5687 35.7687 16.5288 35.8216C16.464 35.9076 16.4706 35.9132 16.5896 35.8733C16.6799 35.8433 16.7059 35.8481 16.6697 35.8886C16.6402 35.9215 16.5726 35.9578 16.5196 35.969C16.4663 35.9803 16.4282 36.0027 16.4348 36.019C16.4588 36.0783 16.3146 36.3165 16.2723 36.2875C16.2083 36.244 16.037 36.4726 16.0782 36.5463C16.0976 36.5808 16.094 36.6098 16.07 36.6108C15.9581 36.6157 15.8239 36.7989 15.8056 36.9722C15.7944 37.0778 15.7643 37.1871 15.739 37.2152C15.6993 37.2587 15.6539 37.275 15.4643 37.3134C15.4495 37.3163 15.4736 37.3446 15.5179 37.376C15.5646 37.4093 15.5719 37.4336 15.5352 37.4341C15.495 37.4346 15.4778 37.5203 15.4876 37.671C15.5016 37.8879 15.4728 37.9364 15.3438 37.9141C15.3216 37.9101 15.3035 37.935 15.3035 37.9696C15.3035 38.0039 15.2778 38.0145 15.2465 37.993C15.215 37.9716 15.1937 37.99 15.1992 38.0339C15.2331 38.3059 15.1896 38.5493 15.1027 38.5744C15.0184 38.5985 15.0181 38.602 15.0994 38.6082C15.2345 38.6183 15.2013 38.8507 15.0646 38.8519C14.9745 38.8526 14.9694 38.8627 15.0357 38.9101C15.1021 38.9572 15.097 38.9673 15.0071 38.9682C14.9123 38.9689 14.8975 39.0089 14.8924 39.2788C14.8809 39.9149 14.8798 39.921 14.7812 39.9099C14.6184 39.8917 14.6018 39.9099 14.6642 40.0381C14.6976 40.1069 14.7015 40.1473 14.6729 40.1277C14.6409 40.1061 14.6173 40.2868 14.6118 40.595C14.6006 41.2221 14.5505 41.3878 14.3824 41.3532C14.3146 41.3392 14.2892 41.3435 14.3262 41.363C14.3632 41.3822 14.3768 41.428 14.3561 41.4646C14.3357 41.5012 14.3125 41.7309 14.3046 41.9749C14.2968 42.2192 14.2651 42.428 14.2344 42.4393C14.2037 42.4506 14.1786 42.5272 14.1786 42.6096C14.1786 42.7343 14.1654 42.7475 14.1002 42.6878C14.0351 42.6283 14.0229 42.6396 14.0274 42.7543C14.054 43.4133 14.0112 44.1021 13.9436 44.1021C13.9028 44.1021 13.8299 44.1683 13.7817 44.2495C13.7258 44.3433 13.7162 44.3969 13.7553 44.3969C13.7961 44.3969 13.7995 44.4217 13.7654 44.4707C13.737 44.5113 13.7088 44.662 13.7025 44.8056C13.6954 44.9671 13.6562 45.0986 13.6 45.1498C13.516 45.2261 13.5173 45.2299 13.616 45.1982C13.7101 45.168 13.7127 45.1728 13.6381 45.2375C13.5913 45.2783 13.5625 45.3423 13.574 45.3798C13.5855 45.4174 13.5658 45.4681 13.5302 45.4922C13.4893 45.5201 13.4795 45.5114 13.5037 45.4681C13.5248 45.4306 13.519 45.4001 13.491 45.4001C13.4618 45.4001 13.4384 45.6715 13.4366 46.029C13.4337 46.6374 13.388 46.8093 13.2535 46.7177C13.228 46.7003 13.2116 46.722 13.2171 46.7659C13.241 46.9588 13.2097 47.0897 13.1676 46.972C13.1461 46.9118 13.1264 47.1033 13.1237 47.3975C13.1188 47.9433 13.0363 48.1893 12.9063 48.0462C12.8692 48.0053 12.8523 48.0583 12.8537 48.2122C12.8613 48.9961 12.8224 49.4602 12.7517 49.4302C12.7062 49.411 12.6783 49.4408 12.6778 49.509C12.677 49.6004 12.6685 49.6039 12.6265 49.5307C12.5895 49.4661 12.6073 49.4242 12.6944 49.372L12.8125 49.301L12.692 49.31C12.5546 49.3204 12.5575 49.3107 12.5422 49.825C12.5359 50.036 12.5279 50.2929 12.5244 50.3961C12.5208 50.4991 12.4828 50.6221 12.44 50.6693C12.3973 50.7164 12.3792 50.7756 12.3998 50.8009C12.4206 50.8262 12.4061 50.8271 12.368 50.8027C12.3143 50.7687 12.3127 50.7393 12.3611 50.6753C12.4019 50.6212 12.4041 50.5921 12.3674 50.5921C12.2729 50.5921 12.233 50.9471 12.236 51.7619C12.2367 51.9425 12.2203 51.9988 12.18 51.9544C12.1196 51.888 11.9286 52.0304 11.9286 52.1418C11.9286 52.1726 11.978 52.1353 12.0384 52.0588L12.1481 51.9196L12.0785 52.067C12.0403 52.1482 11.9949 52.2278 11.9779 52.2439C11.9607 52.2602 11.9447 52.4063 11.9421 52.5685C11.9324 53.1985 11.927 53.2529 11.8787 53.22C11.8513 53.2014 11.8135 53.2136 11.7947 53.2471C11.7758 53.2805 11.7412 53.2947 11.7175 53.2786C11.6939 53.2627 11.6719 53.3751 11.6686 53.5284C11.6652 53.6819 11.6528 53.9402 11.641 54.1026C11.6292 54.2647 11.6304 54.3376 11.6438 54.2644C11.6627 54.1617 11.6971 54.1369 11.7939 54.1563C11.9084 54.1792 11.9229 54.1553 11.956 53.8913C11.988 53.6351 12.0073 53.6011 12.1211 53.6011C12.2127 53.6011 12.25 53.5681 12.25 53.4869C12.25 53.4243 12.3223 53.3163 12.4107 53.2471C12.4991 53.1777 12.5715 53.0845 12.5715 53.0401C12.5715 52.9194 13.4236 52.0037 13.5986 51.9366C13.6819 51.9046 13.7501 51.8399 13.7501 51.7928C13.7501 51.7456 13.8343 51.6682 13.9375 51.6207C14.0407 51.5732 14.1249 51.5111 14.1249 51.4826C14.1249 51.4542 14.2275 51.3863 14.3527 51.3321C14.4779 51.2776 14.6171 51.1811 14.662 51.1175C14.7069 51.054 14.8392 50.9848 14.9561 50.964C15.0852 50.9409 15.2071 50.872 15.2668 50.7884C15.3296 50.7005 15.4213 50.651 15.5218 50.651C15.6095 50.651 15.728 50.5966 15.791 50.5272C15.913 50.3928 16.1584 50.297 16.3808 50.297C16.4581 50.297 16.5857 50.2412 16.6645 50.173C16.7454 50.1027 16.9635 50.0191 17.1672 49.9803C17.365 49.9425 17.5945 49.8615 17.6773 49.8001C17.7917 49.7156 17.9593 49.6818 18.3732 49.6597C18.802 49.637 18.9485 49.6063 19.0602 49.5154C19.3086 49.313 20.1734 49.2849 24.8661 49.3265L29.2589 49.3654L29.4327 49.5093C29.5281 49.5884 29.6212 49.7185 29.6393 49.7981L29.6724 49.943L31.3138 49.952C33.2686 49.9628 33.1023 49.9527 33.1292 50.0613C33.1468 50.1327 33.1413 50.1343 33.1001 50.0694C33.0358 49.9683 32.9736 50.0682 33.0339 50.1756C33.0589 50.2205 33.1174 50.2387 33.1676 50.2176C33.2218 50.1947 33.2409 50.1506 33.2163 50.1057C33.184 50.0464 33.1923 50.0462 33.258 50.1048C33.3032 50.1451 33.3561 50.1605 33.3755 50.1392C33.3949 50.1178 33.4108 50.1246 33.4108 50.1544C33.4108 50.1867 35.2413 50.2155 37.9375 50.2255C41.3499 50.2386 42.4642 50.2259 42.4642 50.1742C42.4642 50.1242 42.4861 50.1255 42.5447 50.1791C42.6126 50.2412 42.625 50.2285 42.625 50.0977C42.625 49.9432 42.6253 49.943 43.0937 49.9359C43.9649 49.9225 44.0546 49.9137 44.1435 49.8325C44.2186 49.764 44.2323 49.764 44.2329 49.8325C44.2336 49.8961 44.2449 49.8946 44.2857 49.825C44.3318 49.7463 44.338 49.7463 44.34 49.825C44.3419 49.8913 44.3571 49.8859 44.4007 49.8032C44.4448 49.7196 44.4412 49.6805 44.3857 49.6419C44.3399 49.6099 44.4525 49.587 44.6875 49.581C45.1894 49.5676 45.1825 49.5688 45.2609 49.4826C45.3165 49.4212 45.3145 49.3966 45.2496 49.3515C45.1587 49.2882 45.1693 49.2854 45.5312 49.2767C45.6418 49.2741 45.7322 49.2521 45.7322 49.228C45.7322 49.2037 45.7821 49.1666 45.8432 49.1451C45.9098 49.1218 45.9426 49.0733 45.9251 49.0231C45.896 48.9395 45.9465 48.9173 46.1217 48.9371C46.174 48.943 46.2133 48.9262 46.2091 48.8996C46.1839 48.7381 46.2215 48.6354 46.2946 48.6663C46.3389 48.6851 46.3749 48.6741 46.3749 48.642C46.3749 48.6089 46.4343 48.6002 46.5123 48.6217C46.6238 48.6524 46.6551 48.6353 46.6803 48.5293C46.7041 48.4295 46.7227 48.4174 46.7599 48.4778C46.7939 48.5329 46.8037 48.5123 46.7926 48.4091C46.7794 48.2856 46.7966 48.2646 46.8986 48.2802C46.9945 48.2949 47.0372 48.2543 47.1002 48.0885C47.144 47.9726 47.1932 47.8779 47.2092 47.8779C47.2253 47.8779 47.2212 47.9086 47.2002 47.9461C47.1766 47.9883 47.1856 47.9981 47.2239 47.9721C47.2579 47.9491 47.2858 47.8918 47.2858 47.845C47.2858 47.7983 47.3099 47.76 47.3393 47.76C47.3688 47.76 47.3929 47.692 47.3929 47.6091C47.3929 47.5053 47.4138 47.471 47.4598 47.4996C47.5134 47.5329 47.5134 47.5255 47.4598 47.4618C47.3716 47.3572 47.3752 47.3076 47.4708 47.3076C47.5138 47.3076 47.5354 47.3317 47.5189 47.3612C47.5023 47.3907 47.537 47.3817 47.5957 47.3411C47.662 47.2955 47.6976 47.2153 47.6891 47.1303C47.6816 47.0547 47.6989 46.9929 47.7274 46.9929C47.7559 46.9929 47.7633 46.9465 47.7436 46.8897C47.7149 46.807 47.7212 46.8011 47.7754 46.8603C47.8124 46.9008 47.8802 46.9321 47.9258 46.9298C47.9874 46.9269 47.983 46.9145 47.9087 46.8823C47.8161 46.8422 47.8151 46.8315 47.8953 46.7432C47.9559 46.6764 47.9821 46.5416 47.9821 46.2974C47.9821 45.9603 47.9871 45.9479 48.1141 45.9631C48.2757 45.9827 48.2964 45.9182 48.3097 45.356C48.3177 45.0197 48.3342 44.9416 48.3873 44.99C48.4298 45.0289 48.4665 45.0308 48.4867 44.9949C48.5042 44.9636 48.4883 44.9246 48.4513 44.9081C48.4106 44.8901 48.4212 44.8764 48.4777 44.8736C48.5834 44.8684 48.6085 44.752 48.5045 44.7492C48.4647 44.7482 48.4733 44.7243 48.5258 44.6906C48.5995 44.6433 48.6114 44.5461 48.5979 44.1024C48.5883 43.7884 48.6028 43.5709 48.6333 43.5709C48.6617 43.5709 48.6702 43.5973 48.6522 43.6294C48.633 43.6634 48.6559 43.6722 48.707 43.6505C48.7694 43.6242 48.7763 43.6011 48.7311 43.5704C48.6861 43.5397 48.6973 43.5036 48.7699 43.4459C48.8477 43.3838 48.8731 43.2873 48.8768 43.04C48.8874 42.3362 48.9264 42.0656 49.0151 42.0828C49.1287 42.1048 49.1764 41.9179 49.1925 41.3879C49.1997 41.1446 49.2076 40.8991 49.2099 40.8422C49.2126 40.7789 49.2569 40.739 49.3246 40.739C49.3852 40.739 49.42 40.7125 49.4018 40.68C49.3835 40.6476 49.3911 40.6211 49.4185 40.6211C49.4459 40.6211 49.469 40.5347 49.47 40.4292C49.4791 39.4046 49.4766 39.4256 49.5846 39.4568C49.7409 39.5017 49.7626 39.39 49.7965 38.3706C49.8023 38.1938 49.8272 38.1493 49.9374 38.1187C50.0656 38.0833 50.131 37.9069 50.016 37.9069C49.9778 37.9069 49.9778 37.8716 50.016 37.7928C50.0464 37.7302 50.0715 37.4749 50.0715 37.2254C50.0715 36.8003 50.0781 36.7742 50.1792 36.8032C50.2502 36.8237 50.3057 36.7963 50.3413 36.7231C50.3847 36.6334 50.3794 36.6185 50.3131 36.6464C50.2538 36.6714 50.2401 36.6546 50.2641 36.586C50.2822 36.5338 50.3132 36.491 50.3328 36.491C50.3524 36.491 50.3698 36.2755 50.3717 36.0122C50.3742 35.6265 50.3925 35.5224 50.4654 35.4775C50.5151 35.4469 50.5396 35.3928 50.5197 35.3573C50.4984 35.3194 50.5081 35.3095 50.543 35.3333C50.5756 35.3555 50.5892 35.4194 50.5729 35.4752C50.5539 35.5408 50.5597 35.552 50.5893 35.5071C50.6147 35.469 50.6424 35.1788 50.6512 34.8622C50.6668 34.2931 50.7451 34.0721 50.8947 34.1739C50.921 34.1918 50.9303 34.1696 50.9155 34.1245C50.9005 34.0794 50.8552 34.0513 50.8147 34.0622C50.7742 34.073 50.7612 34.0598 50.7857 34.0327C50.8103 34.0056 50.8552 33.9834 50.8856 33.9834C50.916 33.9834 50.9484 33.8573 50.9579 33.7033C50.9675 33.5449 50.9517 33.423 50.9218 33.423C50.8925 33.423 50.8868 33.3899 50.9089 33.3493C50.9363 33.2991 50.9201 33.3014 50.8585 33.3564C50.798 33.4105 50.7679 33.415 50.7679 33.3703C50.7679 33.3201 47.032 33.3042 36.0625 33.3075C27.7254 33.3101 21.3572 33.3344 21.3572 33.3635ZM16.9464 35.5076C16.9464 35.551 16.9183 35.5864 16.8839 35.5864C16.8495 35.5864 16.8215 35.551 16.8215 35.5076C16.8215 35.4644 16.8495 35.4291 16.8839 35.4291C16.9183 35.4291 16.9464 35.4644 16.9464 35.5076ZM11.4854 54.7183C11.4666 54.7973 11.4808 54.8217 11.5328 54.7997C11.6172 54.7641 11.6301 54.6857 11.5597 54.6377C11.5336 54.6198 11.5002 54.6561 11.4854 54.7183Z" fill="#3B82F6"/>
    <path fill-rule="evenodd" clip-rule="evenodd" d="M19.7768 49.628C19.5999 49.6743 19.2504 49.7367 19 49.7671C18.3494 49.8455 18.1851 49.8817 18.0511 49.9768C17.9859 50.0229 17.7577 50.0882 17.5439 50.1215C17.3302 50.1549 17.1009 50.2214 17.0344 50.2694C16.968 50.3173 16.7659 50.3945 16.5854 50.441C16.4049 50.4873 16.2175 50.5648 16.1688 50.6131C16.1201 50.6613 16.008 50.7199 15.9196 50.7432C15.7045 50.7999 14.4495 51.5123 14.3095 51.6571C14.2484 51.7203 14.172 51.7719 14.1397 51.7719C13.9551 51.7719 12.4107 53.4422 12.4107 53.6418C12.4107 53.672 12.3417 53.7747 12.2574 53.8701C12.1732 53.9655 12.0858 54.1098 12.0634 54.191C12.0021 54.4127 11.9303 54.4861 11.7747 54.4859C11.6408 54.4857 11.6339 54.5008 11.6339 54.7903C11.6339 55.1097 11.567 55.2002 11.4366 55.0568C11.3712 54.9848 11.3591 55.0264 11.3479 55.3586C11.3331 55.8004 11.318 55.8431 11.1754 55.8431C11.0997 55.8431 11.0693 55.8871 11.0633 56.0052C11.0587 56.0946 11.0496 56.1941 11.0426 56.2266C11.0359 56.259 11.0274 56.5444 11.0241 56.8607C11.0179 57.4332 11.0171 57.4359 10.8839 57.4359H10.75V58.0776V58.7192L10.5892 58.7546L10.4286 58.7901V59.407C10.4286 60.0018 10.4243 60.0245 10.3081 60.0427C10.1926 60.0607 10.1868 60.0888 10.1723 60.6958C10.16 61.2061 10.1418 61.3299 10.0786 61.3299C10.0123 61.3299 10 61.509 10 62.4805C10 63.4521 10.0123 63.6311 10.0786 63.6311C10.1418 63.6311 10.16 63.7542 10.1723 64.2597C10.1859 64.8182 10.1985 64.8902 10.2862 64.9043C10.4191 64.9256 10.4163 64.9188 10.4377 65.2534C10.4552 65.5251 10.4684 65.5501 10.6034 65.5672C10.7431 65.5849 10.75 65.6009 10.75 65.9065C10.75 66.2068 10.7582 66.2271 10.8804 66.2271C10.9828 66.2271 11.0143 66.2618 11.0277 66.3893C11.0411 66.5167 11.0762 66.5556 11.192 66.5702C11.3167 66.586 11.3402 66.6177 11.3455 66.7768C11.3565 67.1147 11.3646 67.1355 11.498 67.1703C11.5797 67.1917 11.6418 67.2593 11.6607 67.348C11.6797 67.4366 11.7416 67.5043 11.8232 67.5254C11.9076 67.5474 11.955 67.6012 11.9552 67.6751C11.9554 67.7679 12.0103 67.8012 12.2367 67.8455C12.4806 67.8933 12.5178 67.9187 12.5178 68.0373C12.5178 68.1492 12.5465 68.174 12.675 68.174C12.8066 68.174 12.835 68.2004 12.8492 68.3363C12.8649 68.4876 12.8849 68.4997 13.1473 68.5164C13.4056 68.5327 13.4286 68.5461 13.4286 68.6786C13.4286 68.8198 13.4382 68.8231 13.8572 68.8231C14.2024 68.8231 14.2857 68.8402 14.2857 68.9115C14.2857 68.9889 14.616 69 16.9376 69C19.259 69 19.5892 68.9889 19.5892 68.9115C19.5892 68.8382 19.6903 68.8231 20.1775 68.8231C20.7573 68.8231 20.7662 68.8208 20.7988 68.6784C20.8277 68.5516 20.8656 68.5317 21.1078 68.5162C21.3635 68.4997 21.3852 68.4867 21.4006 68.3386C21.417 68.1821 21.4258 68.1785 21.8292 68.1617C22.2064 68.1459 22.2425 68.1337 22.2578 68.0153C22.2694 67.9249 22.3176 67.8807 22.4184 67.8678C22.5307 67.8536 22.5663 67.8137 22.5795 67.6873C22.5954 67.5348 22.6123 67.5251 22.8597 67.5251C23.0958 67.5251 23.1264 67.5098 23.1566 67.3775C23.1807 67.2716 23.2264 67.23 23.3184 67.23C23.425 67.23 23.4464 67.2004 23.4464 67.0531C23.4464 66.894 23.464 66.8753 23.6206 66.8697C23.9851 66.8566 24.0088 66.8475 24.026 66.7138C24.0369 66.63 24.0802 66.5809 24.1435 66.5809C24.1986 66.5809 24.2629 66.5478 24.2862 66.5072C24.3281 66.4347 24.3371 66.4033 24.3505 66.286C24.3541 66.2536 24.4174 66.2271 24.4911 66.2271C24.5982 66.2271 24.625 66.1976 24.625 66.0795C24.625 65.9768 24.6543 65.932 24.7214 65.932C24.8448 65.932 24.9464 65.8201 24.9464 65.6841C24.9464 65.6168 24.9861 65.578 25.055 65.578C25.1326 65.578 25.1724 65.5277 25.1956 65.4011C25.2199 65.2668 25.257 65.224 25.3492 65.224C25.4912 65.224 25.5356 65.1246 25.5356 64.8063C25.5356 64.599 25.5495 64.575 25.6697 64.575C25.7758 64.575 25.8035 64.5452 25.8035 64.4314C25.8035 64.3187 25.8352 64.2838 25.951 64.2692C26.0883 64.2517 26.0993 64.2297 26.1145 63.9407C26.1293 63.6564 26.1414 63.6311 26.2617 63.6311C26.3846 63.6311 26.3929 63.6109 26.3929 63.3138C26.3929 63.0087 26.3989 62.9955 26.5536 62.9613C26.7062 62.9277 26.7142 62.9112 26.7142 62.6337C26.7142 62.3754 26.7284 62.339 26.8349 62.3223C26.9472 62.3048 26.9564 62.2706 26.9709 61.8167L26.9865 61.3299H27.145H27.3036V60.6848V60.0399L27.4508 60.0212L27.5983 60.0025L27.6134 59.3683C27.6285 58.7379 27.6294 58.7339 27.7608 58.7339H27.8928V58.085C27.8928 57.4398 27.8936 57.4359 28.021 57.4359C28.1914 57.4359 28.2142 57.3485 28.2142 56.6979C28.2142 56.1707 28.2196 56.1454 28.3349 56.1274C28.4502 56.1093 28.456 56.0812 28.4705 55.4743C28.4825 54.979 28.5022 54.8399 28.5604 54.8399C28.7463 54.8399 28.8036 54.667 28.8036 54.1046C28.8036 53.5673 28.8066 53.5539 28.9375 53.5178C29.0703 53.481 29.0714 53.4748 29.0714 52.8328C29.0714 52.1907 29.0726 52.185 29.1983 52.185C29.3487 52.185 29.3914 51.995 29.3923 51.3189C29.3928 50.9246 29.4012 50.8939 29.5135 50.8764C29.6269 50.8587 29.634 50.8301 29.634 50.3874V49.9171L29.366 49.7973C28.9361 49.6049 20.4375 49.4549 19.7768 49.628Z" fill="#60A5FA"/>
    <path fill-rule="evenodd" clip-rule="evenodd" d="M24.0032 10.6179C24.0225 10.7632 24.0893 10.7951 24.0893 10.6588C24.0893 10.5885 24.0673 10.531 24.0405 10.531C24.0136 10.531 23.9969 10.57 24.0032 10.6179ZM23.4302 10.9235C23.444 10.963 23.4894 10.9811 23.5313 10.9634C23.6398 10.9176 23.625 10.8513 23.5061 10.8513C23.4485 10.8513 23.4159 10.8822 23.4302 10.9235ZM23.2426 11.0777C23.1872 11.1513 23.1982 11.1653 23.3114 11.1653C23.3858 11.1653 23.4464 11.1405 23.4464 11.1101C23.4464 11.0798 23.4244 11.0701 23.3974 11.0885C23.3705 11.1067 23.3395 11.0921 23.3284 11.0558C23.3155 11.013 23.2856 11.0206 23.2426 11.0777ZM22.442 11.5504C22.3075 11.618 22.2771 11.8094 22.4009 11.8094C22.4611 11.8094 22.466 11.7903 22.4212 11.7306C22.376 11.6708 22.3819 11.652 22.4457 11.652C22.5242 11.652 22.6224 11.5478 22.5813 11.5079C22.5709 11.4978 22.5083 11.5169 22.442 11.5504ZM21.2145 12.9058C21.1338 13.0482 21.1398 13.1837 21.2252 13.1474C21.2877 13.1211 21.2923 13.0945 21.2449 13.0316C21.1967 12.9679 21.2023 12.95 21.2702 12.95C21.3181 12.95 21.3572 12.9235 21.3572 12.8911C21.3572 12.808 21.2646 12.8175 21.2145 12.9058ZM72.4494 13.5644C72.3713 13.6295 72.368 13.6499 72.4306 13.6765C72.4771 13.6961 72.5179 13.664 72.5343 13.595C72.5492 13.5323 72.5576 13.4819 72.553 13.4829C72.5485 13.4839 72.5017 13.5205 72.4494 13.5644ZM20.2679 14.7594C20.2029 14.831 20.2309 14.8938 20.3125 14.8593C20.3567 14.8406 20.3928 14.8017 20.3928 14.7728C20.3928 14.7108 20.3191 14.703 20.2679 14.7594ZM19.6437 17.0581C19.6433 17.0947 19.685 17.1601 19.7367 17.2036C19.7882 17.247 19.8127 17.2595 19.791 17.2314C19.7694 17.2033 19.7935 17.1452 19.8445 17.1025C19.8964 17.0593 19.9093 17.0239 19.8737 17.0229C19.8386 17.0218 19.7934 17.0505 19.7732 17.0864C19.7477 17.1318 19.7226 17.1273 19.6905 17.0716C19.6634 17.0243 19.6442 17.0187 19.6437 17.0581ZM71.4644 17.7629C71.4305 17.8416 71.4231 17.906 71.4478 17.906C71.4945 17.906 71.5778 17.677 71.5446 17.6404C71.5342 17.6289 71.4981 17.6841 71.4644 17.7629ZM19.416 18.5084C19.4311 18.572 19.4585 18.6019 19.4768 18.5748C19.4952 18.5476 19.5289 18.5089 19.5519 18.4888C19.5747 18.4685 19.5475 18.4387 19.4911 18.4225C19.4105 18.3993 19.3944 18.4175 19.416 18.5084ZM70.8297 20.3262C70.8119 20.358 70.8115 20.384 70.829 20.384C70.8467 20.384 70.832 20.4437 70.7967 20.5167C70.7391 20.6359 70.7413 20.6414 70.8193 20.5706C70.867 20.5273 70.9349 20.5115 70.9701 20.5356C71.009 20.562 71.0204 20.5542 70.999 20.5162C70.9796 20.4815 70.9881 20.444 71.018 20.4331C71.048 20.4222 71.0251 20.3805 70.9673 20.3408C70.9012 20.2952 70.8501 20.2898 70.8297 20.3262ZM18.5138 22.2867C18.4743 22.4288 18.4863 22.495 18.5466 22.4695C18.586 22.4529 18.6052 22.4015 18.5891 22.3556C18.5631 22.2811 18.525 22.2463 18.5138 22.2867ZM18.4066 23.4962C18.4044 23.5205 18.3949 23.5835 18.3856 23.6359C18.3763 23.6882 18.3862 23.7625 18.4077 23.8006C18.4292 23.839 18.45 23.7762 18.4538 23.6612C18.4598 23.4881 18.4201 23.3498 18.4066 23.4962ZM18.205 23.7203C18.1248 23.9141 18.1265 23.9453 18.2125 23.857C18.2717 23.796 18.3266 23.5699 18.282 23.5699C18.2739 23.5699 18.2393 23.6376 18.205 23.7203ZM67.5652 25.2268C67.5789 25.2511 67.5718 25.2822 67.5494 25.2959C67.5272 25.3094 67.5384 25.3129 67.5744 25.3033C67.6105 25.2938 67.6614 25.328 67.6875 25.3795C67.7165 25.4364 67.7485 25.4494 67.7691 25.4128C67.7877 25.3795 67.7653 25.3365 67.7195 25.317C67.6737 25.2978 67.6486 25.2594 67.6639 25.2322C67.6792 25.205 67.6576 25.1826 67.616 25.1826C67.5744 25.1826 67.5516 25.2026 67.5652 25.2268ZM26.7545 26.4463C27.6162 26.4553 29.0266 26.4553 29.8885 26.4463C30.7502 26.4371 30.045 26.4296 28.3215 26.4296C26.5978 26.4296 25.8927 26.4371 26.7545 26.4463ZM54.5887 26.8003C55.4673 26.8093 56.8896 26.8093 57.7494 26.8003C58.6091 26.7911 57.8902 26.7836 56.1518 26.7836C54.4134 26.7836 53.71 26.7911 54.5887 26.8003ZM21.0979 27.1883C21.1778 27.2551 21.1705 27.2709 21.0278 27.3404C20.9404 27.3829 20.8817 27.432 20.8974 27.4494C20.9132 27.4667 20.9596 27.4501 21.0009 27.4124C21.042 27.3748 21.113 27.3597 21.1587 27.3791C21.2181 27.4041 21.2365 27.3835 21.2231 27.3063C21.2129 27.247 21.2028 27.1786 21.2005 27.1543C21.1983 27.1299 21.1543 27.1108 21.1026 27.1118C21.0159 27.1136 21.0156 27.1193 21.0979 27.1883ZM19.9505 27.8032C19.9123 27.8877 19.9378 28.0149 19.9975 28.0367C20.0353 28.0506 20.0479 28.0034 20.0313 27.9089C20.0044 27.7535 19.9847 27.7278 19.9505 27.8032ZM19.0178 28.5071C19.0178 28.55 19.0299 28.5717 19.0448 28.5554C19.0596 28.5391 19.1128 28.5668 19.1632 28.6169C19.2445 28.6979 19.2582 28.6981 19.2857 28.619C19.3027 28.5699 19.2881 28.5103 19.2531 28.4865C19.146 28.4135 19.0178 28.4247 19.0178 28.5071ZM18.9191 28.763C18.9006 28.7959 18.8657 28.8095 18.8416 28.7932C18.8176 28.7767 18.7658 28.8095 18.7266 28.8659C18.6874 28.9224 18.6767 28.9486 18.7028 28.9241C18.7288 28.8997 18.8005 28.926 18.8617 28.9824C18.923 29.039 18.9567 29.0629 18.9364 29.0355C18.9162 29.0083 18.9217 28.9222 18.9485 28.8443C18.998 28.7011 18.9807 28.6532 18.9191 28.763ZM18.5574 29.0806C18.4688 29.1548 18.4686 29.1644 18.5543 29.241C18.6242 29.3035 18.6357 29.3044 18.6031 29.2449C18.5767 29.1965 18.5981 29.1359 18.6598 29.0844C18.7143 29.039 18.7348 29.0017 18.7053 29.0017C18.6759 29.0017 18.6093 29.0372 18.5574 29.0806ZM18.3036 29.4145C18.3036 29.4489 18.2812 29.4617 18.2536 29.443C18.1872 29.3977 18.1404 29.4881 18.187 29.5713C18.2643 29.709 18.3705 29.6775 18.379 29.5142C18.3837 29.4251 18.3686 29.3521 18.3455 29.3521C18.3225 29.3521 18.3036 29.3802 18.3036 29.4145ZM17.3934 31.2098C17.357 31.2582 17.302 31.2806 17.2713 31.2598C17.2379 31.2369 17.2318 31.2506 17.256 31.2938C17.2863 31.3477 17.3252 31.339 17.4116 31.2593C17.475 31.2006 17.5368 31.1458 17.5491 31.1373C17.5614 31.129 17.5463 31.122 17.5154 31.122C17.4847 31.122 17.4297 31.1616 17.3934 31.2098ZM22.067 33.3456C22.1185 33.3605 22.2029 33.3605 22.2544 33.3456C22.3061 33.3309 22.2639 33.3187 22.1607 33.3187C22.0576 33.3187 22.0154 33.3309 22.067 33.3456ZM19.7233 33.718C19.7414 33.7505 19.7308 33.777 19.6996 33.777C19.6685 33.777 19.6428 33.8051 19.6428 33.8395C19.6428 33.8738 19.6648 33.887 19.6919 33.8686C19.7189 33.8502 19.7515 33.8686 19.7645 33.9094C19.7774 33.9501 19.7885 33.9104 19.7891 33.8213C19.7897 33.7319 19.7677 33.6591 19.7401 33.6591C19.7126 33.6591 19.705 33.6856 19.7233 33.718ZM17.6339 34.78C17.6521 34.8124 17.64 34.8389 17.6071 34.8389C17.5742 34.8389 17.5638 34.8684 17.5839 34.9043C17.6095 34.9498 17.6345 34.9453 17.6666 34.8896C17.729 34.7812 17.7257 34.721 17.6575 34.721C17.6263 34.721 17.6158 34.7475 17.6339 34.78ZM16.5566 35.6637C16.3847 35.7402 16.3507 35.96 16.5107 35.96C16.5799 35.96 16.653 35.9305 16.6731 35.8946C16.698 35.8504 16.669 35.8419 16.5826 35.8681C16.4652 35.9038 16.4679 35.8951 16.6161 35.7567C16.7796 35.6039 16.7599 35.5734 16.5566 35.6637ZM15.879 36.6164C15.8277 36.648 15.7858 36.7123 15.7858 36.7595C15.7858 36.8223 15.8154 36.8122 15.8973 36.722C16.0248 36.5817 16.0162 36.5317 15.879 36.6164ZM50.1518 36.7892C50.0929 36.8154 50.0567 36.8407 50.0715 36.8454C50.1972 36.8859 50.2898 36.8854 50.3132 36.8438C50.3567 36.7663 50.2699 36.7369 50.1518 36.7892ZM14.9658 38.6356C14.9461 38.6924 14.9776 38.7182 15.0668 38.7182C15.1381 38.7182 15.1964 38.6906 15.1964 38.6568C15.1964 38.623 15.1805 38.6127 15.1611 38.6341C15.1417 38.6556 15.0964 38.646 15.0603 38.6129C15.0143 38.5709 14.986 38.5777 14.9658 38.6356ZM14.9472 38.8207C14.8929 38.8644 14.8682 38.9222 14.8924 38.9489C14.9168 38.9756 14.9595 38.9524 14.9876 38.8972C15.0157 38.8417 15.0739 38.8119 15.1175 38.8303C15.161 38.8486 15.1964 38.8504 15.1964 38.8341C15.1964 38.7581 15.0357 38.7494 14.9472 38.8207ZM49.3994 40.6757C49.4163 40.7059 49.3811 40.7427 49.3215 40.7574C49.2243 40.7813 49.2252 40.7834 49.3298 40.7763C49.4482 40.7683 49.5432 40.6211 49.4298 40.6211C49.3963 40.6211 49.3826 40.6457 49.3994 40.6757ZM49.1071 42.0433C49.1071 42.0792 49.0718 42.0937 49.0285 42.0753C48.9852 42.0571 48.9334 42.0717 48.9131 42.1076C48.8908 42.1473 48.9008 42.1567 48.9381 42.1312C48.9721 42.108 49 42.1144 49 42.1453C49 42.1761 49.0414 42.219 49.0921 42.2403C49.1428 42.2616 49.1677 42.2611 49.1476 42.2389C49.1274 42.2167 49.135 42.1489 49.1644 42.0882C49.2008 42.0136 49.2002 41.978 49.1625 41.978C49.1321 41.978 49.1071 42.0074 49.1071 42.0433ZM14.1249 42.5125C14.1249 42.5468 14.1008 42.5586 14.0714 42.5385C13.9866 42.4807 14.0092 42.6046 14.0982 42.6859C14.1662 42.748 14.1786 42.7355 14.1786 42.6047C14.1786 42.5196 14.1665 42.45 14.1519 42.45C14.1371 42.45 14.1249 42.4781 14.1249 42.5125ZM48.6571 43.4408C48.6886 43.4637 48.739 43.5319 48.7689 43.5923C48.8181 43.6913 48.8266 43.6925 48.8575 43.6039C48.8803 43.5385 48.871 43.5199 48.8296 43.548C48.7899 43.5751 48.7784 43.5593 48.7974 43.5043C48.8176 43.4467 48.7897 43.415 48.7135 43.4087C48.6508 43.4035 48.6255 43.4179 48.6571 43.4408ZM13.9643 43.8112C13.9643 43.9225 13.8162 44.053 13.7854 43.9687C13.7706 43.9284 13.7594 43.9884 13.7605 44.1021C13.7616 44.2155 13.7734 44.262 13.7869 44.2053C13.8005 44.1484 13.8528 44.1021 13.9033 44.1021C13.9668 44.1021 13.9988 44.0476 14.0073 43.925C14.014 43.8276 14.0071 43.748 13.992 43.748C13.9767 43.748 13.9643 43.7765 13.9643 43.8112ZM13.4781 45.1492C13.4759 45.1735 13.4661 45.238 13.4565 45.2927C13.447 45.3472 13.47 45.4049 13.5078 45.4209C13.5548 45.4406 13.5745 45.3954 13.5701 45.2774C13.5645 45.1288 13.4896 45.0243 13.4781 45.1492ZM13.1585 46.7275C13.1563 46.76 13.1456 46.906 13.1346 47.0519C13.1235 47.198 13.1268 47.2776 13.1418 47.229C13.2388 46.9147 13.2517 46.8238 13.2097 46.7508C13.1837 46.7055 13.1606 46.6951 13.1585 46.7275ZM47.9017 46.757C47.9314 46.8096 47.8625 46.8412 47.7564 46.8236C47.7354 46.8202 47.732 46.8569 47.7487 46.9052C47.7655 46.9536 47.8022 46.9929 47.8304 46.9929C47.8584 46.9929 47.8665 46.9664 47.8482 46.934C47.8301 46.9015 47.8528 46.875 47.8986 46.875C47.9446 46.875 47.9821 46.8351 47.9821 46.7865C47.9821 46.7378 47.9566 46.6981 47.9254 46.6981C47.8942 46.6981 47.8836 46.7246 47.9017 46.757ZM47.5345 47.4207C47.4785 47.5074 47.4596 47.5177 47.4801 47.4502C47.4973 47.3935 47.4899 47.347 47.4636 47.347C47.3834 47.347 47.3949 47.5713 47.4768 47.6059C47.5228 47.6252 47.5535 47.6021 47.5535 47.5482C47.5535 47.4986 47.5726 47.471 47.5957 47.4866C47.6189 47.5024 47.6378 47.4642 47.6378 47.4016C47.6378 47.2601 47.6382 47.2599 47.5345 47.4207ZM47.2858 47.8519C47.2858 47.9066 47.2606 47.9268 47.2239 47.9019C47.1864 47.8764 47.1765 47.8856 47.1988 47.9253C47.2477 48.0122 47.3751 47.9549 47.3751 47.846C47.3751 47.7987 47.3549 47.76 47.3303 47.76C47.3058 47.76 47.2858 47.8014 47.2858 47.8519ZM46.2143 48.7334C46.2143 48.7822 46.214 48.8419 46.2137 48.8663C46.2126 48.9341 46.4268 48.932 46.465 48.8639C46.4854 48.8276 46.4718 48.8221 46.4312 48.8498C46.3806 48.8842 46.3732 48.8604 46.4016 48.7556C46.4389 48.6184 46.4379 48.6179 46.3537 48.7334C46.2839 48.8292 46.2738 48.832 46.3003 48.7482C46.3186 48.6904 46.3067 48.645 46.2735 48.645C46.2409 48.645 46.2143 48.6849 46.2143 48.7334ZM12.6438 49.3388C12.6633 49.3735 12.6558 49.4108 12.6271 49.4217C12.5975 49.433 12.5942 49.4757 12.6192 49.5203C12.6529 49.5798 12.6709 49.569 12.6929 49.476C12.709 49.4084 12.6966 49.3357 12.6652 49.3144C12.6334 49.2928 12.6241 49.3036 12.6438 49.3388ZM19.708 49.3522C19.3342 49.3827 19.1744 49.4222 19.0644 49.5118C18.9477 49.6068 18.8082 49.6366 18.3732 49.6597C17.9593 49.6817 17.7917 49.7156 17.6773 49.8C17.5945 49.8614 17.365 49.9425 17.1672 49.9803C16.9635 50.0191 16.7454 50.1027 16.6645 50.173C16.5857 50.2412 16.4581 50.297 16.3808 50.297C16.1584 50.297 15.913 50.3928 15.791 50.5272C15.728 50.5966 15.6095 50.651 15.5218 50.651C15.4213 50.651 15.3296 50.7005 15.2668 50.7884C15.2071 50.872 15.0852 50.9409 14.9561 50.964C14.8392 50.9848 14.7069 51.054 14.662 51.1175C14.6171 51.1811 14.4779 51.2776 14.3527 51.332C14.2275 51.3863 14.1249 51.4542 14.1249 51.4826C14.1249 51.5111 14.0407 51.5732 13.9375 51.6207C13.8343 51.6682 13.7501 51.7456 13.7501 51.7928C13.7501 51.8399 13.6819 51.9046 13.5986 51.9365C13.4236 52.0037 12.5715 52.9194 12.5715 53.0401C12.5715 53.0845 12.4991 53.1777 12.4107 53.247C12.3223 53.3163 12.25 53.4243 12.25 53.4869C12.25 53.5681 12.2127 53.6011 12.1211 53.6011C12.0073 53.6011 11.988 53.6351 11.9558 53.8916C11.9202 54.1771 11.8509 54.2313 11.6739 54.1117C11.6519 54.0968 11.6322 54.1751 11.63 54.2854C11.6229 54.6332 11.9615 54.5594 12.0634 54.191C12.0858 54.1098 12.1732 53.9655 12.2574 53.8701C12.3417 53.7747 12.4107 53.672 12.4107 53.6418C12.4107 53.4422 13.9551 51.7719 14.1397 51.7719C14.172 51.7719 14.2484 51.7202 14.3095 51.6571C14.4495 51.5123 15.7045 50.7999 15.9196 50.7431C16.008 50.7199 16.1201 50.6613 16.1688 50.613C16.2175 50.5648 16.4049 50.4873 16.5854 50.441C16.7659 50.3945 16.968 50.3173 17.0344 50.2694C17.1009 50.2214 17.3302 50.1549 17.5439 50.1215C17.7577 50.0882 17.9859 50.0229 18.0511 49.9768C18.1854 49.8816 18.3521 49.8448 19 49.7678C19.2504 49.7379 19.6288 49.6715 19.8406 49.62C20.5774 49.4412 28.9329 49.6028 29.3794 49.8046C29.7245 49.9605 29.7658 49.8595 29.4788 49.5615L29.2969 49.3725L25.9565 49.3333C22.1551 49.2887 20.4245 49.2939 19.708 49.3522ZM33.2142 50.1504C33.2142 50.1987 33.2585 50.238 33.3125 50.238C33.3665 50.238 33.4106 50.207 33.4106 50.1692C33.4106 50.1314 33.3949 50.1178 33.3755 50.1392C33.3561 50.1605 33.3119 50.152 33.2772 50.1204C33.2338 50.0807 33.2142 50.0901 33.2142 50.1504ZM34.3884 50.2231C34.8819 50.2328 35.6895 50.2328 36.183 50.2231C36.6766 50.2134 36.2727 50.2054 35.2857 50.2054C34.2986 50.2054 33.8948 50.2134 34.3884 50.2231ZM42.1563 50.2196C42.2078 50.2346 42.2922 50.2346 42.3437 50.2196C42.3954 50.2049 42.3532 50.1928 42.25 50.1928C42.1469 50.1928 42.1046 50.2049 42.1563 50.2196ZM12.3857 50.6481C12.3658 50.6831 12.3272 50.6967 12.2998 50.6779C12.2156 50.6207 12.2447 50.6908 12.3406 50.7764C12.3905 50.821 12.4145 50.8266 12.3938 50.7888C12.3734 50.7509 12.3868 50.7081 12.4238 50.6935C12.4608 50.6791 12.4754 50.6484 12.4562 50.6257C12.4372 50.6028 12.4053 50.6129 12.3857 50.6481ZM12.1206 51.9343C12.0984 51.9586 12.0543 51.9785 12.0223 51.9785C11.9903 51.9785 11.9599 52.042 11.9547 52.1199L11.9453 52.2611L12.0488 52.1048C12.1056 52.0188 12.1741 51.9634 12.2011 51.9816C12.228 52 12.25 51.9869 12.25 51.9525C12.25 51.88 12.1789 51.8699 12.1206 51.9343ZM11.418 54.6483C11.3671 54.7797 11.3375 55.2337 11.3854 55.1483C11.4051 55.1131 11.469 55.0892 11.5276 55.0949C11.6182 55.1039 11.6364 55.0637 11.6503 54.8252C11.6676 54.5277 11.5109 54.4082 11.418 54.6483ZM11.6071 54.7549C11.6071 54.8018 11.5733 54.8399 11.5318 54.8399C11.483 54.8399 11.4663 54.7986 11.4843 54.7227C11.5148 54.5943 11.6071 54.6186 11.6071 54.7549Z" fill="#24B4E4"/>
    <path fill-rule="evenodd" clip-rule="evenodd" d="M19.6047 17.8175C19.605 17.9797 19.6154 18.0392 19.6277 17.9495C19.6401 17.8598 19.6398 17.727 19.627 17.6544C19.6143 17.5819 19.6042 17.6553 19.6047 17.8175ZM70.1785 22.0184C70.1785 22.1167 70.2037 22.115 70.299 22.0102C70.3661 21.9363 70.3633 21.9262 70.2773 21.9334C70.223 21.9379 70.1785 21.9762 70.1785 22.0184ZM60.6885 26.8001C61.1801 26.8098 61.9999 26.8098 62.51 26.8001C63.0202 26.7904 62.6179 26.7824 61.6161 26.7824C60.6144 26.7824 60.1968 26.7904 60.6885 26.8001ZM19.0496 28.4227C19.0271 28.5063 19.0136 28.7148 19.0342 28.6603C19.0493 28.6204 19.0577 28.5703 19.0529 28.5488C19.0482 28.5273 19.0766 28.4872 19.1159 28.4598C19.1695 28.4223 19.1706 28.4097 19.1205 28.409C19.0837 28.4084 19.0518 28.4147 19.0496 28.4227ZM17.0179 29.1269C17.0179 29.1571 17.0399 29.167 17.0669 29.1486C17.0938 29.1302 17.1239 29.1394 17.1338 29.1689C17.1437 29.1982 17.1801 29.1885 17.2146 29.147C17.2642 29.0877 17.25 29.0718 17.1477 29.0718C17.0763 29.0718 17.0179 29.0966 17.0179 29.1269ZM13.7592 43.8717C13.7206 43.9399 13.7027 44.0107 13.7195 44.029C13.7362 44.0476 13.7501 44.0301 13.7501 43.9904C13.7501 43.9506 13.7713 43.9326 13.7975 43.9503C13.8236 43.9682 13.8575 43.9298 13.8728 43.8653C13.9093 43.7118 13.8479 43.7153 13.7592 43.8717ZM12.8022 48.7335C12.8026 48.9283 12.8126 49.0008 12.8246 48.8948C12.8364 48.7886 12.8363 48.6294 12.824 48.5407C12.8118 48.4521 12.8021 48.5388 12.8022 48.7335Z" fill="#20C8F0"/>
    <path fill-rule="evenodd" clip-rule="evenodd" d="M19.6047 17.8175C19.605 17.9797 19.6154 18.0392 19.6277 17.9495C19.6401 17.8598 19.6398 17.727 19.627 17.6544C19.6143 17.5819 19.6042 17.6553 19.6047 17.8175ZM70.1785 22.0184C70.1785 22.1167 70.2037 22.115 70.299 22.0102C70.3661 21.9363 70.3633 21.9262 70.2773 21.9334C70.223 21.9379 70.1785 21.9762 70.1785 22.0184ZM60.6885 26.8001C61.1801 26.8098 61.9999 26.8098 62.51 26.8001C63.0202 26.7904 62.6179 26.7824 61.6161 26.7824C60.6144 26.7824 60.1968 26.7904 60.6885 26.8001ZM19.0496 28.4227C19.0271 28.5063 19.0136 28.7148 19.0342 28.6603C19.0493 28.6204 19.0577 28.5703 19.0529 28.5488C19.0482 28.5273 19.0766 28.4872 19.1159 28.4598C19.1695 28.4223 19.1706 28.4097 19.1205 28.409C19.0837 28.4084 19.0518 28.4147 19.0496 28.4227ZM17.0179 29.1269C17.0179 29.1571 17.0399 29.167 17.0669 29.1486C17.0938 29.1302 17.1239 29.1394 17.1338 29.1689C17.1437 29.1982 17.1801 29.1885 17.2146 29.147C17.2642 29.0877 17.25 29.0718 17.1477 29.0718C17.0763 29.0718 17.0179 29.0966 17.0179 29.1269ZM13.7592 43.8717C13.7206 43.9399 13.7027 44.0107 13.7195 44.029C13.7362 44.0476 13.7501 44.0301 13.7501 43.9904C13.7501 43.9506 13.7713 43.9326 13.7975 43.9503C13.8236 43.9682 13.8575 43.9298 13.8728 43.8653C13.9093 43.7118 13.8479 43.7153 13.7592 43.8717ZM12.8022 48.7335C12.8026 48.9283 12.8126 49.0008 12.8246 48.8948C12.8364 48.7886 12.8363 48.6294 12.824 48.5407C12.8118 48.4521 12.8021 48.5388 12.8022 48.7335Z" fill="#20C8F0"/>
    <path d="M100.687 46.4429H87.811V60H82.252V28.0078H102.577V32.4902H87.811V42.0044H100.687V46.4429ZM112.157 60H106.817V26.25H112.157V60ZM116.991 47.8931C116.991 45.564 117.452 43.4692 118.375 41.6089C119.298 39.7339 120.594 38.2983 122.264 37.3022C123.934 36.2915 125.853 35.7861 128.021 35.7861C131.229 35.7861 133.829 36.8188 135.821 38.8843C137.828 40.9497 138.912 43.689 139.073 47.1021L139.095 48.3545C139.095 50.6982 138.641 52.793 137.733 54.6387C136.839 56.4844 135.55 57.9126 133.866 58.9233C132.196 59.9341 130.262 60.4395 128.065 60.4395C124.71 60.4395 122.022 59.3262 120.001 57.0996C117.994 54.8584 116.991 51.8774 116.991 48.1567V47.8931ZM122.33 48.3545C122.33 50.8008 122.835 52.7197 123.846 54.1113C124.857 55.4883 126.263 56.1768 128.065 56.1768C129.867 56.1768 131.266 55.4736 132.262 54.0674C133.272 52.6611 133.778 50.603 133.778 47.8931C133.778 45.4907 133.258 43.5864 132.218 42.1802C131.192 40.7739 129.793 40.0708 128.021 40.0708C126.278 40.0708 124.894 40.7666 123.868 42.1582C122.843 43.5352 122.33 45.6006 122.33 48.3545ZM157.816 60C157.582 59.5459 157.376 58.8062 157.201 57.7808C155.501 59.5532 153.421 60.4395 150.96 60.4395C148.573 60.4395 146.625 59.7583 145.116 58.396C143.607 57.0337 142.853 55.3491 142.853 53.3423C142.853 50.8081 143.79 48.8672 145.665 47.5195C147.555 46.1572 150.25 45.4761 153.751 45.4761H157.025V43.916C157.025 42.6855 156.681 41.7041 155.992 40.9717C155.304 40.2246 154.256 39.8511 152.85 39.8511C151.634 39.8511 150.638 40.1587 149.862 40.7739C149.085 41.3745 148.697 42.1436 148.697 43.0811H143.358C143.358 41.7773 143.79 40.5615 144.654 39.4336C145.519 38.291 146.69 37.3975 148.17 36.7529C149.664 36.1084 151.327 35.7861 153.158 35.7861C155.941 35.7861 158.16 36.4893 159.815 37.8955C161.471 39.2871 162.32 41.25 162.364 43.7842V54.5068C162.364 56.6455 162.665 58.3521 163.265 59.6265V60H157.816ZM151.949 56.1548C153.004 56.1548 153.993 55.8984 154.916 55.3857C155.853 54.873 156.556 54.1846 157.025 53.3203V48.8379H154.146C152.169 48.8379 150.682 49.1821 149.686 49.8706C148.69 50.5591 148.192 51.5332 148.192 52.793C148.192 53.8184 148.529 54.6387 149.203 55.2539C149.891 55.8545 150.807 56.1548 151.949 56.1548ZM174.647 30.4468V36.2256H178.844V40.1807H174.647V53.4521C174.647 54.3604 174.823 55.0195 175.174 55.4297C175.541 55.8252 176.185 56.0229 177.108 56.0229C177.723 56.0229 178.346 55.9497 178.976 55.8032V59.9341C177.76 60.271 176.588 60.4395 175.46 60.4395C171.358 60.4395 169.308 58.1763 169.308 53.6499V40.1807H165.396V36.2256H169.308V30.4468H174.647ZM218.065 28.0078V49.3872C218.065 52.7856 216.974 55.481 214.791 57.4731C212.623 59.4507 209.73 60.4395 206.112 60.4395C202.45 60.4395 199.542 59.4653 197.389 57.5171C195.235 55.5542 194.159 52.8369 194.159 49.3652V28.0078H199.696V49.4092C199.696 51.5479 200.238 53.1812 201.322 54.3091C202.406 55.437 204.002 56.001 206.112 56.001C210.389 56.001 212.528 53.7451 212.528 49.2334V28.0078H218.065ZM229.886 60H224.349V28.0078H229.886V60Z" fill="#FFFFFF"/>
    <path d="M181.081 65.0395C186.319 72.0983 193.736 77.2356 202.185 79.6571C210.635 82.0785 219.647 81.6495 227.828 78.4361C236.009 75.2228 242.904 69.4042 247.448 61.8796C251.991 54.3551 253.929 45.5436 252.962 36.8072C251.996 28.0707 248.179 19.8959 242.101 13.5461C236.023 7.1964 228.023 3.02538 219.337 1.67781C210.652 0.330229 201.764 1.88113 194.048 6.09077C186.332 10.3004 180.217 16.9344 176.649 24.9673L180.735 26.7823C183.904 19.6472 189.335 13.7547 196.189 10.0156C203.043 6.27651 210.937 4.89897 218.652 6.09592C226.367 7.29287 233.473 10.9977 238.871 16.6377C244.27 22.2777 247.66 29.5388 248.519 37.2987C249.377 45.0586 247.655 52.8852 243.62 59.5687C239.585 66.2522 233.46 71.4205 226.194 74.2747C218.927 77.1288 210.922 77.5099 203.417 75.3591C195.912 73.2083 189.324 68.6453 184.672 62.3754L181.081 65.0395Z" fill="#1064FF"/>
</svg>