<svg width="35" height="35" viewBox="0 0 30 30" fill="none" xmlns="http://www.w3.org/2000/svg">
<g clip-path="url(#clip0_2004_3468)">
<path d="M14.0176 0.00807314C13.9531 0.0139374 13.7478 0.0344624 13.5631 0.0491231C9.30204 0.433232 5.31084 2.73201 2.78299 6.26523C1.37537 8.22975 0.475074 10.4581 0.134897 12.8185C0.0146628 13.6424 0 13.8858 0 15.0029C0 16.1201 0.0146628 16.3634 0.134897 17.1874C0.950148 22.82 4.95894 27.5524 10.3959 29.3058C11.3695 29.6196 12.3959 29.8336 13.5631 29.9626C14.0176 30.0126 15.9824 30.0126 16.4369 29.9626C18.4516 29.7398 20.1583 29.2413 21.8416 28.3822C22.0997 28.2502 22.1496 28.2151 22.1144 28.1858C22.0909 28.1682 20.9912 26.6933 19.6715 24.9106L17.2727 21.6706L14.2669 17.2225C12.6129 14.7772 11.2522 12.7774 11.2405 12.7774C11.2287 12.7745 11.217 14.7508 11.2111 17.1639C11.2024 21.3891 11.1994 21.5592 11.1466 21.6589C11.0704 21.8025 11.0117 21.8612 10.8886 21.9257C10.7947 21.9726 10.7126 21.9814 10.2698 21.9814H9.76245L9.62757 21.8963C9.53958 21.8406 9.47508 21.7673 9.4311 21.6823L9.36951 21.5503L9.37536 15.6715L9.38415 9.78963L9.47508 9.67527C9.522 9.61371 9.62169 9.53454 9.69207 9.49641C9.81231 9.43776 9.85923 9.43191 10.3666 9.43191C10.9648 9.43191 11.0645 9.45537 11.2199 9.62544C11.2639 9.67233 12.8915 12.1236 14.8387 15.0762C16.7859 18.0289 19.4487 22.0606 20.7566 24.0397L23.1319 27.6374L23.2522 27.5583C24.3167 26.8663 25.4428 25.8811 26.3343 24.8548C28.2317 22.6763 29.4545 20.0198 29.8651 17.1874C29.9853 16.3634 30 16.1201 30 15.0029C30 13.8858 29.9853 13.6424 29.8651 12.8185C29.0498 7.1859 25.0411 2.45346 19.6041 0.700055C18.6451 0.389249 17.6246 0.175204 16.4809 0.0461906C16.1994 0.0168693 14.261 -0.0153838 14.0176 0.00807314ZM20.1583 9.08004C20.2991 9.15042 20.4135 9.2853 20.4545 9.42603C20.478 9.50229 20.4839 11.1325 20.478 14.8065L20.4692 20.0784L19.5396 18.6534L18.607 17.2284V13.3961C18.607 10.9185 18.6188 9.52575 18.6364 9.45831C18.6833 9.29409 18.7859 9.16509 18.9267 9.08886C19.0469 9.02727 19.0909 9.02142 19.5513 9.02142C19.9853 9.02142 20.0616 9.02727 20.1583 9.08004Z" fill="#6B7280"/>
</g>
<defs>
<clipPath id="clip0_2004_3468">
<rect width="30" height="30" fill="white"/>
</clipPath>
</defs>
</svg>