<svg width="40" height="40" viewBox="0 0 30 30" fill="none" xmlns="http://www.w3.org/2000/svg">
<g clip-path="url(#clip0_2004_3467)">
<path d="M18.0602 20.3C17.3909 21.2518 16.6615 22.1599 15.8765 23.0188C17.9665 25.0475 19.9115 25.9975 20.989 25.3738C22.069 24.7513 22.2177 22.5925 21.5065 19.7688C20.4402 20.0063 19.2815 20.1863 18.0602 20.3V20.3ZM16.4227 20.4088C15.4748 20.448 14.5257 20.448 13.5777 20.4088C14.049 21.0238 14.5252 21.5938 15.0002 22.1138C15.4752 21.5938 15.9502 21.0238 16.4227 20.4088ZM22.7227 10.5413C26.054 11.4963 28.229 13.0838 28.229 15C28.229 16.9163 26.054 18.5038 22.7227 19.4588C23.5602 22.8213 23.274 25.4988 21.6152 26.4563C19.9552 27.415 17.4927 26.325 15.0002 23.9188C12.5077 26.325 10.0452 27.415 8.38523 26.4563C6.72648 25.4988 6.43898 22.8213 7.27773 19.4588C3.94648 18.5038 1.77148 16.9163 1.77148 15C1.77148 13.0838 3.94648 11.4963 7.27773 10.5413C6.44023 7.17879 6.72648 4.50129 8.38523 3.54379C10.0452 2.58504 12.5077 3.67504 15.0002 6.08129C17.4927 3.67504 19.9552 2.58504 21.6152 3.54379C23.274 4.50129 23.5615 7.17879 22.7227 10.5413V10.5413ZM21.5065 10.2313C22.219 7.40629 22.069 5.24879 20.9902 4.62629C19.9115 4.00254 17.9665 4.95254 15.8777 6.98129C16.6165 7.78504 17.3515 8.69879 18.0602 9.70004C19.2827 9.81254 20.4402 9.99254 21.5065 10.2313ZM8.49398 19.7688C7.78148 22.5938 7.93148 24.7513 9.01023 25.3738C10.089 25.9975 12.034 25.0475 14.1227 23.0188C13.3381 22.1599 12.6092 21.2518 11.9402 20.3C10.7813 20.1964 9.63026 20.019 8.49398 19.7688V19.7688ZM13.5777 9.59129C14.5257 9.55204 15.4748 9.55204 16.4227 9.59129C15.9734 9.00312 15.4988 8.43467 15.0002 7.88754C14.5252 8.40754 14.0502 8.97754 13.5777 9.59254V9.59129ZM11.9402 9.70004C12.61 8.74822 13.3398 7.84012 14.1252 6.98129C12.034 4.95254 10.0877 4.00254 9.01148 4.62629C7.93148 5.24879 7.78273 7.40754 8.49398 10.2313C9.56023 9.99379 10.719 9.81379 11.9402 9.70004V9.70004ZM17.3677 19.1C18.2575 17.7942 19.0485 16.4238 19.734 15C19.0485 13.5763 18.2575 12.2058 17.3677 10.9C15.7916 10.782 14.2089 10.782 12.6327 10.9C11.7429 12.2058 10.952 13.5763 10.2665 15C10.952 16.4238 11.7429 17.7942 12.6327 19.1C14.2089 19.218 15.7916 19.218 17.3677 19.1V19.1ZM18.9727 18.9363C19.7415 18.8363 20.4727 18.7075 21.1602 18.5563C20.9354 17.851 20.6802 17.1558 20.3952 16.4725C19.9552 17.3126 19.4806 18.1342 18.9727 18.935V18.9363ZM11.0277 11.0625C10.259 11.1625 9.52773 11.2913 8.84023 11.4425C9.05273 12.1125 9.30773 12.81 9.60523 13.5263C10.0452 12.6862 10.5198 11.8647 11.0277 11.0638V11.0625ZM8.84023 18.555C9.52773 18.7063 10.259 18.8338 11.0277 18.935C10.5198 18.1342 10.0452 17.3126 9.60523 16.4725C9.30773 17.1875 9.05273 17.885 8.84023 18.555ZM7.61773 18.2488C7.94398 17.2063 8.36773 16.1138 8.88023 14.9988C8.36773 13.8838 7.94398 12.7913 7.61773 11.7488C4.81523 12.545 3.02148 13.7538 3.02148 14.9988C3.02148 16.2438 4.81523 17.4525 7.61773 18.2488ZM21.1602 11.4425C20.4727 11.2913 19.7415 11.1638 18.9727 11.0625C19.4806 11.8634 19.9552 12.6849 20.3952 13.525C20.6927 12.81 20.9477 12.1125 21.1602 11.4425V11.4425ZM22.3827 11.7488C22.0565 12.7913 21.6327 13.8838 21.1202 14.9988C21.6327 16.1138 22.0565 17.2063 22.3827 18.2488C25.1852 17.4525 26.979 16.2438 26.979 14.9988C26.979 13.7538 25.1852 12.545 22.3827 11.7488ZM15.0002 17.35C14.6916 17.35 14.386 17.2893 14.1009 17.1712C13.8158 17.0531 13.5567 16.88 13.3385 16.6617C13.1203 16.4435 12.9472 16.1845 12.8291 15.8993C12.711 15.6142 12.6502 15.3086 12.6502 15C12.6502 14.6914 12.711 14.3858 12.8291 14.1007C12.9472 13.8156 13.1203 13.5566 13.3385 13.3383C13.5567 13.1201 13.8158 12.947 14.1009 12.8289C14.386 12.7108 14.6916 12.65 15.0002 12.65C15.6235 12.65 16.2212 12.8976 16.6619 13.3383C17.1026 13.779 17.3502 14.3768 17.3502 15C17.3502 15.6233 17.1026 16.221 16.6619 16.6617C16.2212 17.1024 15.6235 17.35 15.0002 17.35V17.35Z" fill="#6B7280"/>
</g>
<defs>
<clipPath id="clip0_2004_3467">
<rect width="30" height="30" fill="white"/>
</clipPath>
</defs>
</svg>
