<svg width="50" height="50" viewBox="0 0 30 30" fill="none" xmlns="http://www.w3.org/2000/svg">
<path d="M23.125 11.8876C22.1876 11.5647 21.3601 10.9842 20.7375 10.2126C20.0513 9.35289 19.1776 8.66152 18.1831 8.19138C17.1887 7.72124 16.0999 7.48478 15 7.5001C13.5205 7.39532 12.0557 7.85166 10.8975 8.77824C9.73928 9.70481 8.97255 11.0336 8.75 12.5001C9.18834 11.7667 9.84807 11.1912 10.6342 10.8565C11.4204 10.5218 12.2925 10.4452 13.125 10.6376C14.0609 10.9699 14.887 11.5538 15.5125 12.3251C16.2024 13.1779 17.0778 13.8622 18.0721 14.3257C19.0663 14.7893 20.1532 15.0199 21.25 15.0001C22.7295 15.1049 24.1943 14.6486 25.3525 13.722C26.5107 12.7954 27.2774 11.4666 27.5 10.0001C27.0696 10.7423 26.412 11.3265 25.6242 11.6664C24.8364 12.0062 23.9602 12.0838 23.125 11.8876ZM6.875 18.1126C7.81243 18.4355 8.63989 19.016 9.2625 19.7876C9.94869 20.6473 10.8224 21.3387 11.8169 21.8088C12.8113 22.279 13.9001 22.5154 15 22.5001C16.4795 22.6049 17.9443 22.1486 19.1025 21.222C20.2607 20.2954 21.0274 18.9666 21.25 17.5001C20.8117 18.2336 20.1519 18.809 19.3658 19.1437C18.5796 19.4784 17.7075 19.555 16.875 19.3626C15.9391 19.0303 15.113 18.4464 14.4875 17.6751C13.7957 16.8244 12.9199 16.1417 11.9261 15.6783C10.9323 15.215 9.84637 14.9831 8.75 15.0001C7.27046 14.8953 5.80573 15.3517 4.64751 16.2782C3.48928 17.2048 2.72255 18.5337 2.5 20.0001C2.93038 19.2579 3.58801 18.6737 4.37579 18.3339C5.16357 17.994 6.03976 17.9164 6.875 18.1126Z" fill="#6B7280"/>
</svg>