<svg width="102" height="36" viewBox="0 0 102 36" fill="none" xmlns="http://www.w3.org/2000/svg">
<path fill-rule="evenodd" clip-rule="evenodd" d="M59.89 26.1786H57.1396L56.0657 22.3118H50.9947L49.9208 26.1786H47.2565L51.9402 9.07655H54.9481L59.89 26.1786ZM55.2918 19.5185L53.4875 13.0735L51.8111 19.5185H55.2918ZM69.7731 26.1786H67.4525V24.4173C67.0658 25.1907 66.5501 25.707 66.0773 25.9215C65.6051 26.1791 65.0888 26.4809 64.5731 26.4809C63.6276 26.4809 62.6827 25.8355 61.9949 24.7615C61.2215 23.7736 60.8779 22.0553 60.8779 20.0353C60.8779 17.9734 61.2221 16.1675 61.8664 15.0935C62.5537 14.0625 63.5421 13.4183 64.7027 13.4183C65.6052 13.4183 66.5506 14.0625 67.3664 15.2226V9.0771H69.7731V26.1786ZM63.2415 19.7342C63.2415 21.0227 63.4136 22.1827 63.6282 22.699C64.0154 23.4724 64.5736 23.9876 65.2185 23.9876C65.8197 23.9876 66.2925 23.6009 66.6791 23.1287C67.0658 22.4834 67.3664 21.4094 67.3664 20.1208C67.3664 18.7451 67.1519 17.5856 66.7652 16.9403C66.421 16.296 65.8197 15.8663 65.2185 15.8663C64.7027 15.8663 64.23 16.296 63.8003 16.8123C63.4131 17.4566 63.2415 18.4445 63.2415 19.7342ZM71.7495 19.7342C71.7495 18.7451 71.878 17.6711 72.2653 16.6832C72.695 15.6523 73.2537 14.8789 73.941 14.3626C74.6714 13.8044 75.5738 13.4177 76.4337 13.4177C77.7659 13.4177 79.012 14.062 79.8283 15.222C80.7308 16.5106 81.2035 18.2299 81.2035 20.0348C81.2035 21.8396 80.7308 23.4724 79.8283 24.633C78.8829 25.8355 77.7659 26.4809 76.4337 26.4809C75.6174 26.4809 74.801 26.1791 74.0276 25.7075C73.2543 25.1912 72.6955 24.4178 72.2658 23.4729C71.8791 22.4839 71.75 21.1954 71.75 19.9057L71.7495 19.7342ZM74.1556 20.0348C74.1556 21.3244 74.2847 22.3124 74.6714 22.9566C75.1011 23.6009 75.7459 23.9876 76.3477 23.9876C76.9059 23.9876 77.5507 23.6009 77.9374 22.9566C78.3671 22.3124 78.6247 21.3244 78.6247 20.0348C78.6247 18.7451 78.3671 17.6711 77.9374 17.0269C77.5507 16.2965 76.9059 15.8663 76.3477 15.8663C75.7459 15.8663 75.1446 16.296 74.8004 16.9403C74.4138 17.6706 74.1556 18.7451 74.1556 20.0348ZM83.0938 26.1786V9.07655H85.4994V15.222C86.1878 14.0614 87.1757 13.4177 88.1206 13.4177C89.2376 13.4177 90.1837 14.062 90.914 15.0929C91.6443 16.1669 92.0746 17.8002 92.0746 19.9057C92.0746 21.9687 91.6449 23.7736 90.914 24.7615C90.1406 25.8355 89.1957 26.4809 88.2497 26.4809C87.7345 26.4809 87.1757 26.1791 86.7025 25.9215C86.1873 25.707 85.7145 25.0627 85.4558 24.4173V26.1786H83.0938ZM85.4994 19.7342C85.4994 21.0227 85.7151 22.1827 85.9291 22.699C86.3158 23.4724 86.9612 23.9876 87.6485 23.9876C88.2497 23.9876 88.7224 23.6009 89.0661 23.1287C89.4528 22.6124 89.6673 21.4094 89.6673 20.1208C89.6673 18.7451 89.4528 17.5856 89.0661 16.9403C88.7224 16.296 88.1201 15.8663 87.5188 15.8663C86.9606 15.8663 86.4879 16.296 86.1012 16.8123C85.7151 17.4566 85.4994 18.4445 85.4994 19.7342ZM99.3789 22.3124L101.786 22.699C101.527 23.9876 100.926 25.0627 100.325 25.5349C99.6376 26.0512 98.6916 26.4809 97.7037 26.4809C96.243 26.4809 94.9534 25.7075 94.2225 24.4179C93.6213 23.3439 93.3626 21.8396 93.3626 20.1214C93.3626 18.1014 93.7062 16.3831 94.4796 15.2226C95.2529 14.062 96.3705 13.4183 97.5735 13.4183C98.9051 13.4183 99.9802 14.0625 100.711 15.2226C101.527 16.5111 102 18.445 102 20.8947H95.7703C95.7703 21.9687 95.8994 22.699 96.3296 23.2573C96.7152 23.7736 97.1885 23.9876 97.7043 23.9876C98.134 23.9876 98.5206 23.9027 98.6922 23.6009C98.9062 23.3433 99.1649 22.8281 99.3789 22.3124ZM99.5946 18.8742C99.5946 17.9723 99.251 17.1559 98.9923 16.6827C98.6486 16.1664 98.1334 15.8663 97.6607 15.8663C97.1013 15.8663 96.5867 16.296 96.3291 16.8123C95.8994 17.3275 95.7698 18.1008 95.7698 18.8742H99.5946Z" fill="#374151"/>
<path fill-rule="evenodd" clip-rule="evenodd" d="M-0.000183105 0.137032H14.5903L-0.000183105 35.6712V0.137032ZM24.5299 0.137032H39.3025V35.2147L24.5299 0.137032ZM19.7273 13.7243L27.7826 35.0328H22.7974L19.3624 28.2851H13.891L19.7273 13.7243Z" fill="#374151"/>
</svg>