<svg width="130" height="29" viewBox="0 0 130 29" fill="none" xmlns="http://www.w3.org/2000/svg">
<path d="M8.24942 3.87432H22.8997V25.6814H8.24942V3.87432Z" fill="white"/>
<path d="M11.8718 0.843193C5.30442 0.843193 0 6.14761 0 12.715V28.9651H16.2501C22.8174 28.9651 28.1219 23.6606 28.1219 17.0933V0.843193H11.8718ZM21.4703 5.81083C21.4703 7.99995 19.7021 9.6839 17.5972 9.6839H13.3874V13.0518H19.0286V16.9249H13.4715V25.0078H8.8407V4.80046H13.3874V8.42094C13.5557 6.40021 15.2397 4.80046 17.2604 4.80046H21.4703V5.81083Z" fill="#374151"/>
<path d="M43.9486 11.1996V21.7242H46.7271V15.9988C46.7271 15.662 46.7271 14.6516 47.1481 14.2307C47.5691 13.7255 48.1585 13.4729 48.8321 13.5571H48.9163V10.947H48.8321C47.9901 10.8628 47.2323 11.1996 46.8955 11.5363L46.7271 11.7047C46.6429 11.7889 46.5588 11.8731 46.4746 11.9573V11.2838L43.9486 11.1996Z" fill="#374151"/>
<path d="M71.7365 21.808V15.9984C71.7365 14.3987 72.4943 13.4725 73.7572 13.4725C74.2624 13.4725 74.6834 13.6409 75.0202 13.9777C75.4412 14.3987 75.6938 15.0723 75.6938 15.9142V21.7238H78.3881V15.1565C78.3881 12.8831 76.7883 11.0308 74.6834 10.8624C73.5046 10.7782 72.4943 11.0308 71.7365 11.7886V7.66292H69.0422V21.7238H71.7365V21.808Z" fill="#374151"/>
<path d="M86.8927 14.0619H86.8085L86.8927 13.9777C87.9872 13.3041 88.324 11.8728 88.1556 10.8624C87.7346 8.84168 86.1349 7.66292 83.609 7.66292H79.9043V21.7238H83.8616C86.8085 21.7238 88.5766 20.4609 89.0818 18.1034C89.2502 16.7562 88.4082 14.6513 86.8927 14.0619ZM82.5986 10.4414H83.7774C84.2825 10.4414 85.2929 10.5256 85.3771 11.6202C85.3771 11.957 85.2929 12.2938 85.0403 12.5464C84.6193 12.9673 83.9458 13.0515 83.3564 13.0515H82.5144L82.5986 10.4414ZM85.8823 18.4402C85.4613 18.8611 84.7035 19.1137 83.5248 19.1137H82.5986V15.7458H84.1142C85.0403 15.7458 86.1349 16.1668 86.2191 17.2614C86.3033 17.6824 86.1349 18.1034 85.8823 18.4402Z" fill="#374151"/>
<path d="M98.9316 12.5464C97.9212 11.5361 96.4899 10.9467 94.9744 10.9467C91.8591 11.0309 89.4173 13.5568 89.5015 16.6721C89.5857 19.619 91.9432 22.0607 94.8901 22.1449H94.9744C96.4057 22.1449 97.8371 21.5555 98.8474 20.5452C101.037 18.4402 101.121 14.9039 99.0158 12.7148C99.1 12.6306 99.0158 12.5464 98.9316 12.5464ZM95.1427 19.5348C94.385 19.5348 93.6272 19.2822 93.122 18.6928C92.5326 18.1034 92.1958 17.3457 92.1958 16.5037C92.1958 14.9039 93.4588 13.641 95.0585 13.5568H95.1427C96.7425 13.5568 98.0054 14.8197 98.0896 16.4195C98.0054 18.0192 96.8267 19.4506 95.1427 19.5348Z" fill="#374151"/>
<path d="M110.804 12.5464C109.794 11.5361 108.363 10.9467 106.847 10.9467C103.732 11.0309 101.29 13.5568 101.374 16.6721C101.458 19.619 103.816 22.0607 106.763 22.1449H106.847C108.278 22.1449 109.71 21.5555 110.72 20.5452C112.909 18.4402 112.993 14.9039 110.888 12.7148C110.888 12.6306 110.804 12.5464 110.804 12.5464ZM109.036 18.5244C108.531 19.1138 107.773 19.4506 107.015 19.4506C106.258 19.4506 105.5 19.198 104.995 18.6086C104.405 18.0192 104.068 17.2615 104.068 16.4195C104.068 14.8197 105.331 13.5568 106.931 13.4726H107.015C108.615 13.4726 109.878 14.7356 109.878 16.3353C109.794 17.2615 109.541 18.0192 109.036 18.5244Z" fill="#374151"/>
<path d="M115.855 17.0088L116.023 16.7562H116.276L119.307 21.808H122.254L118.128 14.9039L122.254 11.1992H118.549L115.855 13.6409V7.66292H113.245V21.808H115.855V17.0088Z" fill="#374151"/>
<path d="M130.001 18.6094C130.001 16.336 128.148 15.7467 126.717 15.3257V15.4099V15.3257C125.791 15.0731 125.033 14.8205 125.033 14.2311C125.033 13.8101 125.37 13.5575 125.959 13.5575C126.296 13.5575 126.633 13.6417 126.885 13.8943L126.97 13.9785L128.738 12.2104L128.654 12.1262C127.98 11.4526 126.97 11.1158 126.043 11.1158C123.854 11.1158 122.507 12.3788 122.507 14.3153C122.507 16.5886 124.275 17.0938 125.707 17.5148C126.717 17.7674 127.475 18.02 127.475 18.6936C127.475 19.2829 126.885 19.7039 126.043 19.7039C125.201 19.7039 124.696 19.2829 124.696 18.6094V18.441H122.002V18.6094C122.002 20.6301 123.686 22.1456 126.043 22.1456C128.317 22.1456 130.001 20.6301 130.001 18.6094Z" fill="#374151"/>
<path d="M37.8908 10.5258V13.5569H42.5216V16.2512H37.975V21.8082H35.1965V7.74726H42.7742V10.5258H37.8908Z" fill="#374151"/>
<path d="M60.0338 16.5878C60.0338 13.1357 58.0973 11.0308 54.982 11.0308C51.7825 11.0308 49.5092 13.3041 49.5092 16.4194C49.5092 19.7031 51.8667 22.1448 54.8978 22.1448C56.4976 22.1448 58.0973 21.4713 59.1919 20.2925L59.2761 20.2083L57.3395 18.5244L57.2553 18.6086C56.6659 19.3663 55.7398 19.7873 54.8136 19.7873C53.3823 19.7873 52.2877 18.8611 52.0351 17.3456V17.093H59.9496L60.0338 16.5878ZM52.2877 14.7355L52.3719 14.5671C52.8771 13.7251 53.719 13.3041 54.8136 13.3041C55.9924 13.3041 56.9185 13.8093 57.1711 14.7355H52.2877Z" fill="#374151"/>
<path d="M65.0838 15.3249C64.1576 15.0723 63.3998 14.8197 63.3998 14.1461C63.3998 13.7251 63.7366 13.4725 64.326 13.4725C64.6628 13.4725 64.9996 13.5567 65.2522 13.8093L65.3364 13.8935L67.1045 12.1254L67.0203 12.0412C66.3467 11.3676 65.3364 11.0308 64.4102 11.0308C62.2211 11.0308 60.8739 12.2938 60.8739 14.2303C60.8739 16.5036 62.6421 17.0088 64.0734 17.4298C65.0838 17.6824 65.8416 17.935 65.8416 18.6086C65.8416 19.1979 65.2522 19.6189 64.4102 19.6189C63.5682 19.6189 63.0631 19.1979 63.0631 18.5244V18.356H60.3687V18.5244C60.3687 20.5451 62.0527 22.0606 64.4102 22.0606C66.7677 22.0606 68.4517 20.5451 68.4517 18.5244C68.3675 16.3352 66.5151 15.83 65.0838 15.3249Z" fill="#374151"/>
</svg>