<svg width="115" height="38" viewBox="0 0 115 38" fill="none" xmlns="http://www.w3.org/2000/svg">
<path d="M10.4581 17.5794C11.1058 15.1626 13.5901 12.6784 16.0068 12.0307L31.0742 7.99283C33.491 7.34515 34.9251 8.7793 34.2775 11.1961L30.2396 26.2634C29.5919 28.6802 27.1076 31.1645 24.6909 31.8122L9.62351 35.85C7.20673 36.4977 5.77258 35.0636 6.42025 32.6468L10.4581 17.5794Z" fill="#9CA3AF"/>
<path d="M4.41774 11.5389C5.06541 9.12209 7.54965 6.63785 9.96644 5.99018L25.0338 1.95228C27.4506 1.30461 28.8847 2.73876 28.2371 5.15555L24.1992 20.2229C23.5515 22.6397 21.0673 25.1239 18.6505 25.7716L3.58311 29.8095C1.16632 30.4572 -0.267829 29.023 0.379845 26.6062L4.41774 11.5389Z" fill="#4B5563"/>
<path d="M48.4606 23.7981H53.4008V26.7093H44.6892V11.2268H48.4606V23.7981Z" fill="#374151"/>
<path d="M54.0087 20.534C54.0087 19.2695 54.244 18.1594 54.7145 17.2037C55.1997 16.248 55.854 15.5128 56.6774 14.9982C57.5007 14.4836 58.4197 14.2263 59.4342 14.2263C60.3017 14.2263 61.0589 14.4027 61.7058 14.7556C62.3675 15.1085 62.8747 15.5716 63.2276 16.145V14.4027H66.999V26.7093H63.2276V24.967C62.86 25.5404 62.3454 26.0035 61.6838 26.3564C61.0369 26.7093 60.2796 26.8857 59.4121 26.8857C58.4123 26.8857 57.5007 26.6284 56.6774 26.1138C55.854 25.5845 55.1997 24.842 54.7145 23.8863C54.244 22.9159 54.0087 21.7984 54.0087 20.534ZM63.2276 20.556C63.2276 19.615 62.963 18.8725 62.4337 18.3285C61.919 17.7845 61.2868 17.5124 60.5369 17.5124C59.7871 17.5124 59.1475 17.7845 58.6182 18.3285C58.1036 18.8578 57.8463 19.5929 57.8463 20.534C57.8463 21.475 58.1036 22.2248 58.6182 22.7835C59.1475 23.3276 59.7871 23.5996 60.5369 23.5996C61.2868 23.5996 61.919 23.3276 62.4337 22.7835C62.963 22.2395 63.2276 21.497 63.2276 20.556Z" fill="#374151"/>
<path d="M81.8576 14.4027L74.1384 32.5538H70.0803L72.9033 26.2903L67.8969 14.4027H72.1093L74.9544 22.0998L77.7774 14.4027H81.8576Z" fill="#374151"/>
<path d="M94.3811 20.3575C94.3811 20.7104 94.359 21.078 94.3149 21.4603H85.7797C85.8385 22.2248 86.0811 22.813 86.5075 23.2246C86.9486 23.6216 87.4853 23.8201 88.1175 23.8201C89.0585 23.8201 89.7128 23.4231 90.0804 22.6292H94.0943C93.8885 23.4378 93.5136 24.1656 92.9696 24.8126C92.4402 25.4595 91.7712 25.9668 90.9626 26.3344C90.1539 26.7019 89.2496 26.8857 88.2498 26.8857C87.0442 26.8857 85.9708 26.6284 85.0298 26.1138C84.0888 25.5992 83.3537 24.864 82.8243 23.9083C82.295 22.9526 82.0304 21.8352 82.0304 20.556C82.0304 19.2768 82.2877 18.1594 82.8023 17.2037C83.3316 16.248 84.0668 15.5128 85.0078 14.9982C85.9488 14.4836 87.0295 14.2263 88.2498 14.2263C89.4408 14.2263 90.4994 14.4762 91.4257 14.9761C92.352 15.476 93.0725 16.1892 93.5871 17.1155C94.1164 18.0418 94.3811 19.1224 94.3811 20.3575ZM90.5215 19.365C90.5215 18.7181 90.3009 18.2035 89.8598 17.8212C89.4187 17.4389 88.8674 17.2478 88.2057 17.2478C87.5735 17.2478 87.0368 17.4316 86.5957 17.7992C86.1693 18.1667 85.9047 18.6887 85.8017 19.365H90.5215Z" fill="#374151"/>
<path d="M99.7009 16.4538C100.142 15.7775 100.693 15.2481 101.355 14.8659C102.017 14.4689 102.752 14.2704 103.561 14.2704V18.2623H102.524C101.583 18.2623 100.877 18.4682 100.407 18.8798C99.9362 19.2768 99.7009 19.9826 99.7009 20.9971V26.7093H95.9295V14.4027H99.7009V16.4538Z" fill="#374151"/>
<path d="M109.928 26.8857C108.855 26.8857 107.899 26.7019 107.061 26.3344C106.223 25.9668 105.562 25.4669 105.076 24.8346C104.591 24.1877 104.319 23.4672 104.26 22.6733H107.988C108.032 23.0997 108.23 23.4452 108.583 23.7098C108.936 23.9745 109.37 24.1068 109.884 24.1068C110.355 24.1068 110.715 24.0186 110.965 23.8422C111.23 23.651 111.362 23.4084 111.362 23.1144C111.362 22.7615 111.178 22.5042 110.811 22.3424C110.443 22.166 109.848 21.9749 109.024 21.769C108.142 21.5632 107.407 21.35 106.819 21.1294C106.231 20.8942 105.723 20.534 105.297 20.0487C104.871 19.5488 104.657 18.8798 104.657 18.0418C104.657 17.336 104.849 16.6964 105.231 16.123C105.628 15.5349 106.201 15.0717 106.951 14.7335C107.716 14.3954 108.62 14.2263 109.664 14.2263C111.208 14.2263 112.421 14.6086 113.303 15.3731C114.2 16.1377 114.714 17.1522 114.847 18.4167H111.362C111.303 17.9903 111.112 17.6521 110.789 17.4022C110.48 17.1522 110.068 17.0272 109.554 17.0272C109.112 17.0272 108.774 17.1155 108.539 17.2919C108.304 17.4536 108.186 17.6815 108.186 17.9756C108.186 18.3285 108.37 18.5931 108.738 18.7696C109.12 18.946 109.708 19.1224 110.502 19.2989C111.413 19.5341 112.156 19.7694 112.729 20.0046C113.303 20.2252 113.803 20.5928 114.229 21.1074C114.67 21.6073 114.898 22.2836 114.913 23.1364C114.913 23.8569 114.707 24.5038 114.295 25.0772C113.898 25.636 113.318 26.0771 112.553 26.4005C111.803 26.724 110.928 26.8857 109.928 26.8857Z" fill="#374151"/>
</svg>
