<svg width="138" height="26" viewBox="0 0 138 26" fill="none" xmlns="http://www.w3.org/2000/svg">
<g opacity="0.4">
<path d="M0.000686646 8.77647V16.7592H7.98151V24.74H15.9642V8.77647H0.000686646Z" fill="#E5E7EB"/>
</g>
<path d="M28.4257 21.4352L31.898 18.7003C32.8817 20.3931 34.441 21.3806 36.2241 21.3806C38.1652 21.3806 39.2035 20.1223 39.2035 18.7473C39.2035 17.1071 37.2078 16.588 35.0767 15.9259C32.3983 15.1039 29.4189 14.0657 29.4189 10.2398C29.4189 7.04224 32.2064 4.49921 36.0605 4.49921C39.3126 4.49921 41.1729 5.72934 42.7848 7.39585L39.6418 9.77524C38.8217 8.54511 37.6461 7.8943 36.0887 7.8943C34.3112 7.8943 33.3538 8.8517 33.3538 10.1082C33.3538 11.6392 35.2686 12.1584 37.3997 12.8694C40.1064 13.744 43.1685 14.9384 43.1685 18.7736C43.1685 21.9449 40.6537 25.0052 36.2523 25.0052C32.6428 25.0052 30.2333 23.4741 28.4333 21.4314M59.0042 11.0731H62.7209V12.5948C63.168 12.0234 63.7413 11.5632 64.3959 11.2503C65.0505 10.9374 65.7686 10.7801 66.4941 10.7909C69.7199 10.7909 71.6591 12.8694 71.6591 16.3961V24.7325H67.8634V16.8946C67.8634 15.0626 67.017 13.9979 65.3486 13.9979C63.9285 13.9979 62.7529 14.9817 62.7529 17.2783V24.74H59.0042V11.0731ZM72.5469 17.9065C72.5469 13.0669 76.1019 10.7985 79.1904 10.7985C80.9679 10.7985 82.3616 11.4549 83.2626 12.4123V4.78511H87.0076V24.74H83.2532V23.2089C82.3466 24.2754 80.902 25.009 79.1264 25.009C76.2279 25.009 72.5432 22.7142 72.5432 17.9028M83.3679 17.8746C83.3679 15.8526 81.8933 14.2124 79.8694 14.2124C78.9088 14.2341 77.9948 14.631 77.3231 15.318C76.6514 16.0051 76.2753 16.9278 76.2753 17.8887C76.2753 18.8495 76.6514 19.7722 77.3231 20.4593C77.9948 21.1464 78.9088 21.5432 79.8694 21.565C81.8933 21.565 83.3679 19.8984 83.3679 17.8746ZM87.8822 14.7597C87.8822 9.07365 92.1745 4.50861 98.0788 4.50861C101.032 4.50861 103.517 5.57134 105.315 7.26607C106.043 7.95359 106.663 8.74684 107.154 9.61912L103.814 11.6543C102.584 9.384 100.697 8.2103 98.1013 8.2103C94.4655 8.2103 91.6497 11.1897 91.6497 14.771C91.6497 18.4332 94.4109 21.3298 98.233 21.3298C101.132 21.3298 103.182 19.6897 103.893 17.1485H97.6367V13.5051H107.997V15.04C107.997 20.3969 104.169 25.009 98.2368 25.009C92.0052 25.009 87.8766 20.2803 87.8766 14.7597M108.943 11.0693H112.662V13.3095C113.344 11.8894 114.575 11.0693 116.433 11.0693H117.938L116.58 14.7089H115.558C113.563 14.7089 112.688 15.7472 112.688 18.2827V24.7343H108.945L108.943 11.0693ZM118.912 11.0693H122.657V24.7362H118.921V14.7089H117.562L118.912 11.0693ZM120.784 8.989C121.227 8.98937 121.66 8.85831 122.029 8.61238C122.397 8.36645 122.685 8.01671 122.855 7.6074C123.024 7.19809 123.069 6.7476 122.983 6.31292C122.897 5.87824 122.683 5.4789 122.37 5.16541C122.057 4.85193 121.658 4.63838 121.223 4.55179C120.789 4.4652 120.338 4.50945 119.929 4.67895C119.519 4.84845 119.169 5.13559 118.923 5.50403C118.677 5.87247 118.545 6.30566 118.545 6.74881C118.545 7.34262 118.781 7.91214 119.201 8.3322C119.62 8.75227 120.19 8.9885 120.784 8.989ZM123.539 17.9065C123.539 13.0669 127.092 10.7985 130.181 10.7985C131.958 10.7985 133.352 11.4549 134.255 12.4123V4.78511H138V24.74H134.26V23.2089C133.358 24.2754 131.909 25.0127 130.122 25.0127C127.226 25.0127 123.539 22.718 123.539 17.9065ZM134.364 17.8783C134.364 15.8563 132.887 14.2161 130.865 14.2161C129.905 14.2379 128.991 14.6347 128.319 15.3218C127.647 16.0089 127.271 16.9316 127.271 17.8924C127.271 18.8533 127.647 19.776 128.319 20.4631C128.991 21.1501 129.905 21.547 130.865 21.5687C132.887 21.5687 134.364 19.9022 134.364 17.8783ZM58.122 17.8783C58.122 13.9434 55.2517 10.7985 51.0704 10.7985C50.1375 10.7982 49.2137 10.982 48.3519 11.3393C47.4902 11.6966 46.7073 12.2204 46.0483 12.8806C45.3892 13.5409 44.8669 14.3247 44.5112 15.1871C44.1555 16.0495 43.9735 16.9736 43.9755 17.9065C43.9755 21.8433 46.9285 25.0127 51.1926 25.0127C54.1457 25.0127 56.2712 23.5888 57.4655 21.5462L54.4937 19.7743C54.1847 20.3736 53.7143 20.8745 53.1357 21.2205C52.557 21.5665 51.8931 21.7438 51.219 21.7324C49.2515 21.7324 48.0214 20.7486 47.5831 19.2458H58.1352L58.122 17.8783ZM47.7373 16.2381C48.0189 15.5844 48.4892 15.0297 49.088 14.6449C49.6869 14.2602 50.387 14.0631 51.0986 14.0788C52.6842 14.0788 53.8598 14.818 54.3526 16.2381H47.7373Z" fill="#374151"/>
<path d="M7.98151 16.7591H0.000686646V24.7399H7.98151V16.7591Z" fill="#9CA3AF"/>
<g style="mix-blend-mode:multiply">
<path d="M15.9797 8.77644V0.795616H7.99695V8.77644V16.7591H15.9797H23.9605V8.77644H15.9797Z" fill="#E5E7EB"/>
</g>
<path d="M23.9499 0.795586H15.9691V8.77641H23.9499V0.795586Z" fill="#9CA3AF"/>
</svg>