<svg width="131" height="57" viewBox="0 0 131 57" fill="none" xmlns="http://www.w3.org/2000/svg">
<rect y="17.4019" width="31" height="7" rx="3.5" fill="#2563EB"/>
<rect y="28.4019" width="7" height="15" rx="3.5" fill="#60A5FA"/>
<rect y="28.4019" width="15" height="7" rx="3.5" fill="#2563EB"/>
<rect x="17" y="28.4019" width="7" height="7" rx="3.5" fill="#2563EB"/>
<path d="M39.4347 37.4019V22.8564H48.7528V25.0652H42.0696V29.0141H48.1136V31.2229H42.0696V37.4019H39.4347ZM53.6108 22.8564V37.4019H51.0398V22.8564H53.6108ZM61.0131 37.6149C59.9478 37.6149 59.0245 37.3805 58.2433 36.9118C57.462 36.443 56.8559 35.7873 56.4251 34.9445C55.9989 34.1017 55.7859 33.1168 55.7859 31.9899C55.7859 30.863 55.9989 29.8758 56.4251 29.0283C56.8559 28.1807 57.462 27.5226 58.2433 27.0538C59.0245 26.5851 59.9478 26.3507 61.0131 26.3507C62.0785 26.3507 63.0018 26.5851 63.783 27.0538C64.5643 27.5226 65.168 28.1807 65.5941 29.0283C66.025 29.8758 66.2404 30.863 66.2404 31.9899C66.2404 33.1168 66.025 34.1017 65.5941 34.9445C65.168 35.7873 64.5643 36.443 63.783 36.9118C63.0018 37.3805 62.0785 37.6149 61.0131 37.6149ZM61.0273 35.5553C61.605 35.5553 62.0879 35.3966 62.4762 35.0794C62.8645 34.7574 63.1533 34.3266 63.3427 33.7868C63.5368 33.247 63.6339 32.6457 63.6339 31.9828C63.6339 31.3152 63.5368 30.7115 63.3427 30.1717C63.1533 29.6272 62.8645 29.194 62.4762 28.872C62.0879 28.5501 61.605 28.3891 61.0273 28.3891C60.4355 28.3891 59.9431 28.5501 59.5501 28.872C59.1618 29.194 58.8706 29.6272 58.6765 30.1717C58.4871 30.7115 58.3924 31.3152 58.3924 31.9828C58.3924 32.6457 58.4871 33.247 58.6765 33.7868C58.8706 34.3266 59.1618 34.7574 59.5501 35.0794C59.9431 35.3966 60.4355 35.5553 61.0273 35.5553ZM71.5618 37.622C70.8705 37.622 70.2479 37.4989 69.6939 37.2527C69.1446 37.0018 68.709 36.6324 68.3871 36.1448C68.0698 35.6571 67.9112 35.0557 67.9112 34.3408C67.9112 33.7252 68.0249 33.2162 68.2521 32.8138C68.4794 32.4113 68.7895 32.0894 69.1825 31.8479C69.5755 31.6064 70.0182 31.4241 70.5107 31.301C71.0078 31.1732 71.5215 31.0808 72.0518 31.024C72.6911 30.9577 73.2095 30.8985 73.6072 30.8465C74.005 30.7896 74.2938 30.7044 74.4737 30.5908C74.6584 30.4724 74.7507 30.2901 74.7507 30.0439V30.0013C74.7507 29.4662 74.5921 29.052 74.2749 28.7584C73.9576 28.4648 73.5007 28.318 72.9041 28.318C72.2744 28.318 71.7749 28.4554 71.4055 28.73C71.041 29.0046 70.7947 29.3289 70.6669 29.703L68.2663 29.3621C68.4557 28.6992 68.7682 28.1452 69.2038 27.7002C69.6394 27.2503 70.1721 26.9142 70.8018 26.6916C71.4316 26.4644 72.1276 26.3507 72.8899 26.3507C73.4155 26.3507 73.9387 26.4123 74.4595 26.5354C74.9804 26.6585 75.4562 26.8621 75.8871 27.1462C76.3179 27.4255 76.6636 27.8067 76.924 28.2896C77.1892 28.7726 77.3217 29.3763 77.3217 30.1007V37.4019H74.8501V35.9033H74.7649C74.6087 36.2063 74.3885 36.4904 74.1044 36.7555C73.825 37.016 73.4723 37.2267 73.0462 37.3877C72.6248 37.5439 72.13 37.622 71.5618 37.622ZM72.2294 35.7328C72.7455 35.7328 73.1929 35.631 73.5717 35.4274C73.9505 35.2191 74.2417 34.9445 74.4453 34.6036C74.6536 34.2627 74.7578 33.891 74.7578 33.4885V32.203C74.6773 32.2693 74.54 32.3308 74.3459 32.3877C74.1565 32.4445 73.9434 32.4942 73.7067 32.5368C73.4699 32.5794 73.2356 32.6173 73.0036 32.6504C72.7715 32.6836 72.5703 32.712 72.3999 32.7357C72.0163 32.7877 71.6731 32.873 71.37 32.9913C71.067 33.1097 70.8279 33.2754 70.6527 33.4885C70.4775 33.6968 70.3899 33.9667 70.3899 34.2982C70.3899 34.7716 70.5627 35.1291 70.9084 35.3706C71.254 35.6121 71.6944 35.7328 72.2294 35.7328ZM85.3544 26.4928V28.4814H79.0831V26.4928H85.3544ZM80.6314 23.8791H83.2024V34.1206C83.2024 34.4662 83.2545 34.7314 83.3587 34.9161C83.4676 35.096 83.6096 35.2191 83.7848 35.2854C83.96 35.3517 84.1541 35.3848 84.3672 35.3848C84.5282 35.3848 84.675 35.373 84.8075 35.3493C84.9448 35.3256 85.049 35.3043 85.12 35.2854L85.5533 37.2953C85.416 37.3427 85.2195 37.3948 84.9638 37.4516C84.7128 37.5084 84.4051 37.5415 84.0405 37.551C83.3965 37.5699 82.8165 37.4729 82.3004 37.2598C81.7843 37.042 81.3748 36.7058 81.0717 36.2513C80.7734 35.7967 80.6267 35.2286 80.6314 34.5467V23.8791ZM101.748 22.8564H104.383V32.3592C104.383 33.4009 104.137 34.3171 103.645 35.1078C103.157 35.8985 102.47 36.5164 101.585 36.9615C100.699 37.4019 99.6649 37.622 98.4812 37.622C97.2927 37.622 96.2558 37.4019 95.3704 36.9615C94.485 36.5164 93.7984 35.8985 93.3107 35.1078C92.823 34.3171 92.5792 33.4009 92.5792 32.3592V22.8564H95.2141V32.1391C95.2141 32.7451 95.3467 33.2849 95.6119 33.7584C95.8817 34.2319 96.2605 34.6036 96.7482 34.8734C97.2359 35.1386 97.8136 35.2712 98.4812 35.2712C99.1488 35.2712 99.7264 35.1386 100.214 34.8734C100.707 34.6036 101.085 34.2319 101.35 33.7584C101.616 33.2849 101.748 32.7451 101.748 32.1391V22.8564ZM109.882 22.8564V37.4019H107.247V22.8564H109.882Z" fill="white"/>
<path d="M95.149 47.1186C98.8017 48.4234 102.755 48.638 106.527 47.7361C110.3 46.8342 113.729 44.8548 116.396 42.0389C119.064 39.2231 120.855 35.6923 121.552 31.8767C122.248 28.061 121.821 24.125 120.32 20.5482C118.82 16.9713 116.312 13.9079 113.102 11.7311C109.891 9.55418 106.117 8.35776 102.239 8.28752C98.3611 8.21728 94.5462 9.27624 91.2592 11.3354C87.9722 13.3946 85.3548 16.3652 83.726 19.8854L85.5862 20.7462C87.0481 17.5868 89.3972 14.9206 92.3473 13.0725C95.2975 11.2243 98.7214 10.2739 102.202 10.3369C105.683 10.3999 109.07 11.4737 111.951 13.4275C114.833 15.3813 117.084 18.1308 118.43 21.341C119.777 24.5513 120.161 28.0839 119.535 31.5085C118.91 34.9331 117.302 38.102 114.908 40.6293C112.514 43.1565 109.437 44.9331 106.051 45.7425C102.665 46.552 99.1169 46.3594 95.8385 45.1884L95.149 47.1186Z" fill="#2563EB"/>
<path d="M87.4035 42.0871C89.1265 43.8938 91.1725 45.3619 93.4359 46.4156L94.301 44.5574C92.2696 43.6117 90.4333 42.294 88.8869 40.6725L87.4035 42.0871Z" fill="#60A5FA"/>
</svg>
