<svg width="24" height="24" viewBox="0 0 24 24" fill="none" xmlns="http://www.w3.org/2000/svg">
<g clip-path="url(#clip0_2_28100)">
<path d="M17.813 22.502C17.724 22.549 17.729 22.568 17.818 22.523C17.8441 22.5118 17.8678 22.4959 17.888 22.476C17.888 22.46 17.886 22.462 17.813 22.502ZM17.991 22.408C17.949 22.441 17.949 22.443 18 22.417C18.028 22.403 18.052 22.387 18.052 22.382C18.052 22.363 18.04 22.368 17.991 22.408ZM18.108 22.337C18.066 22.37 18.066 22.372 18.117 22.346C18.145 22.332 18.169 22.316 18.169 22.311C18.169 22.292 18.157 22.297 18.108 22.337ZM18.225 22.267C18.183 22.3 18.183 22.302 18.234 22.276C18.262 22.262 18.286 22.246 18.286 22.241C18.286 22.222 18.274 22.227 18.225 22.267ZM18.387 22.162C18.305 22.214 18.279 22.249 18.352 22.209C18.404 22.179 18.488 22.115 18.474 22.113C18.4433 22.1262 18.4142 22.1426 18.387 22.162ZM11.214 0.00599431C11.162 0.0109943 10.998 0.0269943 10.85 0.0389943C7.44201 0.345994 4.24901 2.18499 2.22701 5.01199C1.10917 6.56364 0.382574 8.36229 0.109007 10.255C0.0130071 10.914 0.00100708 11.109 0.00100708 12.003C0.00100708 12.897 0.0130071 13.091 0.109007 13.751C0.761007 18.257 3.96801 22.043 8.31701 23.446C9.09601 23.697 9.91701 23.868 10.85 23.971C11.214 24.011 12.785 24.011 13.149 23.971C14.76 23.793 16.126 23.394 17.472 22.707C17.678 22.601 17.718 22.573 17.69 22.55C17.0325 21.6813 16.3812 20.8079 15.736 19.93L13.817 17.338L11.413 13.78C10.6137 12.5894 9.80668 11.4041 8.99201 10.224C8.98301 10.222 8.97301 11.803 8.96901 13.733C8.96201 17.113 8.96001 17.249 8.91701 17.329C8.87619 17.4225 8.80306 17.4981 8.71101 17.542C8.63601 17.58 8.57001 17.587 8.21601 17.587H7.81001L7.70201 17.519C7.63537 17.477 7.58117 17.418 7.54501 17.348L7.49601 17.242L7.50101 12.539L7.50801 7.83399L7.58101 7.74299C7.63005 7.68537 7.68897 7.63695 7.75501 7.59999C7.85101 7.55299 7.88901 7.54799 8.29501 7.54799C8.77401 7.54799 8.85301 7.56699 8.97801 7.70299C9.95115 9.15124 10.9162 10.6049 11.873 12.064C13.431 14.426 15.56 17.651 16.607 19.235L18.507 22.113L18.603 22.05C19.5172 21.4419 20.3462 20.7145 21.068 19.887C22.58 18.1567 23.5605 16.0268 23.892 13.753C23.988 13.094 24 12.899 24 12.005C24 11.111 23.988 10.917 23.892 10.257C23.24 5.75099 20.033 1.96499 15.684 0.561994C14.8713 0.303242 14.0343 0.128003 13.186 0.0389943C12.961 0.0159943 11.41 -0.0100057 11.216 0.00899431L11.214 0.00599431ZM16.126 7.26399C16.1819 7.2921 16.2317 7.33107 16.2724 7.37863C16.3131 7.4262 16.3439 7.48139 16.363 7.54099C16.382 7.60199 16.386 8.90599 16.382 11.845L16.375 16.063L15.631 14.923L14.885 13.783V10.717C14.885 8.73499 14.894 7.62099 14.908 7.56699C14.925 7.50467 14.9542 7.44637 14.9941 7.39554C15.0339 7.3447 15.0835 7.30236 15.14 7.27099C15.236 7.22199 15.271 7.21699 15.64 7.21699C15.987 7.21699 16.048 7.22199 16.126 7.26399Z" fill="#4B5563"/>
</g>
<defs>
<clipPath id="clip0_2_28100">
<rect width="24" height="24" fill="white"/>
</clipPath>
</defs>
</svg>