<svg width="24" height="24" viewBox="0 0 24 24" fill="none" xmlns="http://www.w3.org/2000/svg">
<path d="M12 21.9849C11.725 21.9849 11.468 21.9109 11.228 21.7829L8.78897 20.3349C8.42397 20.1319 8.60697 20.0579 8.71697 20.0209C9.21297 19.8559 9.30497 19.8199 9.81797 19.5279C9.87397 19.4909 9.94697 19.5079 10.003 19.5449L11.873 20.6649C11.947 20.7009 12.039 20.7009 12.094 20.6649L19.413 16.4279C19.487 16.3919 19.523 16.3179 19.523 16.2259V7.76795C19.523 7.67695 19.487 7.60295 19.413 7.56695L12.094 3.34795C12.021 3.31095 11.929 3.31095 11.873 3.34795L4.55197 7.56595C4.47897 7.60195 4.44197 7.69495 4.44197 7.76695V16.2239C4.44197 16.2969 4.47897 16.3899 4.55197 16.4259L6.55197 17.5829C7.63397 18.1309 8.31397 17.4879 8.31397 16.8479V8.50195C8.31397 8.39195 8.40497 8.28095 8.53397 8.28095H9.46997C9.57797 8.28095 9.68997 8.37295 9.68997 8.50195V16.8489C9.68997 18.2979 8.90197 19.1429 7.52597 19.1429C7.10397 19.1429 6.77397 19.1429 5.83797 18.6829L3.91297 17.5839C3.67843 17.4476 3.48378 17.2521 3.34848 17.0169C3.21318 16.7818 3.14197 16.5152 3.14197 16.2439V7.78595C3.14197 7.23595 3.43497 6.72195 3.91297 6.44695L11.229 2.20995C11.4665 2.08293 11.7316 2.01648 12.001 2.01648C12.2703 2.01648 12.5355 2.08293 12.773 2.20995L20.09 6.44695C20.569 6.72095 20.861 7.23595 20.861 7.78595V16.2439C20.861 16.7929 20.568 17.3069 20.09 17.5839L12.773 21.8199C12.532 21.9299 12.257 21.9849 12 21.9849ZM14.256 16.1689C11.046 16.1689 10.386 14.7009 10.386 13.4549C10.386 13.3449 10.478 13.2339 10.606 13.2339H11.56C11.67 13.2339 11.761 13.3069 11.761 13.4179C11.908 14.3889 12.329 14.8669 14.275 14.8669C15.815 14.8669 16.477 14.5169 16.477 13.6919C16.477 13.2149 16.292 12.8669 13.89 12.6289C11.891 12.4289 10.644 11.9859 10.644 10.3909C10.644 8.90595 11.891 8.02495 13.983 8.02495C16.33 8.02495 17.486 8.83395 17.632 10.5929C17.6302 10.6523 17.6107 10.7098 17.576 10.7579C17.539 10.7939 17.485 10.8309 17.43 10.8309H16.477C16.4299 10.8299 16.3844 10.8133 16.3478 10.7836C16.3113 10.7539 16.2856 10.7128 16.275 10.6669C16.054 9.65495 15.486 9.32695 13.983 9.32695C12.294 9.32695 12.092 9.91395 12.092 10.3539C12.092 10.8849 12.329 11.0499 14.606 11.3439C16.862 11.6369 17.926 12.0589 17.926 13.6379C17.906 15.2529 16.587 16.1689 14.256 16.1689Z" fill="#4B5563"/>
</svg>
