<svg width="24" height="24" viewBox="0 0 24 24" fill="none" xmlns="http://www.w3.org/2000/svg">
<g clip-path="url(#clip0_2_28950)">
<path d="M12.001 4.79999C8.80101 4.79999 6.80101 6.39999 6.00101 9.59999C7.20101 7.99999 8.60101 7.39999 10.201 7.79999C11.114 8.02799 11.766 8.68999 12.489 9.42399C13.666 10.618 15.027 12 18.001 12C21.201 12 23.201 10.4 24.001 7.19999C22.801 8.79999 21.401 9.39999 19.801 8.99999C18.888 8.77199 18.236 8.10999 17.513 7.37599C16.337 6.18199 14.976 4.79999 12.001 4.79999ZM6.00101 12C2.80101 12 0.801007 13.6 0.00100708 16.8C1.20101 15.2 2.60101 14.6 4.20101 15C5.11401 15.228 5.76601 15.89 6.48901 16.624C7.66601 17.818 9.02701 19.2 12.001 19.2C15.201 19.2 17.201 17.6 18.001 14.4C16.801 16 15.401 16.6 13.801 16.2C12.888 15.972 12.236 15.31 11.513 14.576C10.337 13.382 8.97601 12 6.00101 12Z" fill="#4B5563"/>
</g>
<defs>
<clipPath id="clip0_2_28950">
<rect width="24" height="24" fill="white"/>
</clipPath>
</defs>
</svg>
