<svg width="24" height="24" viewBox="0 0 24 24" fill="none" xmlns="http://www.w3.org/2000/svg">
<g clip-path="url(#clip0_105_54607)">
<path d="M18.9495 11.4796C18.9495 10.2076 18.492 9.32707 18.1005 8.64157L17.9805 8.44657C17.505 7.68157 17.0895 7.00957 17.0895 6.22657C17.0895 5.28157 17.8065 4.39957 18.8175 4.39957C18.8475 4.39957 18.876 4.40257 18.9045 4.40407L18.951 4.40857C17.0553 2.66728 14.5741 1.70245 12 1.70557C10.294 1.7047 8.6146 2.12831 7.11312 2.93823C5.61163 3.74815 4.33526 4.91893 3.39901 6.34507C3.63901 6.35257 3.86851 6.35857 4.06201 6.35857C5.13751 6.35857 6.80401 6.22807 6.80401 6.22807C7.35901 6.19507 7.42501 7.00957 6.87001 7.07557C6.87001 7.07557 6.31351 7.14157 5.69251 7.17307L9.44251 18.3241L11.6925 11.5651L10.0875 7.17157C9.53401 7.13857 9.00901 7.07407 9.00901 7.07407C8.45401 7.04107 8.52001 6.19207 9.07351 6.22507C9.07351 6.22507 10.7745 6.35557 11.7855 6.35557C12.8625 6.35557 14.5305 6.22507 14.5305 6.22507C15.0855 6.19207 15.15 7.00807 14.595 7.07407C14.595 7.07407 14.037 7.13857 13.4175 7.17157L17.1375 18.2371L18.1635 14.8066L18.2445 14.5471C18.6495 13.2571 18.948 12.3046 18.948 11.4781L18.9495 11.4796ZM1.70551 12.0001C1.70541 13.9332 2.24953 15.8273 3.27561 17.4656C4.30168 19.1039 5.76826 20.4203 7.50751 21.2641L2.59501 7.80907C2.00676 9.12787 1.70365 10.556 1.70551 12.0001Z" fill="#4B5563"/>
<path d="M9.09149 21.8745L12.1815 12.9L15.345 21.57C15.366 21.6195 15.39 21.666 15.4185 21.711C13.3792 22.4295 11.1652 22.4867 9.09149 21.8745ZM21.0315 7.06055C21.0765 7.38905 21.102 7.74005 21.102 8.11955C21.102 9.16355 20.907 10.338 20.319 11.8065L17.175 20.8965C19.4951 19.5486 21.1968 17.3477 21.9175 14.7631C22.6382 12.1784 22.3208 9.41453 21.033 7.06055H21.0315Z" fill="#4B5563"/>
<path fill-rule="evenodd" clip-rule="evenodd" d="M0 12C0 5.3835 5.3835 0 12 0C18.615 0 24 5.3835 24 12C24 18.6165 18.615 24 12 24C5.3835 24 0 18.6165 0 12ZM0.5505 12C0.5505 18.3135 5.6865 23.4495 12 23.4495C18.312 23.4495 23.448 18.3135 23.448 12C23.448 5.685 18.312 0.5505 12 0.5505C5.685 0.5505 0.5505 5.685 0.5505 12Z" fill="#4B5563"/>
</g>
<defs>
<clipPath id="clip0_105_54607">
<rect width="24" height="24" fill="white"/>
</clipPath>
</defs>
</svg>