<svg width="120" height="30" viewBox="0 0 120 30" fill="none" xmlns="http://www.w3.org/2000/svg">
<path fill-rule="evenodd" clip-rule="evenodd" d="M3.90346 0.182587H25.744C27.8935 0.182587 29.6475 1.92819 29.6475 4.08629V25.9281C29.6475 28.0775 27.9021 29.8303 25.744 29.8303H3.90346C1.75403 29.8303 0 28.0862 0 25.9281V4.07641C0 1.92819 1.74416 0.182587 3.90346 0.182587Z" fill="#5468FF"/>
<path fill-rule="evenodd" clip-rule="evenodd" d="M18.0254 6.65488V5.63819C18.0251 5.297 17.8894 4.96987 17.6481 4.7287C17.4067 4.48752 17.0795 4.35205 16.7383 4.35205H13.7376C13.5686 4.35196 13.4013 4.38515 13.2452 4.44974C13.089 4.51433 12.9471 4.60905 12.8276 4.72849C12.7081 4.84792 12.6133 4.98973 12.5486 5.14582C12.4839 5.30192 12.4505 5.46922 12.4505 5.63819V6.68185C12.4505 6.79816 12.5579 6.87955 12.6752 6.85234C13.524 6.60737 14.4032 6.48349 15.2867 6.48439C16.1428 6.48439 16.9902 6.60045 17.8092 6.82513C17.8349 6.83171 17.8619 6.83227 17.8879 6.82676C17.914 6.82125 17.9384 6.80982 17.9593 6.79336C17.9802 6.7769 17.997 6.75584 18.0085 6.73183C18.02 6.70781 18.0257 6.68148 18.0254 6.65488ZM9.80188 7.98533L9.28921 7.47265C9.10944 7.29242 8.88018 7.16967 8.63052 7.11998C8.38086 7.07029 8.12207 7.0959 7.887 7.19356C7.73086 7.25817 7.58903 7.35302 7.46968 7.47265L6.85683 8.08406C6.73697 8.20304 6.64187 8.3446 6.57702 8.50054C6.51217 8.65648 6.47886 8.82373 6.479 8.99262C6.47886 9.16151 6.51217 9.32875 6.57702 9.48469C6.64187 9.64064 6.73697 9.78219 6.85683 9.90118L7.36084 10.4052C7.44247 10.4856 7.55974 10.4671 7.6315 10.3866C7.92885 9.97828 8.25716 9.59338 8.61351 9.23535C8.97289 8.87474 9.36125 8.54421 9.77467 8.24708C9.86473 8.19266 9.87364 8.06672 9.80188 7.98533ZM15.2778 11.2131V15.6109C15.2778 15.7369 15.4136 15.8269 15.5299 15.7641L19.4396 13.7406C19.5285 13.696 19.5557 13.5874 19.5114 13.4986C18.7009 12.0766 17.1963 11.1057 15.4582 11.0426C15.3681 11.0426 15.2778 11.1144 15.2778 11.2131ZM15.2778 21.8073C12.0178 21.8073 9.3694 19.1623 9.3694 15.9074C9.3694 12.6521 12.0178 10.0086 15.2778 10.0086C18.539 10.0086 21.1867 12.6521 21.1867 15.9074C21.1867 19.1623 18.5479 21.8073 15.2778 21.8073ZM15.2778 7.52683C10.6478 7.52683 6.89247 11.2774 6.89247 15.9074C6.89247 20.5385 10.6478 24.2804 15.2778 24.2804C19.9078 24.2804 23.6631 20.5299 23.6631 15.8987C23.6631 11.2675 19.9164 7.52683 15.2778 7.52683Z" fill="white"/>
<path fill-rule="evenodd" clip-rule="evenodd" d="M59.1872 23.6982C53.4144 23.7255 53.4144 19.0399 53.4144 18.2938L53.4045 0.741045L56.9263 0.182617V17.628C56.9263 18.0516 56.9263 20.731 59.187 20.7397V23.6982H59.1872ZM44.9118 20.83C45.9925 20.83 46.7944 20.7669 47.3528 20.6595V17.0807C47.074 17.0065 46.7909 16.9492 46.5052 16.909C46.0999 16.8488 45.6907 16.8187 45.2809 16.8189C44.8859 16.8178 44.4915 16.8479 44.1012 16.909C43.7046 16.9634 43.3439 17.0708 43.0289 17.2239C42.7139 17.3771 42.4519 17.5933 42.2629 17.8712C42.0652 18.1506 41.9751 18.3124 41.9751 18.7348C41.9751 19.5612 42.2629 20.0392 42.7855 20.353C43.308 20.6682 44.0196 20.83 44.9118 20.83ZM44.6055 8.06033C45.7666 8.06033 46.7484 8.20481 47.5414 8.49282C48.3336 8.78058 48.9734 9.18441 49.4413 9.69709C49.9196 10.2184 50.2432 10.9115 50.4411 11.6491C50.6485 12.3864 50.7475 13.1955 50.7475 14.085V23.1326C50.2076 23.2487 49.3871 23.3833 48.2891 23.5451C47.1908 23.7069 45.9569 23.7885 44.5867 23.7885C43.6774 23.7885 42.8399 23.6982 42.0924 23.5278C41.3353 23.3573 40.6965 23.0782 40.1554 22.6914C39.6244 22.3049 39.2105 21.8096 38.9042 21.1992C38.6065 20.5866 38.4531 19.7242 38.4531 18.8251C38.4531 17.9615 38.6236 17.413 38.9586 16.8189C39.2951 16.2306 39.7673 15.7312 40.3357 15.3623C40.9214 14.9845 41.5872 14.715 42.3532 14.5532C43.119 14.3913 43.9209 14.31 44.7485 14.31C45.1362 14.31 45.5415 14.3372 45.974 14.3815C46.3975 14.4272 46.8572 14.5089 47.3439 14.6249V14.0492C47.3439 13.6453 47.2982 13.2586 47.1992 12.8991C47.1042 12.5448 46.9317 12.2161 46.694 11.9368C46.4508 11.6577 46.137 11.4415 45.7404 11.2895C45.3438 11.1364 44.8386 11.0189 44.2358 11.0189C43.4253 11.0189 42.6867 11.1178 42.011 11.2351C41.3353 11.3512 40.7769 11.4872 40.3531 11.6392L39.9307 8.75337C40.3716 8.60022 41.0288 8.44706 41.8764 8.29512C42.7226 8.13209 43.6329 8.06033 44.6052 8.06033H44.6055ZM114.156 20.731C115.237 20.731 116.038 20.6682 116.596 20.5593V16.9819C116.399 16.9275 116.119 16.8644 115.75 16.8102C115.344 16.7501 114.935 16.7199 114.525 16.7199C114.138 16.7199 113.741 16.7472 113.345 16.8102C112.95 16.8644 112.589 16.9721 112.274 17.1252C111.958 17.2784 111.697 17.4946 111.508 17.7725C111.309 18.0516 111.22 18.2134 111.22 18.636C111.22 19.4625 111.508 19.9405 112.031 20.2542C112.562 20.5779 113.265 20.731 114.156 20.731ZM113.859 7.97147C115.02 7.97147 116.002 8.11475 116.795 8.40251C117.587 8.69028 118.227 9.09435 118.695 9.60703C119.163 10.1197 119.496 10.8214 119.694 11.5588C119.902 12.2963 120.001 13.1054 120.001 13.9962V23.0423C119.461 23.1586 118.64 23.2932 117.542 23.4562C116.444 23.6181 115.21 23.6982 113.84 23.6982C112.931 23.6982 112.093 23.6082 111.346 23.4377C110.589 23.2672 109.95 22.9881 109.409 22.6014C108.878 22.2146 108.464 21.7193 108.158 21.1091C107.86 20.4977 107.707 19.6342 107.707 18.7348C107.707 17.8712 107.879 17.3229 108.212 16.7286C108.549 16.1404 109.021 15.6411 109.59 15.2722C110.175 14.8954 110.841 14.6249 111.607 14.4631C112.373 14.3013 113.174 14.2209 114.003 14.2209C114.39 14.2209 114.795 14.2481 115.228 14.2926C115.66 14.3372 116.111 14.4186 116.596 14.5358V13.9603C116.596 13.555 116.552 13.1685 116.453 12.809C116.358 12.4546 116.186 12.1259 115.948 11.8468C115.704 11.5674 115.391 11.3512 114.994 11.1992C114.597 11.0461 114.092 10.93 113.489 10.93C112.679 10.93 111.94 11.0287 111.265 11.1451C110.589 11.2623 110.03 11.3969 109.607 11.5501L109.184 8.66331C109.625 8.51016 110.283 8.35821 111.13 8.20481C111.976 8.05166 112.885 7.97147 113.859 7.97147ZM103.285 6.29884C104.464 6.29884 105.429 5.34525 105.429 4.16675C105.429 2.98945 104.474 2.03562 103.285 2.03562C102.096 2.03562 101.141 2.98945 101.141 4.16675C101.141 5.34525 102.105 6.29884 103.285 6.29884ZM105.058 23.6982H101.519V8.51859L105.058 7.9616V23.6982H105.058ZM98.8532 23.6982C93.0804 23.7255 93.0804 19.0399 93.0804 18.2938L93.0705 0.741045L96.5925 0.182617V17.628C96.5925 18.0516 96.5925 20.731 98.8532 20.7397V23.6982ZM87.4053 15.9294C87.4053 14.4087 87.0718 13.1413 86.4235 12.2605C85.775 11.3697 84.8658 10.93 83.7034 10.93C82.5422 10.93 81.6315 11.3697 80.9842 12.2605C80.3355 13.15 80.0195 14.4087 80.0195 15.9294C80.0195 17.4674 80.3444 18.5 80.9931 19.3907C81.6416 20.2901 82.5509 20.731 83.7133 20.731C84.8744 20.731 85.7849 20.2815 86.4334 19.3907C87.0816 18.4915 87.4053 17.4674 87.4053 15.9294ZM91.0075 15.9207C91.0075 17.1079 90.837 18.0058 90.4852 18.9869C90.1343 19.9665 89.639 20.8028 89.0004 21.4958C88.3606 22.1874 87.5946 22.7273 86.6937 23.1054C85.7936 23.4822 84.4061 23.6982 83.713 23.6982C83.0188 23.6896 81.6414 23.4921 80.7494 23.1054C79.8575 22.7186 79.0917 22.1874 78.4529 21.4958C77.813 20.8028 77.3179 19.9665 76.9572 18.9869C76.5975 18.0058 76.4173 17.1079 76.4173 15.9207C76.4173 14.7335 76.5789 13.5909 76.9396 12.62C77.3004 11.6491 77.8044 10.8214 78.4529 10.1296C79.1016 9.43654 79.876 8.90532 80.7581 8.52846C81.65 8.15063 82.632 7.97147 83.6945 7.97147C84.7581 7.97147 85.7389 8.1593 86.6395 8.52846C87.5414 8.90532 88.316 9.43654 88.946 10.1296C89.5843 10.8214 90.0802 11.6491 90.4409 12.62C90.8187 13.5909 91.0078 14.7335 91.0078 15.9207H91.0075ZM64.5015 15.9207C64.5015 17.3944 64.8252 19.0312 65.4737 19.7144C66.1222 20.3987 66.9594 20.7397 67.9874 20.7397C68.5459 20.7397 69.0771 20.6595 69.5722 20.5064C70.0675 20.353 70.4632 20.1726 70.7793 19.9578V11.2264C70.5275 11.1723 69.4735 10.956 68.4546 10.93C67.1759 10.8929 66.2038 11.4155 65.5194 12.2506C64.8435 13.0881 64.5015 14.5532 64.5015 15.9207ZM74.2915 22.8619C74.2915 25.2635 73.6786 27.0163 72.4443 28.132C71.2116 29.2462 69.329 29.8046 66.789 29.8046C65.8614 29.8046 63.9342 29.6242 62.3938 29.2832L62.9609 26.4952C64.2492 26.7644 65.9514 26.8374 66.8434 26.8374C68.2567 26.8374 69.2659 26.5494 69.8686 25.9739C70.4728 25.3981 70.7692 24.5444 70.7692 23.4105V22.8347C70.4184 23.0052 69.9589 23.1769 69.3918 23.3573C68.825 23.5278 68.1676 23.6181 67.4278 23.6181C66.4554 23.6181 65.5722 23.4649 64.7717 23.1586C63.9701 22.8533 63.2758 22.4037 62.7087 21.8096C62.1417 21.2165 61.6909 20.4705 61.3759 19.5798C61.0609 18.689 60.8979 17.098 60.8979 15.9294C60.8979 14.8325 61.0696 13.4563 61.4033 12.5384C61.7453 11.6218 62.231 10.8301 62.8891 10.1741C63.5378 9.51817 64.3308 9.01416 65.2584 8.64477C66.1862 8.27658 67.2744 8.04299 68.4544 8.04299C69.5994 8.04299 70.6532 8.18627 71.6797 8.35821C72.7063 8.52846 73.5797 8.70762 74.2913 8.90532V22.8619H74.2915Z" fill="#5468FF"/>
</svg>
