<svg width="120" height="30" viewBox="0 0 120 30" fill="none" xmlns="http://www.w3.org/2000/svg">
<path d="M46.4255 22.9899C43.7497 22.9899 41.5808 20.7731 41.5808 18.038C41.5808 15.3032 43.7497 13.0861 46.4258 13.0861C49.1016 13.0861 51.2702 15.3032 51.2702 18.038C51.2702 20.7731 49.1016 22.9899 46.4258 22.9899H46.4255ZM51.2857 23.618C51.2857 24.0715 52.0629 25.3454 53.015 25.3454H53.6317C53.8708 25.3454 54.0662 25.1496 54.0662 24.9108V11.359H54.064C54.058 11.2482 54.0099 11.144 53.9295 11.0675C53.8491 10.9911 53.7426 10.9483 53.6317 10.9479H51.7209C51.4897 10.9479 51.301 11.1309 51.288 11.359H51.2861V12.4602C50.115 11.0183 48.2693 10.4198 46.4182 10.4198C42.2107 10.4198 38.8003 13.8305 38.8003 18.0383C38.8003 22.2461 42.2107 25.6568 46.4182 25.6568C48.2693 25.6568 50.2866 24.9387 51.2857 23.6164V23.618ZM58.6318 21.6774C59.9072 22.5608 61.2997 22.9899 62.6376 22.9899C63.9127 22.9899 65.2299 22.3289 65.2299 21.1788C65.2299 19.6436 62.3584 19.4044 60.5546 18.7913C58.7498 18.1782 57.1956 16.9104 57.1956 14.8576C57.1956 11.7168 59.9944 10.4195 62.6068 10.4195C64.2619 10.4195 65.9693 10.9653 67.0766 11.7472C67.4582 12.0359 67.2257 12.3679 67.2257 12.3679L66.1688 13.8771C66.0502 14.0471 65.8041 14.1829 65.5443 14.01C64.8322 13.5393 64.0392 13.0857 62.6065 13.0857C60.8331 13.0857 60.0531 13.8219 60.0531 14.7342C60.0531 15.8285 61.3006 16.1723 62.7619 16.5453C65.3089 17.2314 68.0875 18.057 68.0875 21.1791C68.0875 23.9466 65.4986 25.6568 62.6376 25.6568C60.4696 25.6568 58.6236 25.0386 57.0754 23.9028C56.7531 23.5799 56.9783 23.2801 56.9783 23.2801L58.0298 21.7786C58.2439 21.4976 58.5135 21.5959 58.6318 21.6774ZM82.4177 23.6183C82.4177 24.0715 83.1945 25.3454 84.1464 25.3454H84.7633C85.0025 25.3454 85.1982 25.1496 85.1982 24.9108V11.359H85.1956C85.1895 11.2483 85.1413 11.1441 85.061 11.0677C84.9806 10.9913 84.8742 10.9485 84.7633 10.9479H82.8526C82.621 10.9479 82.4326 11.1309 82.4199 11.359H82.4177V12.4602C81.247 11.0183 79.4009 10.4198 77.5501 10.4198C73.3426 10.4198 69.9319 13.8305 69.9319 18.038C69.9319 22.2455 73.3426 25.6565 77.5501 25.6565C79.4009 25.6565 81.4182 24.9384 82.4174 23.616L82.4177 23.6183ZM77.5574 22.9902C74.8813 22.9902 72.7124 20.7731 72.7124 18.038C72.7124 15.3032 74.8813 13.0861 77.5574 13.0861C80.2329 13.0861 82.4022 15.3032 82.4022 18.038C82.4022 20.7731 80.2329 22.9899 77.5574 22.9899V22.9902ZM102.318 24.0839L102.317 17.0718C102.317 13.119 99.8237 10.4521 95.8465 10.4521C93.9487 10.4521 92.3955 11.5499 91.8458 12.4929V12.4796L91.8426 12.4904C91.8413 11.5363 91.0677 10.9806 90.1136 10.9806H89.5002C89.2607 10.9806 89.065 11.1766 89.065 11.4157V24.9682H89.0675C89.0802 25.1963 89.2693 25.3793 89.5002 25.3793H91.4109C91.4401 25.3793 91.469 25.3761 91.4966 25.3707C91.5092 25.3682 91.521 25.3631 91.533 25.3596C91.5476 25.3552 91.5625 25.3517 91.5759 25.346C91.593 25.3393 91.6082 25.3295 91.6244 25.3206C91.632 25.3162 91.6402 25.3127 91.6475 25.3079C91.6664 25.2952 91.6843 25.2811 91.7011 25.2657C91.704 25.2626 91.7075 25.261 91.7097 25.2581C91.7287 25.24 91.7462 25.2201 91.7617 25.1988V25.1985C91.8096 25.1328 91.8385 25.0535 91.8432 24.9682H91.8458V16.963C91.8458 14.8401 93.5668 13.119 95.6901 13.119C97.8133 13.119 99.5344 14.8401 99.5344 16.9634L99.536 23.6544L99.5366 23.6522C99.5366 23.6579 99.5376 23.6643 99.5376 23.6706V24.9679H99.5401C99.5528 25.1963 99.7415 25.3796 99.9728 25.3796H101.883C101.913 25.3796 101.941 25.3761 101.969 25.3707C101.981 25.3682 101.991 25.3638 102.002 25.3612C102.018 25.3565 102.034 25.3523 102.049 25.3463C102.064 25.3396 102.079 25.3308 102.093 25.3225C102.102 25.3174 102.112 25.3136 102.12 25.3082C102.138 25.2962 102.154 25.2822 102.17 25.2686C102.174 25.2651 102.179 25.2619 102.183 25.2581C102.201 25.2407 102.217 25.222 102.231 25.2023L102.235 25.1979C102.283 25.1307 102.312 25.051 102.316 24.9682H102.318V24.0842L102.318 24.0839ZM117.22 23.6183C117.22 24.0715 117.996 25.3454 118.949 25.3454H119.565C119.804 25.3454 120 25.1496 120 24.9108V11.359H119.998C119.992 11.2482 119.944 11.1441 119.863 11.0677C119.783 10.9913 119.676 10.9485 119.565 10.9479H117.655C117.544 10.9482 117.437 10.991 117.357 11.0674C117.277 11.1439 117.228 11.2482 117.222 11.359H117.22V12.4602C116.048 11.0183 114.203 10.4198 112.352 10.4198C108.145 10.4198 104.734 13.8305 104.734 18.038C104.734 22.2455 108.145 25.6565 112.352 25.6565C114.203 25.6565 116.22 24.9384 117.219 23.616L117.22 23.6183ZM112.36 22.9902C109.684 22.9902 107.515 20.7731 107.515 18.038C107.515 15.3032 109.684 13.0861 112.36 13.0861C115.035 13.0861 117.204 15.3032 117.204 18.038C117.204 20.7731 115.035 22.9899 112.36 22.9899V22.9902Z" fill="#283343"/>
<path d="M24.0221 15.8408C20.3344 15.8408 17.3456 18.8297 17.3456 22.5167C17.3456 26.204 20.3344 29.1935 24.0221 29.1935C27.709 29.1935 30.6979 26.204 30.6979 22.5167C30.6979 18.8297 27.709 15.8408 24.0221 15.8408ZM6.67665 15.8411C2.98966 15.8415 0.000488281 18.8297 0.000488281 22.517C0.000488281 26.204 2.98966 29.1932 6.67665 29.1932C10.364 29.1932 13.3531 26.204 13.3531 22.517C13.3531 18.8297 10.364 15.8411 6.67633 15.8411H6.67665ZM22.0254 7.49562C22.0254 11.1826 19.0365 14.1724 15.3495 14.1724C11.6619 14.1724 8.67303 11.1826 8.67303 7.49562C8.67303 3.80863 11.6619 0.819458 15.3495 0.819458C19.0365 0.819458 22.025 3.80863 22.025 7.49562H22.0254Z" fill="url(#paint0_radial_1254_2979)"/>
<defs>
<radialGradient id="paint0_radial_1254_2979" cx="0" cy="0" r="1" gradientUnits="userSpaceOnUse" gradientTransform="translate(15.3491 16.3262) scale(20.3412 18.8013)">
<stop stop-color="#FFB900"/>
<stop offset="0.6" stop-color="#F95D8F"/>
<stop offset="0.9991" stop-color="#F95353"/>
</radialGradient>
</defs>
</svg>
