<svg width="100" height="36" viewBox="0 0 100 36" fill="none" xmlns="http://www.w3.org/2000/svg">
<path d="M25.5423 28.9963L21.9303 18.0065L31.3815 11.2156H19.6938L16.0818 0.221191H27.7705L31.3861 11.2147C33.4797 17.5888 31.3202 24.8422 25.5249 28.9945L25.5423 28.9963ZM6.63419 28.9963L16.0855 35.7917L25.5423 28.9963L16.091 22.2055L6.63419 28.9963ZM0.791244 11.2111C-1.41864 17.9359 1.14658 25.0583 6.63144 28.9991V28.9963L10.2434 18.0065L0.792159 11.2111L12.4781 11.2147L16.0818 0.221191H4.38676L0.791244 11.2111Z" fill="#EB5424"/>
<path d="M93.6743 8.80704C91.7914 8.80704 90.1988 9.68623 89.0677 11.3457C87.9458 12.9969 87.3487 15.3002 87.3487 18.0065C87.3487 20.7127 87.9413 23.016 89.0677 24.6672C90.1978 26.3276 91.7914 27.2059 93.6743 27.2059C95.5572 27.2059 97.1498 26.3267 98.2809 24.6672C99.4028 23.016 99.9999 20.7127 99.9999 18.0065C99.9999 15.3002 99.4073 12.9969 98.2809 11.3457C97.1508 9.68531 95.5581 8.80704 93.6743 8.80704ZM93.6743 24.9191C92.775 24.9191 92.0606 24.4154 91.4974 23.3769C90.8169 22.1249 90.4424 20.2173 90.4424 17.9973C90.4424 15.7774 90.816 13.8706 91.4974 12.6178C92.0606 11.5801 92.7795 11.0755 93.6743 11.0755C94.5691 11.0755 95.288 11.5792 95.8512 12.6178C96.5317 13.8697 96.9062 15.7774 96.9062 17.9973C96.9062 20.2173 96.5326 22.124 95.8512 23.3769C95.2834 24.4191 94.5736 24.9191 93.6743 24.9191ZM52.8515 15.5063V23.4153C52.8515 25.4997 54.5659 27.1977 56.676 27.1977C58.5076 27.1977 59.9089 26.2937 60.4162 25.9155C60.4455 25.8944 60.4831 25.8862 60.5078 25.899C60.5325 25.9118 60.5664 25.9357 60.5792 25.9705L60.886 26.9705H63.182V15.5063H60.2532V24.071C60.2532 24.1132 60.2321 24.1471 60.1946 24.1681C59.6451 24.4493 58.5461 24.9191 57.4673 24.9191C56.5386 24.9191 55.7822 24.1709 55.7822 23.255V15.5072L52.8515 15.5063ZM82.1807 26.9541H85.1095V19.045C85.1095 16.9606 83.3951 15.2627 81.2851 15.2627C79.7346 15.2627 78.4863 15.9221 77.8809 16.3177C77.8642 16.3287 77.8448 16.335 77.8248 16.3358C77.8048 16.3366 77.7849 16.3319 77.7674 16.3223C77.7497 16.3129 77.7349 16.299 77.7246 16.2819C77.7143 16.2648 77.7088 16.2452 77.7088 16.2252V9.03874H74.78V26.9577H77.7088V18.3893C77.7088 18.3472 77.7298 18.3133 77.7674 18.2922C78.3169 18.0111 79.4159 17.5412 80.4947 17.5412C80.9526 17.5412 81.3684 17.7134 81.6853 18.0285C82.0021 18.3435 82.1771 18.7593 82.1771 19.2053L82.1807 26.9541ZM65.2911 17.7958H67.0733C67.1319 17.7958 67.1832 17.8462 67.1832 17.9057V24.2093C67.1832 25.8651 68.5451 27.2132 70.2219 27.2132C70.8309 27.2132 71.4281 27.1253 72.0041 26.9568V24.8889L71.0077 24.9347C70.5132 24.9347 70.1129 24.5354 70.1129 24.0482V17.9002C70.1129 17.8416 70.1633 17.7903 70.2228 17.7903H72.005V15.5063H70.2228C70.1642 15.5063 70.1129 15.4559 70.1129 15.3964V11.614H67.1841V15.3964C67.1841 15.455 67.1338 15.5063 67.0742 15.5063H65.2921L65.2911 17.7958ZM48.1625 26.9614H51.2095L46.5754 10.9839C46.2054 9.7018 45.0039 8.80704 43.6448 8.80704C42.2857 8.80704 41.0942 9.7018 40.7141 10.9839L36.0801 26.9614H39.127L40.4678 22.3346C40.4806 22.2889 40.5227 22.255 40.5731 22.255H46.6972C46.721 22.255 46.7442 22.2629 46.7632 22.2772C46.7822 22.2916 46.796 22.3117 46.8025 22.3346L48.1625 26.9614ZM45.9902 19.981H41.3213C41.2874 19.981 41.2545 19.9645 41.2334 19.9389C41.2123 19.9132 41.2078 19.8747 41.2169 19.8473L43.5523 11.788C43.5651 11.7422 43.6072 11.7084 43.6576 11.7084C43.6814 11.7084 43.7046 11.7162 43.7236 11.7306C43.7425 11.745 43.7564 11.7651 43.7629 11.788L46.0983 19.8473C46.1074 19.8812 46.1028 19.9141 46.0818 19.9389C46.0607 19.9636 46.0314 19.981 45.9975 19.981H45.9902Z" fill="#21264C"/>
</svg>
