<svg width="102" height="26" viewBox="0 0 102 26" fill="none" xmlns="http://www.w3.org/2000/svg">
<path fill-rule="evenodd" clip-rule="evenodd" d="M0.975098 18.6193L4.58085 15.7752C6.4956 18.3495 8.529 19.5358 10.7949 19.5358C13.0482 19.5358 15.0257 18.3632 16.8546 15.8092L20.51 18.5852C17.873 22.2675 14.5922 24.2129 10.7949 24.2129C7.01004 24.2129 3.69885 22.2812 0.975098 18.6193Z" fill="url(#paint0_linear_1254_2964)"/>
<path fill-rule="evenodd" clip-rule="evenodd" d="M10.7839 6.25834L4.36621 11.953L1.40137 8.4098L10.7966 0.072998L20.1189 8.41629L17.1394 11.9465L10.7839 6.25834Z" fill="url(#paint1_linear_1254_2964)"/>
<path d="M45.1243 4.88046H41.4907V20.4711H45.1243V4.88046Z" fill="black"/>
<path fill-rule="evenodd" clip-rule="evenodd" d="M34.1469 20.5399C32.0049 20.5399 30.22 19.8251 28.7722 18.3954C27.3244 16.9453 26.6104 15.0868 26.6104 12.8197C26.6104 10.5323 27.3442 8.65332 28.792 7.18285C30.2596 5.6919 32.0446 4.95667 34.1667 4.95667C36.7846 4.95667 39.1052 6.1208 40.4537 7.93852L38.0936 10.4915C36.963 9.24562 35.7335 8.6125 34.4047 8.6125C33.2742 8.6125 32.3421 9.00053 31.5686 9.79706C30.815 10.5936 30.4381 11.5944 30.4381 12.7993C30.4381 13.9635 30.815 14.9438 31.5686 15.7403C32.3421 16.5164 33.2742 16.9045 34.3849 16.9045C35.8327 16.9045 37.102 16.2509 38.1531 14.9642L40.6125 17.3947C39.9383 18.3137 39.0257 19.0694 37.8952 19.6617C36.765 20.254 35.5154 20.5399 34.1469 20.5399Z" fill="black"/>
<path fill-rule="evenodd" clip-rule="evenodd" d="M50.5739 6.1279C50.5739 7.24729 49.6931 8.15471 48.606 8.15471C47.5189 8.15471 46.6377 7.24729 46.6377 6.1279C46.6377 5.00855 47.5189 4.10114 48.606 4.10114C49.6931 4.10114 50.5739 5.00855 50.5739 6.1279ZM50.4226 9.09012H46.7891V20.4713H50.4226V9.09012Z" fill="black"/>
<path fill-rule="evenodd" clip-rule="evenodd" d="M57.4416 20.5602C55.7162 20.5602 54.3278 20.0088 53.2371 18.9059C52.1661 17.803 51.6304 16.3938 51.6304 14.6578C51.6304 12.9218 52.1661 11.5126 53.2567 10.4097C54.3477 9.30684 55.7558 8.7554 57.5011 8.7554C59.7821 8.7554 61.785 9.8991 62.7171 12.0436L59.9207 13.5549C59.3654 12.595 58.5921 12.1049 57.5805 12.1049C56.8468 12.1049 56.2516 12.3499 55.7757 12.8401C55.3194 13.3303 55.0815 13.943 55.0815 14.6578C55.0815 16.1487 56.1326 17.2516 57.541 17.2516C58.5522 17.2516 59.4843 16.6797 59.8811 15.8015L62.6776 17.5171C61.7255 19.3961 59.7622 20.5602 57.4416 20.5602Z" fill="black"/>
<path fill-rule="evenodd" clip-rule="evenodd" d="M67.2262 4.88046H63.5928V20.4711H67.2262V16.5021L67.6519 16.0932L70.9733 20.4711H75.2002L70.0971 13.7451L74.9448 9.08989H70.5049L67.2262 12.2386V4.88046Z" fill="black"/>
<path fill-rule="evenodd" clip-rule="evenodd" d="M75.8555 14.5796V4.88046H79.6407V14.3624C79.6407 16.0576 80.5999 16.8745 81.9872 16.8745C83.3543 16.8745 84.3338 16.0168 84.3338 14.3624V4.88046H88.1186V14.5796C88.1186 19.032 85.0832 20.7067 81.9872 20.7067C78.9112 20.7067 75.8555 19.032 75.8555 14.5796Z" fill="black"/>
<path fill-rule="evenodd" clip-rule="evenodd" d="M96.2962 20.7826C99.2226 20.7826 101.595 18.1302 101.595 14.8582C101.595 11.5862 99.2226 8.93381 96.2962 8.93381C95.1033 8.93381 94.0027 9.37451 93.1168 10.1182V9.08973H89.6348V25.148H93.1168V19.5982C94.0027 20.3419 95.1033 20.7826 96.2962 20.7826ZM93.1168 14.8643V14.8521C93.1201 13.3911 94.2371 12.2078 95.6148 12.2078C96.9947 12.2078 98.1131 13.3944 98.1131 14.8582C98.1131 16.322 96.9947 17.5086 95.6148 17.5086C94.2371 17.5086 93.1201 16.3253 93.1168 14.8643Z" fill="black"/>
<defs>
<linearGradient id="paint0_linear_1254_2964" x1="0.975098" y1="25.7322" x2="20.51" y2="25.7322" gradientUnits="userSpaceOnUse">
<stop stop-color="#8930FD"/>
<stop offset="1" stop-color="#49CCF9"/>
</linearGradient>
<linearGradient id="paint1_linear_1254_2964" x1="1.40137" y1="14.0921" x2="20.1189" y2="14.0921" gradientUnits="userSpaceOnUse">
<stop stop-color="#FF02F0"/>
<stop offset="1" stop-color="#FFC800"/>
</linearGradient>
</defs>
</svg>
