<svg width="78" height="38" viewBox="0 0 78 38" fill="none" xmlns="http://www.w3.org/2000/svg">
<path d="M6.21059 37.2212C9.63336 37.2212 12.4119 34.4427 12.4119 31.0199V24.8186H6.21059C2.78783 24.8186 0.00927734 27.5971 0.00927734 31.0199C0.00927734 34.4427 2.78783 37.2212 6.21059 37.2212Z" fill="#0ACF83"/>
<path d="M0 18.6103C0 15.1876 2.77855 12.409 6.20132 12.409H12.4026V24.8182H6.20132C2.77855 24.8182 0 22.0396 0 18.6169V18.6103Z" fill="#A259FF"/>
<path d="M0 6.20132C0 2.77855 2.77855 0 6.20132 0H12.4026V12.4091H6.20132C2.77855 12.4091 0 9.63059 0 6.20782V6.20132Z" fill="#F24E1E"/>
<path d="M12.3535 3.05176e-05H18.5548C21.9776 3.05176e-05 24.7561 2.77858 24.7561 6.20135C24.7561 9.62411 21.9776 12.4027 18.5548 12.4027H12.3535V3.05176e-05Z" fill="#FF7262"/>
<path d="M24.8212 18.6103C24.8212 22.0331 22.0427 24.8117 18.6199 24.8117C15.1971 24.8117 12.3535 22.0331 12.3535 18.6103C12.3535 15.1876 15.1321 12.409 18.5548 12.409C21.9776 12.409 24.7561 15.1876 24.7561 18.6103H24.8212Z" fill="#1ABCFE"/>
<path d="M31.6006 10.2816V23.2829H33.2729V17.0751H37.2943V15.4613H33.2729V11.9084H38.4982V10.2816H31.6006ZM41.524 12.9235C42.1292 12.9235 42.6172 12.4355 42.6172 11.8303C42.6172 11.2251 42.1227 10.8022 41.524 10.8022C40.9253 10.8022 40.4308 11.2902 40.4308 11.8954C40.4308 12.1882 40.5479 12.4615 40.7562 12.6762C40.9644 12.891 41.2377 13.0016 41.537 13.0016L41.524 12.9235ZM40.6781 14.5633V23.2829H42.2853V14.5633H40.626H40.6781ZM48.5647 14.303C46.3393 14.303 44.7906 16.2552 44.7906 18.4155C44.7906 20.5759 46.3523 22.515 48.5647 22.515C49.0251 22.5231 49.4821 22.4353 49.9067 22.2571C50.3313 22.079 50.7141 21.8145 51.0309 21.4804V22.6387C51.0263 23.3346 50.7563 24.0025 50.2761 24.5062C50.0335 24.7537 49.7439 24.9503 49.4244 25.0844C49.1048 25.2185 48.7616 25.2874 48.4151 25.2871C47.8829 25.2703 47.3672 25.0984 46.9314 24.7925L46.0855 26.2436C46.7351 26.6614 47.4854 26.8963 48.2573 26.9235C49.0292 26.9507 49.7942 26.7692 50.4716 26.3982C51.149 26.0272 51.7139 25.4803 52.1066 24.8153C52.4994 24.1502 52.7055 23.3915 52.7033 22.6191V14.5503H51.0309V15.3311C50.7141 14.997 50.3313 14.7325 49.9067 14.5544C49.4821 14.3763 49.0251 14.2884 48.5647 14.2965V14.303ZM46.4694 18.4155C46.4313 17.9925 46.5123 17.5672 46.7032 17.1877C46.894 16.8083 47.1872 16.4898 47.5496 16.2682C48.2914 15.8127 49.222 15.8127 49.9573 16.2682C50.6926 16.7237 51.109 17.5566 51.0375 18.4155C51.0756 18.8386 50.9946 19.2639 50.8037 19.6433C50.6128 20.0228 50.3196 20.3413 49.9573 20.5629C49.2154 21.0184 48.2849 21.0184 47.5496 20.5629C46.8143 20.1074 46.3979 19.2745 46.4694 18.4155Z" fill="black"/>
<path d="M58.7334 16.0078C58.2525 16.0095 57.7917 16.2013 57.4516 16.5414C57.1115 16.8815 56.9197 17.3423 56.9179 17.8233V23.3414H55.2456V14.6218H56.9179V15.3571C57.4255 14.6803 58.2324 14.2899 59.0783 14.3029C60.1455 14.2769 61.1411 14.8495 61.6682 15.7801C62.3189 14.8691 63.2559 14.3159 64.271 14.3029C66.1776 14.3029 67.3619 15.8386 67.3684 17.7387V23.2893H65.6961V17.7582C65.7451 17.4137 65.6944 17.0623 65.55 16.7457C65.4056 16.429 65.1736 16.1604 64.8813 15.9714C64.589 15.7825 64.2488 15.6813 63.9008 15.6796C63.5528 15.678 63.2116 15.7761 62.9175 15.9623C62.6251 16.1529 62.3937 16.4235 62.2506 16.7419C62.1076 17.0603 62.059 17.413 62.1106 17.7582V23.2763H60.5034V17.7647C60.5017 17.2838 60.3098 16.823 59.9697 16.4829C59.6296 16.1428 59.1689 15.951 58.6879 15.9492L58.7334 16.0078ZM76.3027 15.5523C75.9221 15.1551 75.4643 14.84 74.9573 14.6262C74.4504 14.4125 73.9051 14.3047 73.355 14.3094C70.8628 14.3094 69.1254 16.4178 69.1254 18.8644C69.1254 21.3111 70.8823 23.4195 73.355 23.4195C73.9051 23.4242 74.4504 23.3164 74.9573 23.1027C75.4643 22.8889 75.9221 22.5738 76.3027 22.1766V23.1657H77.9751V14.4461H76.3027V15.5523ZM70.7717 18.936C70.6871 17.8949 71.1946 16.8928 72.0861 16.3462C72.9776 15.7996 74.0383 15.7996 74.9883 16.3462C75.4234 16.6162 75.7761 17.0005 76.0079 17.4572C76.2396 17.9139 76.3416 18.4254 76.3027 18.936C76.3873 19.9772 75.8798 20.9793 74.9883 21.5259C74.0968 22.0725 73.0362 22.0725 72.0861 21.5259C71.651 21.2558 71.2983 20.8715 71.0666 20.4148C70.8348 19.9582 70.7328 19.4467 70.7717 18.936Z" fill="black"/>
</svg>
