<svg width="130" height="29" viewBox="0 0 130 29" fill="none" xmlns="http://www.w3.org/2000/svg">
<path d="M8.24951 3.5808H22.8998V25.3879H8.24951V3.5808Z" fill="white"/>
<path d="M11.8718 0.549667C5.30442 0.549667 0 5.85409 0 12.4215V28.6715H16.2501C22.8174 28.6715 28.1219 23.3671 28.1219 16.7997V0.549667H11.8718ZM21.4703 5.5173C21.4703 7.70643 19.7021 9.39037 17.5972 9.39037H13.3874V12.7583H19.0286V16.6313H13.4715V24.7143H8.8407V4.50693H13.3874V8.12741C13.5557 6.10668 15.2397 4.50693 17.2604 4.50693H21.4703V5.5173Z" fill="#0075DD"/>
<path d="M43.9487 10.906V21.4307H46.7272V15.7053C46.7272 15.3685 46.7272 14.3581 47.1482 13.9371C47.5692 13.4319 48.1586 13.1794 48.8322 13.2635H48.9164V10.6534H48.8322C47.9902 10.5692 47.2324 10.906 46.8956 11.2428L46.7272 11.4112C46.643 11.4954 46.5588 11.5796 46.4746 11.6638V10.9902L43.9487 10.906Z" fill="black"/>
<path d="M71.7363 21.5145V15.7049C71.7363 14.1052 72.4941 13.179 73.757 13.179C74.2622 13.179 74.6832 13.3474 75.02 13.6842C75.441 14.1052 75.6936 14.7787 75.6936 15.6207V21.4303H78.3879V14.8629C78.3879 12.5896 76.7881 10.7373 74.6832 10.5689C73.5044 10.4847 72.4941 10.7373 71.7363 11.495V7.36938H69.042V21.4303H71.7363V21.5145Z" fill="black"/>
<path d="M86.8927 13.7684H86.8085L86.8927 13.6842C87.9872 13.0106 88.324 11.5792 88.1556 10.5689C87.7346 8.54815 86.1349 7.36938 83.609 7.36938H79.9043V21.4303H83.8616C86.8085 21.4303 88.5766 20.1674 89.0818 17.8098C89.2502 16.4627 88.4082 14.3578 86.8927 13.7684ZM82.5986 10.1479H83.7774C84.2825 10.1479 85.2929 10.2321 85.3771 11.3267C85.3771 11.6634 85.2929 12.0002 85.0403 12.2528C84.6193 12.6738 83.9458 12.758 83.3564 12.758H82.5144L82.5986 10.1479ZM85.8823 18.1466C85.4613 18.5676 84.7035 18.8202 83.5248 18.8202H82.5986V15.4523H84.1142C85.0403 15.4523 86.1349 15.8733 86.2191 16.9679C86.3033 17.3888 86.1349 17.8098 85.8823 18.1466Z" fill="black"/>
<path d="M98.9317 12.2529C97.9213 11.2425 96.49 10.6532 94.9744 10.6532C91.8591 10.7373 89.4174 13.2633 89.5016 16.3786C89.5858 19.3255 91.9433 21.7672 94.8902 21.8514H94.9744C96.4058 21.8514 97.8371 21.262 98.8475 20.2516C101.037 18.1467 101.121 14.6104 99.0159 12.4213C99.1001 12.3371 99.0159 12.2529 98.9317 12.2529ZM95.1428 19.2413C94.3851 19.2413 93.6273 18.9887 93.1221 18.3993C92.5327 17.8099 92.1959 17.0521 92.1959 16.2102C92.1959 14.6104 93.4589 13.3475 95.0586 13.2633H95.1428C96.7426 13.2633 98.0055 14.5262 98.0897 16.126C98.0055 17.7257 96.8268 19.1571 95.1428 19.2413Z" fill="black"/>
<path d="M110.804 12.2529C109.794 11.2425 108.363 10.6532 106.847 10.6532C103.732 10.7373 101.29 13.2633 101.374 16.3786C101.458 19.3255 103.816 21.7672 106.763 21.8514H106.847C108.278 21.8514 109.71 21.262 110.72 20.2516C112.909 18.1467 112.993 14.6104 110.888 12.4213C110.888 12.3371 110.804 12.2529 110.804 12.2529ZM109.036 18.2309C108.531 18.8203 107.773 19.1571 107.015 19.1571C106.258 19.1571 105.5 18.9045 104.995 18.3151C104.405 17.7257 104.068 16.9679 104.068 16.126C104.068 14.5262 105.331 13.2633 106.931 13.1791H107.015C108.615 13.1791 109.878 14.442 109.878 16.0418C109.794 16.9679 109.541 17.7257 109.036 18.2309Z" fill="black"/>
<path d="M115.855 16.7153L116.023 16.4627H116.276L119.307 21.5145H122.254L118.128 14.6103L122.254 10.9057H118.549L115.855 13.3474V7.36938H113.245V21.5145H115.855V16.7153Z" fill="black"/>
<path d="M130.001 18.3158C130.001 16.0425 128.148 15.4531 126.717 15.0321V15.1163V15.0321C125.791 14.7795 125.033 14.527 125.033 13.9376C125.033 13.5166 125.37 13.264 125.959 13.264C126.296 13.264 126.633 13.3482 126.885 13.6008L126.97 13.685L128.738 11.9168L128.654 11.8326C127.98 11.1591 126.97 10.8223 126.043 10.8223C123.854 10.8223 122.507 12.0852 122.507 14.0218C122.507 16.2951 124.275 16.8003 125.707 17.2213C126.717 17.4739 127.475 17.7264 127.475 18.4C127.475 18.9894 126.885 19.4104 126.043 19.4104C125.201 19.4104 124.696 18.9894 124.696 18.3158V18.1474H122.002V18.3158C122.002 20.3366 123.686 21.8521 126.043 21.8521C128.317 21.8521 130.001 20.3366 130.001 18.3158Z" fill="black"/>
<path d="M37.8906 10.2322V13.2633H42.5214V15.9577H37.9748V21.5147H35.1963V7.45374H42.774V10.2322H37.8906Z" fill="black"/>
<path d="M60.0339 16.2943C60.0339 12.8422 58.0974 10.7373 54.9821 10.7373C51.7826 10.7373 49.5093 13.0106 49.5093 16.1259C49.5093 19.4096 51.8668 21.8513 54.8979 21.8513C56.4976 21.8513 58.0974 21.1777 59.192 19.999L59.2762 19.9148L57.3396 18.2308L57.2554 18.315C56.666 19.0728 55.7399 19.4938 54.8137 19.4938C53.3823 19.4938 52.2878 18.5676 52.0352 17.0521V16.7995H59.9497L60.0339 16.2943ZM52.2878 14.442L52.372 14.2736C52.8772 13.4316 53.7191 13.0106 54.8137 13.0106C55.9925 13.0106 56.9186 13.5158 57.1712 14.442H52.2878Z" fill="black"/>
<path d="M65.0837 15.0313C64.1575 14.7787 63.3998 14.5261 63.3998 13.8526C63.3998 13.4316 63.7365 13.179 64.3259 13.179C64.6627 13.179 64.9995 13.2632 65.2521 13.5158L65.3363 13.6L67.1044 11.8318L67.0202 11.7476C66.3467 11.0741 65.3363 10.7373 64.4101 10.7373C62.221 10.7373 60.8738 12.0002 60.8738 13.9368C60.8738 16.2101 62.642 16.7153 64.0733 17.1363C65.0837 17.3889 65.8415 17.6414 65.8415 18.315C65.8415 18.9044 65.2521 19.3254 64.4101 19.3254C63.5681 19.3254 63.063 18.9044 63.063 18.2308V18.0624H60.3687V18.2308C60.3687 20.2516 62.0526 21.7671 64.4101 21.7671C66.7676 21.7671 68.4516 20.2516 68.4516 18.2308C68.3674 16.0417 66.5151 15.5365 65.0837 15.0313Z" fill="black"/>
</svg>
