<svg width="100" height="34" viewBox="0 0 100 34" fill="none" xmlns="http://www.w3.org/2000/svg">
<path d="M41.9116 24.2025V13.985H42.0917L49.4524 24.2025H51.7688V9.19793H49.1951V19.3897H49.0149L41.6542 9.19793H39.3379V24.2025H41.9116ZM59.0523 24.4341C62.4495 24.4341 64.5342 22.2207 64.5342 18.5146C64.5342 14.8343 62.4495 12.5952 59.0523 12.5952C55.6807 12.5952 53.5703 14.8343 53.5703 18.5146C53.5961 22.2207 55.655 24.4341 59.0523 24.4341ZM59.0523 22.2722C57.2507 22.2722 56.2212 20.9082 56.2212 18.5146C56.2212 16.1469 57.2507 14.7571 59.0523 14.7571C60.8538 14.7571 61.8833 16.1469 61.8833 18.5146C61.8833 20.9082 60.8538 22.2722 59.0523 22.2722ZM66.8762 10.0472V12.904H65.0747V14.963H66.8762V21.1655C66.8762 23.3789 67.9057 24.2539 70.5309 24.2539C71.0199 24.2539 71.5089 24.2025 71.8949 24.1253V22.1178C71.5861 22.1435 71.3802 22.1693 71.0199 22.1693C69.9389 22.1693 69.4499 21.6803 69.4499 20.5478V14.963H71.8949V12.904H69.4499V10.0472H66.8762ZM73.4391 24.2025H76.0128V12.8268H73.4391V24.2025ZM74.726 10.948C75.5753 10.948 76.2702 10.2531 76.2702 9.40382C76.2702 8.52877 75.5753 7.83388 74.726 7.83388C73.8766 7.83388 73.1818 8.52877 73.1818 9.40382C73.1818 10.2531 73.8766 10.948 74.726 10.948ZM83.0647 24.4341C86.4619 24.4341 88.5466 22.2207 88.5466 18.5146C88.5466 14.8343 86.4619 12.5952 83.0647 12.5952C79.6932 12.5952 77.5827 14.8343 77.5827 18.5146C77.5827 22.2207 79.6417 24.4341 83.0647 24.4341ZM83.0647 22.2722C81.2631 22.2722 80.2336 20.9082 80.2336 18.5146C80.2336 16.1469 81.2631 14.7571 83.0647 14.7571C84.8405 14.7571 85.8957 16.1469 85.8957 18.5146C85.87 20.9082 84.8405 22.2722 83.0647 22.2722ZM90.0651 24.2025H92.6387V17.5881C92.6387 15.9152 93.6167 14.86 95.1352 14.86C96.7052 14.86 97.4258 15.7351 97.4258 17.4594V24.2025H99.9995V16.8418C99.9995 14.1137 98.6097 12.5952 96.0875 12.5952C94.3889 12.5952 93.2564 13.3673 92.716 14.6541H92.5358V12.8268H90.0393C90.0651 12.8268 90.0651 24.2025 90.0651 24.2025Z" fill="black"/>
<path fill-rule="evenodd" clip-rule="evenodd" d="M5.50019 6.20586C6.53829 7.04518 6.91377 6.97891 8.85744 6.84639L27.1677 5.74203C27.5653 5.74203 27.234 5.34446 27.1014 5.30029L24.0534 3.11366C23.4791 2.67192 22.684 2.14183 21.2042 2.27435L3.49026 3.57749C2.84973 3.64375 2.71721 3.97506 2.98226 4.21802L5.50019 6.20586ZM6.60455 10.4687V29.7287C6.60455 30.7668 7.11256 31.1423 8.28318 31.076L28.4046 29.9054C29.5752 29.8391 29.7077 29.1323 29.7077 28.293V9.16554C29.7077 8.32623 29.3764 7.8624 28.6696 7.92866L7.64265 9.16554C6.8696 9.2318 6.60455 9.62937 6.60455 10.4687ZM26.4609 11.5068C26.5934 12.081 26.4609 12.6774 25.8867 12.7437L24.9148 12.9424V27.1666C24.0755 27.6083 23.3025 27.8734 22.6398 27.8734C21.6017 27.8734 21.3367 27.5421 20.5636 26.5702L14.2246 16.6089V26.2389L16.2346 26.6807C16.2346 26.6807 16.2346 27.8513 14.6222 27.8513L10.1606 28.1163C10.0281 27.8513 10.1606 27.2108 10.6023 27.0782L11.7729 26.7469V14.0247L10.1606 13.8922C10.0281 13.3179 10.3594 12.4786 11.2649 12.4124L16.0579 12.081L22.6619 22.1528V13.2517L20.9833 13.0529C20.8508 12.3461 21.3809 11.816 22.0214 11.7497L26.4609 11.5068ZM2.01042 1.81052L20.4532 0.4632C22.7061 0.264416 23.3025 0.396939 24.716 1.43504L30.5912 5.56533C31.5631 6.27212 31.8944 6.47091 31.8944 7.24396V29.9275C31.8944 31.3411 31.3864 32.1804 29.5752 32.3129L8.17274 33.616C6.80334 33.6823 6.16281 33.4835 5.45602 32.5779L1.10485 26.9457C0.331796 25.9076 0.000488281 25.1346 0.000488281 24.229V4.06341C0.000488281 2.89279 0.53058 1.94304 2.01042 1.81052Z" fill="black"/>
</svg>
