<svg width="138" height="25" viewBox="0 0 138 25" fill="none" xmlns="http://www.w3.org/2000/svg">
<g opacity="0.4">
<path d="M0.000488281 8.48294V16.4656H7.98131V24.4465H15.964V8.48294H0.000488281Z" fill="#00B2E3"/>
</g>
<path d="M28.4258 21.1417L31.898 18.4068C32.8817 20.0996 34.441 21.0871 36.2241 21.0871C38.1653 21.0871 39.2036 19.8288 39.2036 18.4538C39.2036 16.8136 37.2079 16.2945 35.0768 15.6324C32.3983 14.8104 29.4189 13.7721 29.4189 9.94631C29.4189 6.74872 32.2065 4.20569 36.0605 4.20569C39.3127 4.20569 41.1729 5.43582 42.7849 7.10233L39.6418 9.48172C38.8217 8.25159 37.6461 7.60078 36.0887 7.60078C34.3112 7.60078 33.3538 8.55818 33.3538 9.81465C33.3538 11.3457 35.2686 11.8649 37.3997 12.5759C40.1064 13.4505 43.1686 14.6449 43.1686 18.4801C43.1686 21.6514 40.6538 24.7117 36.2524 24.7117C32.6428 24.7117 30.2334 23.1806 28.4333 21.1379M59.0042 10.7796H62.7209V12.3012C63.1681 11.7299 63.7414 11.2697 64.3959 10.9568C65.0505 10.6439 65.7686 10.4866 66.4941 10.4974C69.7199 10.4974 71.6591 12.5759 71.6591 16.1026V24.4389H67.8634V16.6011C67.8634 14.769 67.017 13.7044 65.3486 13.7044C63.9285 13.7044 62.7529 14.6882 62.7529 16.9848V24.4465H59.0042V10.7796ZM72.5469 17.613C72.5469 12.7734 76.1019 10.505 79.1904 10.505C80.9679 10.505 82.3617 11.1614 83.2626 12.1188V4.49159H87.0076V24.4465H83.2533V22.9154C82.3466 23.9819 80.9021 24.7154 79.1265 24.7154C76.2279 24.7154 72.5432 22.4207 72.5432 17.6093M83.368 17.581C83.368 15.559 81.8933 13.9189 79.8694 13.9189C78.9088 13.9406 77.9949 14.3374 77.3232 15.0245C76.6515 15.7116 76.2754 16.6343 76.2754 17.5951C76.2754 18.556 76.6515 19.4787 77.3232 20.1658C77.9949 20.8528 78.9088 21.2497 79.8694 21.2714C81.8933 21.2714 83.368 19.6049 83.368 17.581ZM87.8822 14.4662C87.8822 8.78013 92.1745 4.21509 98.0788 4.21509C101.032 4.21509 103.517 5.27782 105.315 6.97255C106.043 7.66007 106.663 8.45332 107.154 9.3256L103.814 11.3608C102.584 9.09048 100.697 7.91678 98.1014 7.91678C94.4655 7.91678 91.6498 10.8962 91.6498 14.4775C91.6498 18.1397 94.411 21.0363 98.233 21.0363C101.132 21.0363 103.182 19.3961 103.893 16.855H97.6368V13.2116H107.997V14.7465C107.997 20.1034 104.169 24.7154 98.2368 24.7154C92.0052 24.7154 87.8766 19.9868 87.8766 14.4662M108.943 10.7758H112.662V13.016C113.344 11.5959 114.575 10.7758 116.433 10.7758H117.938L116.58 14.4154H115.558C113.563 14.4154 112.688 15.4537 112.688 17.9892V24.4408H108.945L108.943 10.7758ZM118.912 10.7758H122.657V24.4427H118.921V14.4154H117.562L118.912 10.7758ZM120.784 8.69548C121.227 8.69586 121.66 8.56479 122.029 8.31886C122.397 8.07293 122.685 7.72319 122.855 7.31388C123.024 6.90457 123.069 6.45408 122.983 6.0194C122.897 5.58472 122.683 5.18538 122.37 4.8719C122.057 4.55841 121.658 4.34487 121.223 4.25827C120.789 4.17168 120.338 4.21594 119.929 4.38544C119.519 4.55494 119.169 4.84207 118.923 5.21051C118.677 5.57895 118.545 6.01214 118.545 6.45529C118.545 7.0491 118.781 7.61862 119.201 8.03868C119.62 8.45875 120.19 8.69499 120.784 8.69548ZM123.539 17.613C123.539 12.7734 127.092 10.505 130.181 10.505C131.958 10.505 133.352 11.1614 134.255 12.1188V4.49159H138V24.4465H134.261V22.9154C133.358 23.9819 131.909 24.7192 130.122 24.7192C127.226 24.7192 123.539 22.4245 123.539 17.613ZM134.364 17.5848C134.364 15.5628 132.887 13.9226 130.865 13.9226C129.905 13.9443 128.991 14.3412 128.319 15.0283C127.647 15.7154 127.271 16.638 127.271 17.5989C127.271 18.5598 127.647 19.4825 128.319 20.1695C128.991 20.8566 129.905 21.2535 130.865 21.2752C132.887 21.2752 134.364 19.6087 134.364 17.5848ZM58.122 17.5848C58.122 13.6499 55.2517 10.505 51.0704 10.505C50.1375 10.5047 49.2137 10.6885 48.352 11.0458C47.4902 11.4031 46.7074 11.9268 46.0483 12.5871C45.3893 13.2474 44.867 14.0312 44.5113 14.8936C44.1556 15.756 43.9735 16.6801 43.9755 17.613C43.9755 21.5498 46.9286 24.7192 51.1927 24.7192C54.1457 24.7192 56.2712 23.2953 57.4656 21.2526L54.4937 19.4808C54.1848 20.0801 53.7144 20.581 53.1357 20.927C52.557 21.273 51.8931 21.4503 51.219 21.4388C49.2515 21.4388 48.0214 20.4551 47.5831 18.9522H58.1352L58.122 17.5848ZM47.7374 15.9446C48.0189 15.2909 48.4892 14.7361 49.0881 14.3514C49.6869 13.9667 50.387 13.7696 51.0986 13.7853C52.6842 13.7853 53.8598 14.5245 54.3526 15.9446H47.7374Z" fill="#243746"/>
<path d="M7.98131 16.4656H0.000488281V24.4464H7.98131V16.4656Z" fill="#1A82E2"/>
<g style="mix-blend-mode:multiply">
<path d="M15.9793 8.48291V0.50209H7.99658V8.48291V16.4656H15.9793H23.9601V8.48291H15.9793Z" fill="#00B2E3"/>
</g>
<path d="M23.9496 0.50206H15.9688V8.48288H23.9496V0.50206Z" fill="#1A82E2"/>
</svg>
