<svg width="154" height="42" viewBox="0 0 154 42" fill="none" xmlns="http://www.w3.org/2000/svg">
<path d="M21.7215 1.15684C20.2283 0.0456222 18.3513 -0.28405 16.5687 0.250623L4.51053 3.86798C2.02643 4.61368 0.356445 6.85637 0.356445 9.45091V35.2232C0.356445 37.0842 1.21258 38.7884 2.70561 39.8978C4.19892 41.0092 6.07801 41.3387 7.85856 40.8042L16.86 38.1031C16.5785 37.1747 16.4359 36.2059 16.4359 35.2232V23.5188C16.4359 21.061 17.3323 18.7136 18.9641 16.9129C20.1618 15.5864 21.7154 14.6078 23.4518 14.0853L24.0708 13.9085V5.83342C24.0708 3.9724 23.2146 2.2682 21.7213 1.15684H21.7215Z" fill="#0EA5E9"/>
<path d="M44.1676 19.9013V31.6056C44.1676 34.1983 42.4995 36.443 40.0135 37.1867L27.9554 40.8041C27.3968 40.9729 26.828 41.0554 26.2653 41.0554C25.0332 41.0554 23.8274 40.6616 22.8024 39.8978C22.3341 39.5481 21.9282 39.1442 21.5946 38.692C21.1887 38.1494 20.8852 37.5445 20.6943 36.8953C20.6922 36.8953 20.6903 36.8953 20.6882 36.8972L20.6922 36.8932C20.5376 36.3606 20.4531 35.8 20.4531 35.2231V23.5188C20.4531 22.3169 20.8109 21.1896 21.442 20.253C22.073 19.3164 22.9773 18.5689 24.0706 18.1247C24.2455 18.0543 24.4244 17.9899 24.6073 17.9358L26.0825 17.4937L36.6656 14.3183C38.4481 13.7837 40.3253 14.1133 41.8184 15.2247C43.3117 16.3361 44.1677 18.0402 44.1677 19.9013H44.1676Z" fill="#0EA5E9"/>
<path d="M66.3395 17.4531C66.2732 16.8329 65.9938 16.3499 65.5014 16.0043C65.0137 15.6586 64.3793 15.4858 63.598 15.4858C63.0488 15.4858 62.5777 15.5687 62.1847 15.7344C61.7917 15.9001 61.491 16.125 61.2827 16.4091C61.0743 16.6932 60.9678 17.0175 60.9631 17.3821C60.9631 17.6851 61.0317 17.9479 61.169 18.1705C61.3111 18.393 61.5028 18.5824 61.7443 18.7386C61.9858 18.8902 62.2533 19.018 62.5469 19.1222C62.8404 19.2263 63.1364 19.3139 63.4347 19.3849L64.7983 19.7259C65.3475 19.8537 65.8755 20.0265 66.3821 20.2443C66.8935 20.4621 67.3504 20.7367 67.7528 21.0682C68.16 21.3996 68.482 21.7997 68.7188 22.2685C68.9555 22.7372 69.0739 23.2865 69.0739 23.9162C69.0739 24.7685 68.8561 25.5189 68.4205 26.1676C67.9848 26.8116 67.3551 27.3158 66.5312 27.6804C65.7121 28.0402 64.7202 28.2202 63.5554 28.2202C62.4238 28.2202 61.4413 28.045 60.608 27.6946C59.7794 27.3442 59.1307 26.8329 58.6619 26.1605C58.1979 25.4882 57.947 24.669 57.9091 23.7031H60.5014C60.5393 24.2098 60.6955 24.6312 60.9702 24.9673C61.2448 25.3035 61.6023 25.5545 62.0426 25.7202C62.4877 25.8859 62.9848 25.9688 63.5341 25.9688C64.107 25.9688 64.6089 25.8835 65.0398 25.7131C65.4754 25.5379 65.8163 25.2964 66.0625 24.9886C66.3087 24.6761 66.4342 24.3116 66.4389 23.8949C66.4342 23.5161 66.3229 23.2036 66.1051 22.9574C65.8873 22.7064 65.5819 22.4981 65.1889 22.3324C64.8007 22.1619 64.3461 22.0104 63.8253 21.8778L62.1705 21.4517C60.9725 21.1439 60.0256 20.6776 59.3295 20.0526C58.6383 19.4228 58.2926 18.5871 58.2926 17.5455C58.2926 16.6884 58.5246 15.938 58.9886 15.294C59.4574 14.6501 60.0942 14.1506 60.8991 13.7955C61.7041 13.4356 62.6155 13.2557 63.6335 13.2557C64.6657 13.2557 65.5701 13.4356 66.3466 13.7955C67.1278 14.1506 67.741 14.6454 68.1861 15.2798C68.6312 15.9096 68.8608 16.634 68.875 17.4531H66.3395ZM76.7567 17.0909V19.0795H70.4854V17.0909H76.7567ZM72.0337 14.4773H74.6048V24.7188C74.6048 25.0644 74.6568 25.3295 74.761 25.5142C74.8699 25.6941 75.012 25.8172 75.1871 25.8835C75.3623 25.9498 75.5565 25.983 75.7695 25.983C75.9305 25.983 76.0773 25.9711 76.2099 25.9474C76.3472 25.9238 76.4513 25.9025 76.5224 25.8835L76.9556 27.8935C76.8183 27.9408 76.6218 27.9929 76.3661 28.0497C76.1152 28.1065 75.8074 28.1397 75.4428 28.1491C74.7989 28.1681 74.2189 28.071 73.7028 27.858C73.1867 27.6402 72.7771 27.304 72.4741 26.8494C72.1758 26.3949 72.029 25.8267 72.0337 25.1449V14.4773ZM82.0462 28.2202C81.3549 28.2202 80.7322 28.0971 80.1783 27.8509C79.629 27.5999 79.1934 27.2306 78.8714 26.7429C78.5542 26.2552 78.3956 25.6539 78.3956 24.9389C78.3956 24.3234 78.5092 23.8144 78.7365 23.4119C78.9638 23.0095 79.2739 22.6875 79.6669 22.446C80.0599 22.2045 80.5026 22.0223 80.995 21.8991C81.4922 21.7713 82.0059 21.679 82.5362 21.6222C83.1754 21.5559 83.6939 21.4967 84.0916 21.4446C84.4893 21.3878 84.7782 21.3026 84.9581 21.1889C85.1428 21.0705 85.2351 20.8883 85.2351 20.642V20.5994C85.2351 20.0644 85.0765 19.6501 84.7592 19.3565C84.442 19.063 83.9851 18.9162 83.3885 18.9162C82.7588 18.9162 82.2592 19.0535 81.8899 19.3281C81.5253 19.6027 81.2791 19.9271 81.1513 20.3011L78.7507 19.9602C78.9401 19.2973 79.2526 18.7434 79.6882 18.2983C80.1238 17.8485 80.6565 17.5123 81.2862 17.2898C81.916 17.0625 82.612 16.9489 83.3743 16.9489C83.8999 16.9489 84.4231 17.0104 84.9439 17.1335C85.4647 17.2566 85.9406 17.4602 86.3714 17.7443C86.8023 18.0237 87.148 18.4048 87.4084 18.8878C87.6735 19.3707 87.8061 19.9744 87.8061 20.6989V28H85.3345V26.5014H85.2493C85.093 26.8045 84.8729 27.0885 84.5888 27.3537C84.3094 27.6141 83.9567 27.8248 83.5305 27.9858C83.1091 28.142 82.6143 28.2202 82.0462 28.2202ZM82.7138 26.331C83.2299 26.331 83.6773 26.2292 84.0561 26.0256C84.4349 25.8172 84.7261 25.5426 84.9297 25.2017C85.138 24.8608 85.2422 24.4891 85.2422 24.0866V22.8011C85.1617 22.8674 85.0244 22.929 84.8303 22.9858C84.6409 23.0426 84.4278 23.0923 84.1911 23.1349C83.9543 23.1776 83.7199 23.2154 83.4879 23.2486C83.2559 23.2817 83.0547 23.3101 82.8842 23.3338C82.5007 23.3859 82.1574 23.4711 81.8544 23.5895C81.5514 23.7079 81.3123 23.8736 81.1371 24.0866C80.9619 24.295 80.8743 24.5649 80.8743 24.8963C80.8743 25.3698 81.0471 25.7273 81.3928 25.9688C81.7384 26.2102 82.1787 26.331 82.7138 26.331ZM90.3913 28V17.0909H92.8842V18.9091H92.9979C93.1967 18.2794 93.5376 17.794 94.0206 17.4531C94.5083 17.1075 95.0646 16.9347 95.6896 16.9347C95.8317 16.9347 95.9903 16.9418 96.1655 16.956C96.3454 16.9654 96.4946 16.982 96.6129 17.0057V19.3707C96.504 19.3329 96.3312 19.2997 96.0945 19.2713C95.8625 19.2382 95.6375 19.2216 95.4197 19.2216C94.951 19.2216 94.5296 19.3234 94.1555 19.527C93.7862 19.7259 93.495 20.0028 93.282 20.358C93.0689 20.7131 92.9624 21.1226 92.9624 21.5866V28H90.3913ZM98.4347 28V13.4545H101.006V18.8949H101.112C101.245 18.6297 101.432 18.348 101.673 18.0497C101.915 17.7467 102.241 17.4886 102.653 17.2756C103.065 17.0578 103.591 16.9489 104.23 16.9489C105.073 16.9489 105.833 17.1643 106.51 17.5952C107.192 18.0213 107.732 18.6534 108.129 19.4915C108.532 20.3248 108.733 21.3475 108.733 22.5597C108.733 23.7576 108.536 24.7756 108.143 25.6136C107.75 26.4517 107.215 27.0909 106.538 27.5312C105.861 27.9716 105.094 28.1918 104.237 28.1918C103.612 28.1918 103.094 28.0876 102.682 27.8793C102.27 27.6709 101.938 27.42 101.688 27.1264C101.441 26.8281 101.25 26.5464 101.112 26.2812H100.963V28H98.4347ZM100.956 22.5455C100.956 23.2509 101.055 23.8688 101.254 24.3991C101.458 24.9295 101.749 25.3437 102.128 25.642C102.511 25.9356 102.975 26.0824 103.52 26.0824C104.088 26.0824 104.564 25.9309 104.947 25.6278C105.331 25.3201 105.62 24.901 105.814 24.3707C106.013 23.8357 106.112 23.2273 106.112 22.5455C106.112 21.8684 106.015 21.267 105.821 20.7415C105.627 20.2159 105.338 19.804 104.955 19.5057C104.571 19.2074 104.093 19.0582 103.52 19.0582C102.971 19.0582 102.504 19.2027 102.121 19.4915C101.737 19.7803 101.446 20.1851 101.247 20.706C101.053 21.2268 100.956 21.84 100.956 22.5455ZM115.677 28.2131C114.612 28.2131 113.689 27.9787 112.907 27.5099C112.126 27.0412 111.52 26.3854 111.089 25.5426C110.663 24.6998 110.45 23.715 110.45 22.5881C110.45 21.4612 110.663 20.474 111.089 19.6264C111.52 18.7789 112.126 18.1207 112.907 17.652C113.689 17.1832 114.612 16.9489 115.677 16.9489C116.743 16.9489 117.666 17.1832 118.447 17.652C119.228 18.1207 119.832 18.7789 120.258 19.6264C120.689 20.474 120.904 21.4612 120.904 22.5881C120.904 23.715 120.689 24.6998 120.258 25.5426C119.832 26.3854 119.228 27.0412 118.447 27.5099C117.666 27.9787 116.743 28.2131 115.677 28.2131ZM115.691 26.1534C116.269 26.1534 116.752 25.9948 117.14 25.6776C117.529 25.3556 117.817 24.9247 118.007 24.3849C118.201 23.8452 118.298 23.2438 118.298 22.581C118.298 21.9134 118.201 21.3097 118.007 20.7699C117.817 20.2254 117.529 19.7921 117.14 19.4702C116.752 19.1482 116.269 18.9872 115.691 18.9872C115.1 18.9872 114.607 19.1482 114.214 19.4702C113.826 19.7921 113.535 20.2254 113.341 20.7699C113.151 21.3097 113.056 21.9134 113.056 22.581C113.056 23.2438 113.151 23.8452 113.341 24.3849C113.535 24.9247 113.826 25.3556 114.214 25.6776C114.607 25.9948 115.1 26.1534 115.691 26.1534ZM126.226 28.2202C125.535 28.2202 124.912 28.0971 124.358 27.8509C123.809 27.5999 123.373 27.2306 123.051 26.7429C122.734 26.2552 122.575 25.6539 122.575 24.9389C122.575 24.3234 122.689 23.8144 122.916 23.4119C123.143 23.0095 123.454 22.6875 123.847 22.446C124.24 22.2045 124.682 22.0223 125.175 21.8991C125.672 21.7713 126.186 21.679 126.716 21.6222C127.355 21.5559 127.874 21.4967 128.271 21.4446C128.669 21.3878 128.958 21.3026 129.138 21.1889C129.322 21.0705 129.415 20.8883 129.415 20.642V20.5994C129.415 20.0644 129.256 19.6501 128.939 19.3565C128.622 19.063 128.165 18.9162 127.568 18.9162C126.938 18.9162 126.439 19.0535 126.07 19.3281C125.705 19.6027 125.459 19.9271 125.331 20.3011L122.93 19.9602C123.12 19.2973 123.432 18.7434 123.868 18.2983C124.304 17.8485 124.836 17.5123 125.466 17.2898C126.096 17.0625 126.792 16.9489 127.554 16.9489C128.08 16.9489 128.603 17.0104 129.124 17.1335C129.644 17.2566 130.12 17.4602 130.551 17.7443C130.982 18.0237 131.328 18.4048 131.588 18.8878C131.853 19.3707 131.986 19.9744 131.986 20.6989V28H129.514V26.5014H129.429C129.273 26.8045 129.053 27.0885 128.768 27.3537C128.489 27.6141 128.136 27.8248 127.71 27.9858C127.289 28.142 126.794 28.2202 126.226 28.2202ZM126.893 26.331C127.41 26.331 127.857 26.2292 128.236 26.0256C128.615 25.8172 128.906 25.5426 129.109 25.2017C129.318 24.8608 129.422 24.4891 129.422 24.0866V22.8011C129.341 22.8674 129.204 22.929 129.01 22.9858C128.821 23.0426 128.607 23.0923 128.371 23.1349C128.134 23.1776 127.9 23.2154 127.668 23.2486C127.436 23.2817 127.234 23.3101 127.064 23.3338C126.68 23.3859 126.337 23.4711 126.034 23.5895C125.731 23.7079 125.492 23.8736 125.317 24.0866C125.142 24.295 125.054 24.5649 125.054 24.8963C125.054 25.3698 125.227 25.7273 125.572 25.9688C125.918 26.2102 126.358 26.331 126.893 26.331ZM134.571 28V17.0909H137.064V18.9091H137.178C137.376 18.2794 137.717 17.794 138.2 17.4531C138.688 17.1075 139.244 16.9347 139.869 16.9347C140.011 16.9347 140.17 16.9418 140.345 16.956C140.525 16.9654 140.674 16.982 140.793 17.0057V19.3707C140.684 19.3329 140.511 19.2997 140.274 19.2713C140.042 19.2382 139.817 19.2216 139.599 19.2216C139.131 19.2216 138.709 19.3234 138.335 19.527C137.966 19.7259 137.675 20.0028 137.462 20.358C137.249 20.7131 137.142 21.1226 137.142 21.5866V28H134.571ZM146.1 28.1918C145.243 28.1918 144.476 27.9716 143.799 27.5312C143.122 27.0909 142.587 26.4517 142.194 25.6136C141.801 24.7756 141.604 23.7576 141.604 22.5597C141.604 21.3475 141.803 20.3248 142.201 19.4915C142.603 18.6534 143.145 18.0213 143.827 17.5952C144.509 17.1643 145.269 16.9489 146.107 16.9489C146.746 16.9489 147.272 17.0578 147.684 17.2756C148.096 17.4886 148.422 17.7467 148.664 18.0497C148.905 18.348 149.092 18.6297 149.225 18.8949H149.331V13.4545H151.909V28H149.381V26.2812H149.225C149.092 26.5464 148.9 26.8281 148.65 27.1264C148.399 27.42 148.067 27.6709 147.655 27.8793C147.243 28.0876 146.725 28.1918 146.1 28.1918ZM146.817 26.0824C147.362 26.0824 147.826 25.9356 148.209 25.642C148.593 25.3437 148.884 24.9295 149.083 24.3991C149.282 23.8688 149.381 23.2509 149.381 22.5455C149.381 21.84 149.282 21.2268 149.083 20.706C148.889 20.1851 148.6 19.7803 148.216 19.4915C147.837 19.2027 147.371 19.0582 146.817 19.0582C146.244 19.0582 145.766 19.2074 145.382 19.5057C144.999 19.804 144.71 20.2159 144.516 20.7415C144.322 21.267 144.225 21.8684 144.225 22.5455C144.225 23.2273 144.322 23.8357 144.516 24.3707C144.715 24.901 145.006 25.3201 145.39 25.6278C145.778 25.9309 146.254 26.0824 146.817 26.0824Z" fill="#1F2937"/>
</svg>
