<svg width="632" height="285" viewBox="0 0 632 285" fill="none" xmlns="http://www.w3.org/2000/svg">
<rect width="632" height="285" rx="10" fill="white"/>
<path d="M265.279 255.102V263H264.256V257.379C264.256 257.295 264.257 257.205 264.261 257.109C264.268 257.014 264.276 256.917 264.283 256.818L261.654 261.641C261.562 261.821 261.421 261.911 261.231 261.911H261.066C260.875 261.911 260.736 261.821 260.648 261.641L257.969 256.801C257.991 257.007 258.002 257.199 258.002 257.379V263H256.974V255.102H257.843C257.945 255.102 258.024 255.113 258.079 255.135C258.138 255.153 258.193 255.208 258.244 255.3L260.884 260.03C260.935 260.125 260.983 260.226 261.027 260.332C261.071 260.439 261.113 260.545 261.154 260.651C261.231 260.435 261.32 260.226 261.423 260.024L264.014 255.3C264.061 255.208 264.113 255.153 264.168 255.135C264.226 255.113 264.307 255.102 264.41 255.102H265.279ZM269.964 260.519C269.528 260.534 269.157 260.569 268.853 260.624C268.549 260.675 268.301 260.745 268.111 260.833C267.92 260.921 267.782 261.025 267.698 261.146C267.614 261.264 267.572 261.396 267.572 261.542C267.572 261.682 267.594 261.803 267.638 261.905C267.685 262.004 267.748 262.087 267.825 262.153C267.905 262.215 267.999 262.261 268.105 262.29C268.211 262.32 268.327 262.334 268.452 262.334C268.617 262.334 268.767 262.318 268.903 262.285C269.042 262.252 269.172 262.206 269.293 262.147C269.414 262.085 269.53 262.01 269.64 261.922C269.75 261.834 269.858 261.733 269.964 261.619V260.519ZM266.818 258.193C267.13 257.896 267.467 257.674 267.83 257.527C268.197 257.381 268.598 257.307 269.035 257.307C269.354 257.307 269.636 257.361 269.882 257.467C270.127 257.57 270.334 257.714 270.503 257.901C270.672 258.088 270.798 258.312 270.883 258.572C270.971 258.833 271.015 259.121 271.015 259.436V263H270.536C270.43 263 270.349 262.983 270.294 262.95C270.239 262.914 270.195 262.848 270.162 262.752L270.047 262.263C269.904 262.395 269.762 262.512 269.623 262.615C269.484 262.714 269.337 262.8 269.183 262.873C269.033 262.943 268.871 262.996 268.699 263.033C268.527 263.07 268.336 263.088 268.127 263.088C267.907 263.088 267.7 263.059 267.506 263C267.315 262.938 267.148 262.844 267.005 262.719C266.862 262.595 266.748 262.439 266.664 262.252C266.583 262.065 266.543 261.847 266.543 261.597C266.543 261.377 266.602 261.167 266.719 260.965C266.84 260.76 267.034 260.576 267.302 260.415C267.573 260.254 267.925 260.122 268.358 260.019C268.794 259.916 269.33 259.858 269.964 259.843V259.436C269.964 259.014 269.874 258.699 269.695 258.49C269.515 258.281 269.251 258.176 268.903 258.176C268.668 258.176 268.47 258.206 268.309 258.264C268.151 258.323 268.013 258.389 267.896 258.462C267.782 258.532 267.682 258.596 267.594 258.655C267.509 258.714 267.421 258.743 267.33 258.743C267.256 258.743 267.192 258.723 267.137 258.682C267.086 258.642 267.044 258.594 267.011 258.539L266.818 258.193ZM273.572 258.484C273.752 258.118 273.968 257.83 274.221 257.621C274.474 257.412 274.779 257.307 275.134 257.307C275.255 257.307 275.369 257.322 275.475 257.351C275.585 257.377 275.681 257.417 275.761 257.473L275.69 258.281C275.664 258.38 275.604 258.429 275.508 258.429C275.457 258.429 275.38 258.42 275.277 258.402C275.175 258.38 275.065 258.369 274.947 258.369C274.775 258.369 274.623 258.395 274.491 258.446C274.359 258.494 274.24 258.567 274.133 258.666C274.031 258.761 273.939 258.88 273.858 259.023C273.778 259.163 273.703 259.322 273.633 259.502V263H272.56V257.412H273.176C273.294 257.412 273.373 257.434 273.413 257.478C273.457 257.518 273.488 257.592 273.506 257.698L273.572 258.484ZM280.411 258.457C280.378 258.497 280.345 258.53 280.312 258.556C280.282 258.578 280.238 258.589 280.18 258.589C280.121 258.589 280.059 258.567 279.993 258.523C279.93 258.475 279.85 258.426 279.751 258.374C279.655 258.319 279.538 258.27 279.399 258.226C279.263 258.178 279.094 258.154 278.893 258.154C278.629 258.154 278.396 258.202 278.194 258.297C277.992 258.393 277.824 258.528 277.688 258.704C277.556 258.88 277.455 259.095 277.386 259.348C277.316 259.601 277.281 259.885 277.281 260.2C277.281 260.527 277.318 260.818 277.391 261.075C277.464 261.328 277.569 261.542 277.705 261.718C277.84 261.891 278.005 262.023 278.2 262.114C278.394 262.202 278.61 262.246 278.849 262.246C279.08 262.246 279.27 262.219 279.421 262.164C279.571 262.105 279.696 262.043 279.795 261.977C279.894 261.911 279.976 261.85 280.042 261.795C280.108 261.737 280.176 261.707 280.246 261.707C280.334 261.707 280.401 261.74 280.449 261.806L280.757 262.202C280.629 262.36 280.484 262.494 280.323 262.604C280.165 262.714 279.996 262.804 279.817 262.873C279.637 262.943 279.448 262.994 279.25 263.028C279.056 263.061 278.858 263.077 278.656 263.077C278.308 263.077 277.981 263.013 277.677 262.884C277.376 262.756 277.114 262.569 276.891 262.323C276.671 262.078 276.496 261.777 276.368 261.421C276.24 261.062 276.176 260.655 276.176 260.2C276.176 259.786 276.232 259.403 276.346 259.051C276.463 258.699 276.634 258.396 276.858 258.143C277.085 257.887 277.364 257.687 277.694 257.544C278.024 257.397 278.401 257.324 278.827 257.324C279.226 257.324 279.578 257.388 279.883 257.516C280.187 257.645 280.458 257.826 280.697 258.061L280.411 258.457ZM282.941 258.121C283.175 257.883 283.434 257.691 283.716 257.544C284.002 257.397 284.33 257.324 284.701 257.324C285.009 257.324 285.278 257.375 285.509 257.478C285.744 257.581 285.94 257.725 286.098 257.912C286.255 258.096 286.375 258.318 286.455 258.578C286.536 258.838 286.576 259.126 286.576 259.441V263H285.498V259.441C285.498 259.042 285.407 258.732 285.223 258.512C285.04 258.288 284.759 258.176 284.382 258.176C284.107 258.176 283.848 258.242 283.606 258.374C283.368 258.503 283.146 258.679 282.941 258.902V263H281.868V254.882H282.941V258.121Z" fill="#849AA9"/>
<path d="M337.17 260.057L335.999 256.994C335.914 256.785 335.83 256.521 335.746 256.202C335.705 256.36 335.663 256.506 335.619 256.642C335.579 256.778 335.538 256.899 335.498 257.005L334.332 260.057H337.17ZM339.486 263H338.584C338.481 263 338.397 262.974 338.331 262.923C338.265 262.872 338.217 262.806 338.188 262.725L337.489 260.893H334.008L333.309 262.725C333.283 262.795 333.236 262.859 333.166 262.917C333.096 262.972 333.012 263 332.913 263H332.011L335.157 255.102H336.34L339.486 263ZM341.413 261.625C341.589 261.856 341.777 262.017 341.979 262.109C342.184 262.201 342.414 262.246 342.667 262.246C343.158 262.246 343.537 262.07 343.805 261.718C344.076 261.363 344.212 260.846 344.212 260.167C344.212 259.812 344.181 259.509 344.119 259.26C344.06 259.007 343.972 258.802 343.855 258.644C343.741 258.483 343.6 258.365 343.431 258.292C343.262 258.215 343.072 258.176 342.859 258.176C342.547 258.176 342.276 258.246 342.045 258.385C341.818 258.525 341.607 258.723 341.413 258.979V261.625ZM341.358 258.248C341.475 258.109 341.6 257.982 341.732 257.868C341.867 257.751 342.012 257.652 342.166 257.571C342.32 257.487 342.483 257.423 342.656 257.379C342.832 257.331 343.019 257.307 343.217 257.307C343.536 257.307 343.823 257.37 344.08 257.494C344.34 257.619 344.562 257.802 344.746 258.044C344.929 258.286 345.07 258.585 345.169 258.941C345.272 259.297 345.323 259.705 345.323 260.167C345.323 260.582 345.266 260.967 345.153 261.322C345.043 261.674 344.883 261.981 344.674 262.241C344.469 262.501 344.216 262.707 343.915 262.857C343.618 263.004 343.283 263.077 342.909 263.077C342.575 263.077 342.289 263.022 342.051 262.912C341.812 262.802 341.6 262.648 341.413 262.45V264.876H340.34V257.412H340.984C341.134 257.412 341.227 257.483 341.264 257.626L341.358 258.248ZM347.65 258.484C347.829 258.118 348.046 257.83 348.299 257.621C348.552 257.412 348.856 257.307 349.212 257.307C349.333 257.307 349.446 257.322 349.553 257.351C349.663 257.377 349.758 257.417 349.839 257.473L349.767 258.281C349.741 258.38 349.681 258.429 349.586 258.429C349.534 258.429 349.457 258.42 349.355 258.402C349.252 258.38 349.142 258.369 349.025 258.369C348.852 258.369 348.7 258.395 348.568 258.446C348.436 258.494 348.317 258.567 348.211 258.666C348.108 258.761 348.016 258.88 347.936 259.023C347.855 259.163 347.78 259.322 347.71 259.502V263H346.638V257.412H347.254C347.371 257.412 347.45 257.434 347.49 257.478C347.534 257.518 347.565 257.592 347.584 257.698L347.65 258.484ZM351.898 257.412V263H350.825V257.412H351.898ZM352.101 255.685C352.101 255.784 352.081 255.879 352.041 255.971C352.001 256.059 351.946 256.138 351.876 256.207C351.81 256.273 351.731 256.327 351.639 256.367C351.548 256.404 351.452 256.422 351.353 256.422C351.254 256.422 351.161 256.404 351.073 256.367C350.985 256.327 350.906 256.273 350.836 256.207C350.77 256.138 350.717 256.059 350.677 255.971C350.64 255.879 350.622 255.784 350.622 255.685C350.622 255.582 350.64 255.487 350.677 255.399C350.717 255.307 350.77 255.228 350.836 255.162C350.906 255.093 350.985 255.04 351.073 255.003C351.161 254.963 351.254 254.942 351.353 254.942C351.452 254.942 351.548 254.963 351.639 255.003C351.731 255.04 351.81 255.093 351.876 255.162C351.946 255.228 352.001 255.307 352.041 255.399C352.081 255.487 352.101 255.582 352.101 255.685ZM354.661 254.882V263H353.583V254.882H354.661Z" fill="#849AA9"/>
<path d="M409.279 255.102V263H408.256V257.379C408.256 257.295 408.257 257.205 408.261 257.109C408.268 257.014 408.276 256.917 408.283 256.818L405.654 261.641C405.562 261.821 405.421 261.911 405.231 261.911H405.066C404.875 261.911 404.736 261.821 404.648 261.641L401.969 256.801C401.991 257.007 402.002 257.199 402.002 257.379V263H400.974V255.102H401.843C401.945 255.102 402.024 255.113 402.079 255.135C402.138 255.153 402.193 255.208 402.244 255.3L404.884 260.03C404.935 260.125 404.983 260.226 405.027 260.332C405.071 260.439 405.113 260.545 405.154 260.651C405.231 260.435 405.32 260.226 405.423 260.024L408.014 255.3C408.061 255.208 408.113 255.153 408.168 255.135C408.226 255.113 408.307 255.102 408.41 255.102H409.279ZM413.964 260.519C413.528 260.534 413.157 260.569 412.853 260.624C412.549 260.675 412.301 260.745 412.111 260.833C411.92 260.921 411.782 261.025 411.698 261.146C411.614 261.264 411.572 261.396 411.572 261.542C411.572 261.682 411.594 261.803 411.638 261.905C411.685 262.004 411.748 262.087 411.825 262.153C411.905 262.215 411.999 262.261 412.105 262.29C412.211 262.32 412.327 262.334 412.452 262.334C412.617 262.334 412.767 262.318 412.903 262.285C413.042 262.252 413.172 262.206 413.293 262.147C413.414 262.085 413.53 262.01 413.64 261.922C413.75 261.834 413.858 261.733 413.964 261.619V260.519ZM410.818 258.193C411.13 257.896 411.467 257.674 411.83 257.527C412.197 257.381 412.598 257.307 413.035 257.307C413.354 257.307 413.636 257.361 413.882 257.467C414.127 257.57 414.334 257.714 414.503 257.901C414.672 258.088 414.798 258.312 414.883 258.572C414.971 258.833 415.015 259.121 415.015 259.436V263H414.536C414.43 263 414.349 262.983 414.294 262.95C414.239 262.914 414.195 262.848 414.162 262.752L414.047 262.263C413.904 262.395 413.762 262.512 413.623 262.615C413.484 262.714 413.337 262.8 413.183 262.873C413.033 262.943 412.871 262.996 412.699 263.033C412.527 263.07 412.336 263.088 412.127 263.088C411.907 263.088 411.7 263.059 411.506 263C411.315 262.938 411.148 262.844 411.005 262.719C410.862 262.595 410.748 262.439 410.664 262.252C410.583 262.065 410.543 261.847 410.543 261.597C410.543 261.377 410.602 261.167 410.719 260.965C410.84 260.76 411.034 260.576 411.302 260.415C411.573 260.254 411.925 260.122 412.358 260.019C412.794 259.916 413.33 259.858 413.964 259.843V259.436C413.964 259.014 413.874 258.699 413.695 258.49C413.515 258.281 413.251 258.176 412.903 258.176C412.668 258.176 412.47 258.206 412.309 258.264C412.151 258.323 412.013 258.389 411.896 258.462C411.782 258.532 411.682 258.596 411.594 258.655C411.509 258.714 411.421 258.743 411.33 258.743C411.256 258.743 411.192 258.723 411.137 258.682C411.086 258.642 411.044 258.594 411.011 258.539L410.818 258.193ZM421.305 257.412L418.203 264.623C418.17 264.703 418.126 264.766 418.071 264.81C418.016 264.854 417.935 264.876 417.829 264.876H417.031L418.054 262.648L415.761 257.412H416.696C416.787 257.412 416.859 257.434 416.91 257.478C416.962 257.522 416.998 257.571 417.02 257.626L418.439 260.981C418.469 261.066 418.496 261.152 418.522 261.24C418.551 261.324 418.575 261.409 418.593 261.493C418.619 261.405 418.646 261.319 418.676 261.234C418.705 261.146 418.736 261.06 418.769 260.976L420.139 257.626C420.164 257.564 420.205 257.513 420.26 257.473C420.315 257.432 420.377 257.412 420.447 257.412H421.305Z" fill="#849AA9"/>
<path d="M469.773 260.25C469.773 260.69 469.718 261.086 469.608 261.438C469.498 261.79 469.337 262.089 469.124 262.334C468.915 262.576 468.653 262.763 468.338 262.895C468.026 263.024 467.667 263.088 467.26 263.088C466.893 263.088 466.515 263.037 466.127 262.934L466.193 262.241C466.2 262.175 466.224 262.122 466.264 262.081C466.308 262.037 466.372 262.015 466.457 262.015C466.519 262.015 466.603 262.032 466.71 262.065C466.82 262.094 466.963 262.109 467.139 262.109C467.373 262.109 467.58 262.074 467.76 262.004C467.943 261.935 468.097 261.827 468.222 261.68C468.347 261.53 468.44 261.339 468.503 261.108C468.569 260.877 468.602 260.6 468.602 260.277V255.102H469.773V260.25ZM476.033 257.412V263H475.39C475.243 263 475.148 262.928 475.104 262.785L475.027 262.224C474.906 262.353 474.779 262.47 474.647 262.576C474.515 262.683 474.374 262.774 474.224 262.851C474.074 262.925 473.914 262.982 473.745 263.022C473.577 263.066 473.395 263.088 473.201 263.088C472.893 263.088 472.622 263.037 472.387 262.934C472.156 262.831 471.962 262.688 471.804 262.505C471.646 262.318 471.527 262.094 471.446 261.834C471.366 261.574 471.325 261.286 471.325 260.97V257.412H472.403V260.97C472.403 261.37 472.495 261.682 472.678 261.905C472.862 262.125 473.142 262.235 473.52 262.235C473.795 262.235 474.052 262.171 474.29 262.043C474.528 261.911 474.752 261.731 474.961 261.504V257.412H476.033ZM478.647 258.187C478.768 258.059 478.894 257.942 479.026 257.835C479.158 257.729 479.298 257.639 479.444 257.566C479.595 257.489 479.754 257.43 479.923 257.39C480.095 257.346 480.279 257.324 480.473 257.324C480.781 257.324 481.05 257.375 481.281 257.478C481.516 257.581 481.712 257.725 481.87 257.912C482.028 258.096 482.147 258.318 482.227 258.578C482.308 258.838 482.348 259.126 482.348 259.441V263H481.27V259.441C481.27 259.042 481.179 258.732 480.995 258.512C480.812 258.288 480.532 258.176 480.154 258.176C479.879 258.176 479.62 258.242 479.378 258.374C479.14 258.503 478.918 258.679 478.713 258.902V263H477.64V257.412H478.284C478.434 257.412 478.528 257.483 478.564 257.626L478.647 258.187ZM487.607 259.584C487.607 259.372 487.576 259.176 487.514 258.996C487.455 258.816 487.367 258.66 487.25 258.528C487.132 258.396 486.989 258.294 486.821 258.22C486.652 258.147 486.458 258.11 486.238 258.11C485.787 258.11 485.431 258.241 485.171 258.501C484.914 258.761 484.751 259.122 484.681 259.584H487.607ZM488.493 262.202C488.361 262.356 488.209 262.49 488.036 262.604C487.864 262.714 487.681 262.804 487.486 262.873C487.292 262.943 487.09 262.994 486.881 263.028C486.676 263.061 486.472 263.077 486.271 263.077C485.886 263.077 485.528 263.013 485.198 262.884C484.872 262.752 484.588 262.562 484.346 262.312C484.107 262.059 483.92 261.748 483.785 261.377C483.653 261.003 483.587 260.574 483.587 260.09C483.587 259.702 483.647 259.341 483.768 259.007C483.889 258.67 484.062 258.376 484.285 258.127C484.513 257.878 484.789 257.681 485.116 257.538C485.442 257.395 485.809 257.324 486.216 257.324C486.557 257.324 486.87 257.381 487.156 257.494C487.446 257.604 487.695 257.766 487.904 257.978C488.113 258.191 488.276 258.453 488.394 258.765C488.515 259.077 488.575 259.432 488.575 259.832C488.575 259.997 488.557 260.109 488.52 260.167C488.484 260.222 488.416 260.25 488.317 260.25H484.654C484.665 260.584 484.712 260.875 484.797 261.124C484.881 261.37 484.997 261.575 485.143 261.74C485.294 261.905 485.471 262.028 485.677 262.109C485.882 262.19 486.111 262.23 486.364 262.23C486.603 262.23 486.808 262.202 486.98 262.147C487.156 262.092 487.307 262.034 487.431 261.971C487.56 261.905 487.666 261.845 487.75 261.79C487.838 261.735 487.915 261.707 487.981 261.707C488.069 261.707 488.137 261.74 488.185 261.806L488.493 262.202Z" fill="#849AA9"/>
<path d="M536.773 260.25C536.773 260.69 536.718 261.086 536.608 261.438C536.498 261.79 536.337 262.089 536.124 262.334C535.915 262.576 535.653 262.763 535.338 262.895C535.026 263.024 534.667 263.088 534.26 263.088C533.893 263.088 533.515 263.037 533.127 262.934L533.193 262.241C533.2 262.175 533.224 262.122 533.264 262.081C533.308 262.037 533.372 262.015 533.457 262.015C533.519 262.015 533.603 262.032 533.71 262.065C533.82 262.094 533.963 262.109 534.139 262.109C534.373 262.109 534.58 262.074 534.76 262.004C534.943 261.935 535.097 261.827 535.222 261.68C535.347 261.53 535.44 261.339 535.503 261.108C535.569 260.877 535.602 260.6 535.602 260.277V255.102H536.773V260.25ZM543.033 257.412V263H542.39C542.243 263 542.148 262.928 542.104 262.785L542.027 262.224C541.906 262.353 541.779 262.47 541.647 262.576C541.515 262.683 541.374 262.774 541.224 262.851C541.074 262.925 540.914 262.982 540.745 263.022C540.577 263.066 540.395 263.088 540.201 263.088C539.893 263.088 539.622 263.037 539.387 262.934C539.156 262.831 538.962 262.688 538.804 262.505C538.646 262.318 538.527 262.094 538.446 261.834C538.366 261.574 538.325 261.286 538.325 260.97V257.412H539.403V260.97C539.403 261.37 539.495 261.682 539.678 261.905C539.862 262.125 540.142 262.235 540.52 262.235C540.795 262.235 541.052 262.171 541.29 262.043C541.528 261.911 541.752 261.731 541.961 261.504V257.412H543.033ZM545.74 254.882V263H544.662V254.882H545.74ZM552.266 257.412L549.164 264.623C549.131 264.703 549.087 264.766 549.032 264.81C548.977 264.854 548.897 264.876 548.79 264.876H547.993L549.016 262.648L546.722 257.412H547.657C547.749 257.412 547.82 257.434 547.872 257.478C547.923 257.522 547.96 257.571 547.982 257.626L549.401 260.981C549.43 261.066 549.458 261.152 549.483 261.24C549.513 261.324 549.536 261.409 549.555 261.493C549.58 261.405 549.608 261.319 549.637 261.234C549.667 261.146 549.698 261.06 549.731 260.976L551.1 257.626C551.126 257.564 551.166 257.513 551.221 257.473C551.276 257.432 551.339 257.412 551.408 257.412H552.266Z" fill="#849AA9"/>
<path d="M170.151 256.053V258.699H173.319V259.65H170.151V263H168.974V255.102H173.869V256.053H170.151ZM178.301 259.584C178.301 259.372 178.27 259.176 178.208 258.996C178.149 258.816 178.061 258.66 177.944 258.528C177.826 258.396 177.683 258.294 177.515 258.22C177.346 258.147 177.152 258.11 176.932 258.11C176.481 258.11 176.125 258.241 175.865 258.501C175.608 258.761 175.445 259.122 175.375 259.584H178.301ZM179.187 262.202C179.055 262.356 178.903 262.49 178.73 262.604C178.558 262.714 178.375 262.804 178.18 262.873C177.986 262.943 177.784 262.994 177.575 263.028C177.37 263.061 177.166 263.077 176.965 263.077C176.58 263.077 176.222 263.013 175.892 262.884C175.566 262.752 175.282 262.562 175.04 262.312C174.801 262.059 174.614 261.748 174.479 261.377C174.347 261.003 174.281 260.574 174.281 260.09C174.281 259.702 174.341 259.341 174.462 259.007C174.583 258.67 174.756 258.376 174.979 258.127C175.207 257.878 175.483 257.681 175.81 257.538C176.136 257.395 176.503 257.324 176.91 257.324C177.251 257.324 177.564 257.381 177.85 257.494C178.14 257.604 178.389 257.766 178.598 257.978C178.807 258.191 178.97 258.453 179.088 258.765C179.209 259.077 179.269 259.432 179.269 259.832C179.269 259.997 179.251 260.109 179.214 260.167C179.178 260.222 179.11 260.25 179.011 260.25H175.348C175.359 260.584 175.406 260.875 175.491 261.124C175.575 261.37 175.691 261.575 175.837 261.74C175.988 261.905 176.165 262.028 176.371 262.109C176.576 262.19 176.805 262.23 177.058 262.23C177.297 262.23 177.502 262.202 177.674 262.147C177.85 262.092 178.001 262.034 178.125 261.971C178.254 261.905 178.36 261.845 178.444 261.79C178.532 261.735 178.609 261.707 178.675 261.707C178.763 261.707 178.831 261.74 178.879 261.806L179.187 262.202ZM181.605 261.625C181.781 261.856 181.971 262.017 182.177 262.109C182.382 262.201 182.606 262.246 182.848 262.246C183.346 262.246 183.729 262.069 183.997 261.713C184.268 261.357 184.404 260.82 184.404 260.101C184.404 259.438 184.285 258.952 184.047 258.644C183.808 258.332 183.471 258.176 183.035 258.176C182.727 258.176 182.459 258.246 182.232 258.385C182.008 258.525 181.799 258.723 181.605 258.979V261.625ZM181.605 258.182C181.836 257.925 182.098 257.718 182.391 257.56C182.684 257.403 183.018 257.324 183.392 257.324C183.718 257.324 184.012 257.388 184.272 257.516C184.536 257.641 184.76 257.823 184.943 258.061C185.126 258.296 185.268 258.582 185.367 258.919C185.466 259.256 185.515 259.638 185.515 260.063C185.515 260.514 185.458 260.925 185.345 261.295C185.235 261.665 185.075 261.982 184.866 262.246C184.661 262.51 184.41 262.716 184.113 262.862C183.816 263.006 183.482 263.077 183.112 263.077C182.932 263.077 182.767 263.059 182.617 263.022C182.466 262.989 182.327 262.939 182.199 262.873C182.074 262.807 181.958 262.727 181.852 262.631C181.746 262.536 181.645 262.428 181.55 262.307L181.5 262.774C181.471 262.925 181.379 263 181.225 263H180.532V254.882H181.605V258.182ZM187.831 258.484C188.011 258.118 188.227 257.83 188.48 257.621C188.733 257.412 189.037 257.307 189.393 257.307C189.514 257.307 189.628 257.322 189.734 257.351C189.844 257.377 189.939 257.417 190.02 257.473L189.948 258.281C189.923 258.38 189.862 258.429 189.767 258.429C189.716 258.429 189.639 258.42 189.536 258.402C189.433 258.38 189.323 258.369 189.206 258.369C189.034 258.369 188.881 258.395 188.749 258.446C188.617 258.494 188.498 258.567 188.392 258.666C188.289 258.761 188.198 258.88 188.117 259.023C188.036 259.163 187.961 259.322 187.891 259.502V263H186.819V257.412H187.435C187.552 257.412 187.631 257.434 187.671 257.478C187.715 257.518 187.747 257.592 187.765 257.698L187.831 258.484ZM195.605 257.412V263H194.961C194.815 263 194.719 262.928 194.675 262.785L194.598 262.224C194.477 262.353 194.351 262.47 194.219 262.576C194.087 262.683 193.946 262.774 193.795 262.851C193.645 262.925 193.485 262.982 193.317 263.022C193.148 263.066 192.967 263.088 192.772 263.088C192.464 263.088 192.193 263.037 191.958 262.934C191.727 262.831 191.533 262.688 191.375 262.505C191.218 262.318 191.098 262.094 191.018 261.834C190.937 261.574 190.897 261.286 190.897 260.97V257.412H191.975V260.97C191.975 261.37 192.066 261.682 192.25 261.905C192.433 262.125 192.714 262.235 193.091 262.235C193.366 262.235 193.623 262.171 193.861 262.043C194.1 261.911 194.323 261.731 194.532 261.504V257.412H195.605ZM200.215 260.519C199.778 260.534 199.408 260.569 199.104 260.624C198.799 260.675 198.552 260.745 198.361 260.833C198.171 260.921 198.033 261.025 197.949 261.146C197.864 261.264 197.822 261.396 197.822 261.542C197.822 261.682 197.844 261.803 197.888 261.905C197.936 262.004 197.998 262.087 198.075 262.153C198.156 262.215 198.249 262.261 198.356 262.29C198.462 262.32 198.578 262.334 198.702 262.334C198.867 262.334 199.018 262.318 199.153 262.285C199.293 262.252 199.423 262.206 199.544 262.147C199.665 262.085 199.78 262.01 199.89 261.922C200 261.834 200.108 261.733 200.215 261.619V260.519ZM197.069 258.193C197.38 257.896 197.718 257.674 198.081 257.527C198.447 257.381 198.849 257.307 199.285 257.307C199.604 257.307 199.887 257.361 200.132 257.467C200.378 257.57 200.585 257.714 200.754 257.901C200.922 258.088 201.049 258.312 201.133 258.572C201.221 258.833 201.265 259.121 201.265 259.436V263H200.787C200.68 263 200.6 262.983 200.545 262.95C200.49 262.914 200.446 262.848 200.413 262.752L200.297 262.263C200.154 262.395 200.013 262.512 199.874 262.615C199.734 262.714 199.588 262.8 199.434 262.873C199.283 262.943 199.122 262.996 198.95 263.033C198.777 263.07 198.587 263.088 198.378 263.088C198.158 263.088 197.951 263.059 197.756 263C197.566 262.938 197.399 262.844 197.256 262.719C197.113 262.595 196.999 262.439 196.915 262.252C196.834 262.065 196.794 261.847 196.794 261.597C196.794 261.377 196.852 261.167 196.97 260.965C197.091 260.76 197.285 260.576 197.553 260.415C197.824 260.254 198.176 260.122 198.609 260.019C199.045 259.916 199.58 259.858 200.215 259.843V259.436C200.215 259.014 200.125 258.699 199.945 258.49C199.766 258.281 199.502 258.176 199.153 258.176C198.919 258.176 198.721 258.206 198.559 258.264C198.402 258.323 198.264 258.389 198.147 258.462C198.033 258.532 197.932 258.596 197.844 258.655C197.76 258.714 197.672 258.743 197.58 258.743C197.507 258.743 197.443 258.723 197.388 258.682C197.336 258.642 197.294 258.594 197.261 258.539L197.069 258.193ZM203.823 258.484C204.003 258.118 204.219 257.83 204.472 257.621C204.725 257.412 205.029 257.307 205.385 257.307C205.506 257.307 205.62 257.322 205.726 257.351C205.836 257.377 205.931 257.417 206.012 257.473L205.94 258.281C205.915 258.38 205.854 258.429 205.759 258.429C205.708 258.429 205.631 258.42 205.528 258.402C205.425 258.38 205.315 258.369 205.198 258.369C205.026 258.369 204.873 258.395 204.741 258.446C204.609 258.494 204.49 258.567 204.384 258.666C204.281 258.761 204.19 258.88 204.109 259.023C204.028 259.163 203.953 259.322 203.883 259.502V263H202.811V257.412H203.427C203.544 257.412 203.623 257.434 203.663 257.478C203.707 257.518 203.739 257.592 203.757 257.698L203.823 258.484ZM211.833 257.412L208.731 264.623C208.698 264.703 208.654 264.766 208.599 264.81C208.544 264.854 208.464 264.876 208.357 264.876H207.56L208.583 262.648L206.289 257.412H207.224C207.316 257.412 207.387 257.434 207.439 257.478C207.49 257.522 207.527 257.571 207.549 257.626L208.968 260.981C208.997 261.066 209.025 261.152 209.05 261.24C209.08 261.324 209.103 261.409 209.122 261.493C209.147 261.405 209.175 261.319 209.204 261.234C209.234 261.146 209.265 261.06 209.298 260.976L210.667 257.626C210.693 257.564 210.733 257.513 210.788 257.473C210.843 257.432 210.906 257.412 210.975 257.412H211.833Z" fill="#849AA9"/>
<path d="M88.773 259.25C88.773 259.69 88.718 260.086 88.608 260.438C88.498 260.79 88.3367 261.089 88.124 261.334C87.915 261.576 87.6528 261.763 87.3375 261.895C87.0258 262.024 86.6665 262.088 86.2595 262.088C85.8928 262.088 85.5152 262.037 85.1265 261.934L85.1925 261.241C85.1998 261.175 85.2237 261.122 85.264 261.081C85.308 261.037 85.3722 261.015 85.4565 261.015C85.5188 261.015 85.6032 261.032 85.7095 261.065C85.8195 261.094 85.9625 261.109 86.1385 261.109C86.3732 261.109 86.5803 261.074 86.76 261.004C86.9433 260.935 87.0973 260.827 87.222 260.68C87.3467 260.53 87.4402 260.339 87.5025 260.108C87.5685 259.877 87.6015 259.6 87.6015 259.277V254.102H88.773V259.25ZM93.3245 259.519C92.8882 259.534 92.5178 259.569 92.2135 259.624C91.9092 259.675 91.6617 259.745 91.471 259.833C91.2803 259.921 91.1428 260.025 91.0585 260.146C90.9742 260.264 90.932 260.396 90.932 260.542C90.932 260.682 90.954 260.803 90.998 260.905C91.0457 261.004 91.108 261.087 91.185 261.153C91.2657 261.215 91.3592 261.261 91.4655 261.29C91.5718 261.32 91.6873 261.334 91.812 261.334C91.977 261.334 92.1273 261.318 92.263 261.285C92.4023 261.252 92.5325 261.206 92.6535 261.147C92.7745 261.085 92.89 261.01 93 260.922C93.11 260.834 93.2182 260.733 93.3245 260.619V259.519ZM90.1785 257.193C90.4902 256.896 90.8275 256.674 91.1905 256.527C91.5572 256.381 91.9587 256.307 92.395 256.307C92.714 256.307 92.9963 256.361 93.242 256.467C93.4877 256.57 93.6948 256.714 93.8635 256.901C94.0322 257.088 94.1587 257.312 94.243 257.572C94.331 257.833 94.375 258.121 94.375 258.436V262H93.8965C93.7902 262 93.7095 261.983 93.6545 261.95C93.5995 261.914 93.5555 261.848 93.5225 261.752L93.407 261.263C93.264 261.395 93.1228 261.512 92.9835 261.615C92.8442 261.714 92.6975 261.8 92.5435 261.873C92.3932 261.943 92.2318 261.996 92.0595 262.033C91.8872 262.07 91.6965 262.088 91.4875 262.088C91.2675 262.088 91.0603 262.059 90.866 262C90.6753 261.938 90.5085 261.844 90.3655 261.719C90.2225 261.595 90.1088 261.439 90.0245 261.252C89.9438 261.065 89.9035 260.847 89.9035 260.597C89.9035 260.377 89.9622 260.167 90.0795 259.965C90.2005 259.76 90.3948 259.576 90.6625 259.415C90.9338 259.254 91.2858 259.122 91.7185 259.019C92.1548 258.916 92.6902 258.858 93.3245 258.843V258.436C93.3245 258.014 93.2347 257.699 93.055 257.49C92.8753 257.281 92.6113 257.176 92.263 257.176C92.0283 257.176 91.8303 257.206 91.669 257.264C91.5113 257.323 91.3738 257.389 91.2565 257.462C91.1428 257.532 91.042 257.596 90.954 257.655C90.8697 257.714 90.7817 257.743 90.69 257.743C90.6167 257.743 90.5525 257.723 90.4975 257.682C90.4462 257.642 90.404 257.594 90.371 257.539L90.1785 257.193ZM96.9273 257.187C97.0483 257.059 97.1748 256.942 97.3068 256.835C97.4388 256.729 97.5781 256.639 97.7248 256.566C97.8751 256.489 98.0346 256.43 98.2033 256.39C98.3756 256.346 98.5589 256.324 98.7533 256.324C99.0613 256.324 99.3308 256.375 99.5618 256.478C99.7964 256.581 99.9926 256.725 100.15 256.912C100.308 257.096 100.427 257.318 100.508 257.578C100.588 257.838 100.629 258.126 100.629 258.441V262H99.5508V258.441C99.5508 258.042 99.4591 257.732 99.2758 257.512C99.0924 257.288 98.8119 257.176 98.4343 257.176C98.1593 257.176 97.9008 257.242 97.6588 257.374C97.4204 257.503 97.1986 257.679 96.9933 257.902V262H95.9208V256.412H96.5643C96.7146 256.412 96.8081 256.483 96.8448 256.626L96.9273 257.187ZM106.834 256.412V262H106.19C106.043 262 105.948 261.928 105.904 261.785L105.827 261.224C105.706 261.353 105.58 261.47 105.448 261.576C105.316 261.683 105.174 261.774 105.024 261.851C104.874 261.925 104.714 261.982 104.546 262.022C104.377 262.066 104.195 262.088 104.001 262.088C103.693 262.088 103.422 262.037 103.187 261.934C102.956 261.831 102.762 261.688 102.604 261.505C102.446 261.318 102.327 261.094 102.247 260.834C102.166 260.574 102.126 260.286 102.126 259.97V256.412H103.204V259.97C103.204 260.37 103.295 260.682 103.479 260.905C103.662 261.125 103.942 261.235 104.32 261.235C104.595 261.235 104.852 261.171 105.09 261.043C105.328 260.911 105.552 260.731 105.761 260.504V256.412H106.834ZM111.444 259.519C111.007 259.534 110.637 259.569 110.333 259.624C110.028 259.675 109.781 259.745 109.59 259.833C109.399 259.921 109.262 260.025 109.178 260.146C109.093 260.264 109.051 260.396 109.051 260.542C109.051 260.682 109.073 260.803 109.117 260.905C109.165 261.004 109.227 261.087 109.304 261.153C109.385 261.215 109.478 261.261 109.585 261.29C109.691 261.32 109.806 261.334 109.931 261.334C110.096 261.334 110.246 261.318 110.382 261.285C110.521 261.252 110.652 261.206 110.773 261.147C110.894 261.085 111.009 261.01 111.119 260.922C111.229 260.834 111.337 260.733 111.444 260.619V259.519ZM108.298 257.193C108.609 256.896 108.947 256.674 109.31 256.527C109.676 256.381 110.078 256.307 110.514 256.307C110.833 256.307 111.115 256.361 111.361 256.467C111.607 256.57 111.814 256.714 111.983 256.901C112.151 257.088 112.278 257.312 112.362 257.572C112.45 257.833 112.494 258.121 112.494 258.436V262H112.016C111.909 262 111.829 261.983 111.774 261.95C111.719 261.914 111.675 261.848 111.642 261.752L111.526 261.263C111.383 261.395 111.242 261.512 111.103 261.615C110.963 261.714 110.817 261.8 110.663 261.873C110.512 261.943 110.351 261.996 110.179 262.033C110.006 262.07 109.816 262.088 109.607 262.088C109.387 262.088 109.179 262.059 108.985 262C108.794 261.938 108.628 261.844 108.485 261.719C108.342 261.595 108.228 261.439 108.144 261.252C108.063 261.065 108.023 260.847 108.023 260.597C108.023 260.377 108.081 260.167 108.199 259.965C108.32 259.76 108.514 259.576 108.782 259.415C109.053 259.254 109.405 259.122 109.838 259.019C110.274 258.916 110.809 258.858 111.444 258.843V258.436C111.444 258.014 111.354 257.699 111.174 257.49C110.994 257.281 110.73 257.176 110.382 257.176C110.147 257.176 109.949 257.206 109.788 257.264C109.63 257.323 109.493 257.389 109.376 257.462C109.262 257.532 109.161 257.596 109.073 257.655C108.989 257.714 108.901 257.743 108.809 257.743C108.736 257.743 108.672 257.723 108.617 257.682C108.565 257.642 108.523 257.594 108.49 257.539L108.298 257.193ZM115.052 257.484C115.231 257.118 115.448 256.83 115.701 256.621C115.954 256.412 116.258 256.307 116.614 256.307C116.735 256.307 116.848 256.322 116.955 256.351C117.065 256.377 117.16 256.417 117.241 256.473L117.169 257.281C117.144 257.38 117.083 257.429 116.988 257.429C116.936 257.429 116.859 257.42 116.757 257.402C116.654 257.38 116.544 257.369 116.427 257.369C116.254 257.369 116.102 257.395 115.97 257.446C115.838 257.494 115.719 257.567 115.613 257.666C115.51 257.761 115.418 257.88 115.338 258.023C115.257 258.163 115.182 258.322 115.112 258.502V262H114.04V256.412H114.656C114.773 256.412 114.852 256.434 114.892 256.478C114.936 256.518 114.967 256.592 114.986 256.698L115.052 257.484ZM123.062 256.412L119.96 263.623C119.927 263.703 119.883 263.766 119.828 263.81C119.773 263.854 119.692 263.876 119.586 263.876H118.789L119.812 261.648L117.518 256.412H118.453C118.545 256.412 118.616 256.434 118.668 256.478C118.719 256.522 118.756 256.571 118.778 256.626L120.197 259.981C120.226 260.066 120.253 260.152 120.279 260.24C120.308 260.324 120.332 260.409 120.351 260.493C120.376 260.405 120.404 260.319 120.433 260.234C120.462 260.146 120.494 260.06 120.527 259.976L121.896 256.626C121.922 256.564 121.962 256.513 122.017 256.473C122.072 256.432 122.134 256.412 122.204 256.412H123.062Z" fill="#849AA9"/>
<line x1="70" y1="223.399" x2="593" y2="223.399" stroke="#F2F2F2"/>
<line x1="70" y1="191.23" x2="593" y2="191.23" stroke="#F2F2F2"/>
<line x1="70" y1="159.061" x2="593" y2="159.061" stroke="#F2F2F2"/>
<line x1="70" y1="126.892" x2="593" y2="126.892" stroke="#F2F2F2"/>
<line x1="70" y1="94.7222" x2="593" y2="94.7222" stroke="#F2F2F2"/>
<line x1="70" y1="62.5529" x2="593" y2="62.5529" stroke="#F2F2F2"/>
<line x1="105.712" y1="62.0476" x2="105.712" y2="241.995" stroke="#F2F2F2"/>
<line x1="330.446" y1="62.0476" x2="330.446" y2="241.995" stroke="#F2F2F2"/>
<line x1="142.995" y1="62.0476" x2="142.995" y2="241.995" stroke="#F2F2F2"/>
<line x1="368.765" y1="62.0476" x2="368.765" y2="241.995" stroke="#F2F2F2"/>
<line x1="180.278" y1="63.0529" x2="180.278" y2="243" stroke="#F2F2F2"/>
<line x1="406.048" y1="63.0529" x2="406.048" y2="243" stroke="#F2F2F2"/>
<line x1="218.597" y1="63.0529" x2="218.597" y2="243" stroke="#F2F2F2"/>
<line x1="443.332" y1="63.0529" x2="443.332" y2="243" stroke="#F2F2F2"/>
<line x1="255.88" y1="63.0529" x2="255.88" y2="243" stroke="#F2F2F2"/>
<line x1="480.615" y1="63.0529" x2="480.615" y2="243" stroke="#F2F2F2"/>
<line x1="293.164" y1="63.0529" x2="293.164" y2="243" stroke="#F2F2F2"/>
<line x1="556.217" y1="62.0476" x2="556.217" y2="241.995" stroke="#F2F2F2"/>
<line x1="518.934" y1="63.0529" x2="518.934" y2="243" stroke="#F2F2F2"/>
<line x1="70.5" y1="63.0529" x2="70.5" y2="243" stroke="#F2F2F2"/>
<mask id="mask0_1257_2949" style="mask-type:alpha" maskUnits="userSpaceOnUse" x="70" y="53" width="523" height="190">
<rect x="70" y="53" width="523" height="190" fill="white"/>
</mask>
<g mask="url(#mask0_1257_2949)">
<g opacity="0.24">
<path d="M178.514 174.176H142.395C116.938 174.176 124.977 220.059 104.879 220.059C79.7562 220.059 92.15 203.154 67.3625 203.154C42.91 203.758 16.0609 227.303 -8.3916 227.303V243H595.608V64.9247C570.151 64.9247 577.566 90.8617 554.855 90.8617C532.144 90.8617 545.117 73.9574 517.557 73.9574C494.11 73.9574 505.163 101.729 480.041 101.729C454.918 101.729 462.585 111.267 441.148 111.267C417.445 111.267 433.462 90.8617 405.008 90.8617C376.555 90.8616 391.56 111.267 365.678 111.267C338.546 111.267 355.099 115.011 329.976 115.011C302.509 115.011 320.913 144.291 292.795 144.291C261.406 144.291 280.736 179.005 254.944 179.005C229.151 179.005 241.633 159.384 217.427 159.384C191.97 159.384 203.453 174.176 178.514 174.176Z" fill="url(#paint0_linear_1257_2949)"/>
</g>
<line x1="405.536" y1="62.0529" x2="405.536" y2="242.053" stroke="#59A7FF" stroke-dasharray="3 3"/>
<path d="M592.434 64.8273C566.965 64.8273 580.369 90.04 554.901 90.3438C529.432 90.6476 544.939 73.3328 517.367 73.3328C493.909 73.3328 504.968 101.279 479.834 101.279C454.701 101.279 461.364 110.85 439.917 110.85C416.204 110.85 433.235 90.3438 404.768 90.3438C376.302 90.3438 391.314 110.85 365.42 110.85C338.276 110.85 354.836 114.645 329.702 114.645C302.223 114.645 320.635 144.111 292.504 144.111C261.102 144.111 280.44 179.044 254.636 179.044C228.832 179.044 241.319 159.299 217.103 159.299C191.634 159.299 201.612 174.184 176.662 174.184C157.088 174.184 168.846 174.184 142.037 174.184C116.568 174.184 124.611 220.357 104.504 220.357C79.37 220.357 91.7693 203.346 66.9706 203.346C42.5071 203.953 16.8971 226.937 -7.56638 226.937" stroke="#59A7FF" stroke-width="2" stroke-linecap="round" stroke-linejoin="round"/>
<g filter="url(#filter0_d_1257_2949)">
<ellipse rx="8.52277" ry="8.50794" transform="matrix(-1 0 0 1 406.477 88.5079)" fill="#59A7FF"/>
<path d="M399.454 88.5079C399.454 92.3759 402.596 95.5159 406.477 95.5159C410.358 95.5159 413.5 92.3759 413.5 88.5079C413.5 84.64 410.358 81.5 406.477 81.5C402.596 81.5 399.454 84.64 399.454 88.5079Z" stroke="white" stroke-width="3"/>
</g>
</g>
<path d="M37.687 36.047C38.155 36.047 38.572 35.969 38.938 35.813C39.31 35.657 39.622 35.438 39.874 35.156C40.126 34.874 40.318 34.532 40.45 34.13C40.588 33.728 40.657 33.278 40.657 32.78V24.986H43.078V32.78C43.078 33.554 42.952 34.271 42.7 34.931C42.454 35.585 42.097 36.152 41.629 36.632C41.167 37.106 40.603 37.478 39.937 37.748C39.271 38.012 38.521 38.144 37.687 38.144C36.847 38.144 36.094 38.012 35.428 37.748C34.762 37.478 34.195 37.106 33.727 36.632C33.265 36.152 32.908 35.585 32.656 34.931C32.41 34.271 32.287 33.554 32.287 32.78V24.986H34.708V32.771C34.708 33.269 34.774 33.719 34.906 34.121C35.044 34.523 35.239 34.868 35.491 35.156C35.749 35.438 36.061 35.657 36.427 35.813C36.799 35.969 37.219 36.047 37.687 36.047ZM51.2447 30.566C51.1847 30.662 51.1217 30.731 51.0557 30.773C50.9897 30.809 50.9057 30.827 50.8037 30.827C50.6957 30.827 50.5787 30.797 50.4527 30.737C50.3327 30.677 50.1917 30.611 50.0297 30.539C49.8677 30.461 49.6817 30.392 49.4717 30.332C49.2677 30.272 49.0247 30.242 48.7427 30.242C48.3047 30.242 47.9597 30.335 47.7077 30.521C47.4617 30.707 47.3387 30.95 47.3387 31.25C47.3387 31.448 47.4017 31.616 47.5277 31.754C47.6597 31.886 47.8307 32.003 48.0407 32.105C48.2567 32.207 48.4997 32.3 48.7697 32.384C49.0397 32.462 49.3127 32.549 49.5887 32.645C49.8707 32.741 50.1467 32.852 50.4167 32.978C50.6867 33.098 50.9267 33.254 51.1367 33.446C51.3527 33.632 51.5237 33.857 51.6497 34.121C51.7817 34.385 51.8477 34.703 51.8477 35.075C51.8477 35.519 51.7667 35.93 51.6047 36.308C51.4487 36.68 51.2147 37.004 50.9027 37.28C50.5907 37.55 50.2037 37.763 49.7417 37.919C49.2857 38.069 48.7577 38.144 48.1577 38.144C47.8397 38.144 47.5277 38.114 47.2217 38.054C46.9217 38 46.6307 37.922 46.3487 37.82C46.0727 37.718 45.8147 37.598 45.5747 37.46C45.3407 37.322 45.1337 37.172 44.9537 37.01L45.4667 36.164C45.5327 36.062 45.6107 35.984 45.7007 35.93C45.7907 35.876 45.9047 35.849 46.0427 35.849C46.1807 35.849 46.3097 35.888 46.4297 35.966C46.5557 36.044 46.6997 36.128 46.8617 36.218C47.0237 36.308 47.2127 36.392 47.4287 36.47C47.6507 36.548 47.9297 36.587 48.2657 36.587C48.5297 36.587 48.7547 36.557 48.9407 36.497C49.1327 36.431 49.2887 36.347 49.4087 36.245C49.5347 36.143 49.6247 36.026 49.6787 35.894C49.7387 35.756 49.7687 35.615 49.7687 35.471C49.7687 35.255 49.7027 35.078 49.5707 34.94C49.4447 34.802 49.2737 34.682 49.0577 34.58C48.8477 34.478 48.6047 34.388 48.3287 34.31C48.0587 34.226 47.7797 34.136 47.4917 34.04C47.2097 33.944 46.9307 33.833 46.6547 33.707C46.3847 33.575 46.1417 33.41 45.9257 33.212C45.7157 33.014 45.5447 32.771 45.4127 32.483C45.2867 32.195 45.2237 31.847 45.2237 31.439C45.2237 31.061 45.2987 30.701 45.4487 30.359C45.5987 30.017 45.8177 29.72 46.1057 29.468C46.3997 29.21 46.7627 29.006 47.1947 28.856C47.6327 28.7 48.1367 28.622 48.7067 28.622C49.3427 28.622 49.9217 28.727 50.4437 28.937C50.9657 29.147 51.4007 29.423 51.7487 29.765L51.2447 30.566ZM60.0098 32.321C60.0098 32.033 59.9678 31.763 59.8838 31.511C59.8058 31.253 59.6858 31.028 59.5238 30.836C59.3618 30.644 59.1548 30.494 58.9028 30.386C58.6568 30.272 58.3688 30.215 58.0388 30.215C57.3968 30.215 56.8898 30.398 56.5178 30.764C56.1518 31.13 55.9178 31.649 55.8158 32.321H60.0098ZM55.7708 33.662C55.8068 34.136 55.8908 34.547 56.0228 34.895C56.1548 35.237 56.3288 35.522 56.5448 35.75C56.7608 35.972 57.0158 36.14 57.3098 36.254C57.6098 36.362 57.9398 36.416 58.2998 36.416C58.6598 36.416 58.9688 36.374 59.2268 36.29C59.4908 36.206 59.7188 36.113 59.9108 36.011C60.1088 35.909 60.2798 35.816 60.4238 35.732C60.5738 35.648 60.7178 35.606 60.8558 35.606C61.0418 35.606 61.1798 35.675 61.2698 35.813L61.9088 36.623C61.6628 36.911 61.3868 37.154 61.0808 37.352C60.7748 37.544 60.4538 37.7 60.1178 37.82C59.7878 37.934 59.4488 38.015 59.1008 38.063C58.7588 38.111 58.4258 38.135 58.1018 38.135C57.4598 38.135 56.8628 38.03 56.3108 37.82C55.7588 37.604 55.2788 37.289 54.8708 36.875C54.4628 36.455 54.1418 35.939 53.9078 35.327C53.6738 34.709 53.5568 33.995 53.5568 33.185C53.5568 32.555 53.6588 31.964 53.8628 31.412C54.0668 30.854 54.3578 30.371 54.7358 29.963C55.1198 29.549 55.5848 29.222 56.1308 28.982C56.6828 28.742 57.3038 28.622 57.9938 28.622C58.5758 28.622 59.1128 28.715 59.6048 28.901C60.0968 29.087 60.5198 29.36 60.8738 29.72C61.2278 30.074 61.5038 30.512 61.7018 31.034C61.9058 31.55 62.0078 32.141 62.0078 32.807C62.0078 33.143 61.9718 33.371 61.8998 33.491C61.8278 33.605 61.6898 33.662 61.4858 33.662H55.7708ZM66.313 30.368C66.601 29.816 66.943 29.384 67.339 29.072C67.735 28.754 68.203 28.595 68.743 28.595C69.169 28.595 69.511 28.688 69.769 28.874L69.625 30.539C69.595 30.647 69.55 30.725 69.49 30.773C69.436 30.815 69.361 30.836 69.265 30.836C69.175 30.836 69.04 30.821 68.86 30.791C68.686 30.761 68.515 30.746 68.347 30.746C68.101 30.746 67.882 30.782 67.69 30.854C67.498 30.926 67.324 31.031 67.168 31.169C67.018 31.301 66.883 31.463 66.763 31.655C66.649 31.847 66.541 32.066 66.439 32.312V38H64.216V28.766H65.521C65.749 28.766 65.908 28.808 65.998 28.892C66.088 28.97 66.148 29.114 66.178 29.324L66.313 30.368ZM77.0697 30.566C77.0097 30.662 76.9467 30.731 76.8807 30.773C76.8147 30.809 76.7307 30.827 76.6287 30.827C76.5207 30.827 76.4037 30.797 76.2777 30.737C76.1577 30.677 76.0167 30.611 75.8547 30.539C75.6927 30.461 75.5067 30.392 75.2967 30.332C75.0927 30.272 74.8497 30.242 74.5677 30.242C74.1297 30.242 73.7847 30.335 73.5327 30.521C73.2867 30.707 73.1637 30.95 73.1637 31.25C73.1637 31.448 73.2267 31.616 73.3527 31.754C73.4847 31.886 73.6557 32.003 73.8657 32.105C74.0817 32.207 74.3247 32.3 74.5947 32.384C74.8647 32.462 75.1377 32.549 75.4137 32.645C75.6957 32.741 75.9717 32.852 76.2417 32.978C76.5117 33.098 76.7517 33.254 76.9617 33.446C77.1777 33.632 77.3487 33.857 77.4747 34.121C77.6067 34.385 77.6727 34.703 77.6727 35.075C77.6727 35.519 77.5917 35.93 77.4297 36.308C77.2737 36.68 77.0397 37.004 76.7277 37.28C76.4157 37.55 76.0287 37.763 75.5667 37.919C75.1107 38.069 74.5827 38.144 73.9827 38.144C73.6647 38.144 73.3527 38.114 73.0467 38.054C72.7467 38 72.4557 37.922 72.1737 37.82C71.8977 37.718 71.6397 37.598 71.3997 37.46C71.1657 37.322 70.9587 37.172 70.7787 37.01L71.2917 36.164C71.3577 36.062 71.4357 35.984 71.5257 35.93C71.6157 35.876 71.7297 35.849 71.8677 35.849C72.0057 35.849 72.1347 35.888 72.2547 35.966C72.3807 36.044 72.5247 36.128 72.6867 36.218C72.8487 36.308 73.0377 36.392 73.2537 36.47C73.4757 36.548 73.7547 36.587 74.0907 36.587C74.3547 36.587 74.5797 36.557 74.7657 36.497C74.9577 36.431 75.1137 36.347 75.2337 36.245C75.3597 36.143 75.4497 36.026 75.5037 35.894C75.5637 35.756 75.5937 35.615 75.5937 35.471C75.5937 35.255 75.5277 35.078 75.3957 34.94C75.2697 34.802 75.0987 34.682 74.8827 34.58C74.6727 34.478 74.4297 34.388 74.1537 34.31C73.8837 34.226 73.6047 34.136 73.3167 34.04C73.0347 33.944 72.7557 33.833 72.4797 33.707C72.2097 33.575 71.9667 33.41 71.7507 33.212C71.5407 33.014 71.3697 32.771 71.2377 32.483C71.1117 32.195 71.0487 31.847 71.0487 31.439C71.0487 31.061 71.1237 30.701 71.2737 30.359C71.4237 30.017 71.6427 29.72 71.9307 29.468C72.2247 29.21 72.5877 29.006 73.0197 28.856C73.4577 28.7 73.9617 28.622 74.5317 28.622C75.1677 28.622 75.7467 28.727 76.2687 28.937C76.7907 29.147 77.2257 29.423 77.5737 29.765L77.0697 30.566Z" fill="#555555"/>
<path d="M35.0515 226.05C35.4548 225.966 35.8197 225.923 36.146 225.923C36.5567 225.923 36.9197 225.986 37.235 226.11C37.5503 226.231 37.8143 226.4 38.027 226.616C38.2433 226.829 38.4047 227.082 38.511 227.375C38.621 227.665 38.676 227.98 38.676 228.321C38.676 228.739 38.6027 229.119 38.456 229.46C38.3093 229.801 38.1077 230.092 37.851 230.334C37.5943 230.576 37.29 230.763 36.938 230.895C36.5897 231.024 36.2138 231.088 35.8105 231.088C35.5722 231.088 35.3448 231.064 35.1285 231.017C34.9158 230.969 34.716 230.906 34.529 230.829C34.342 230.749 34.1678 230.657 34.0065 230.554C33.8488 230.452 33.7077 230.344 33.583 230.23L33.913 229.768C33.9827 229.665 34.0762 229.614 34.1935 229.614C34.2705 229.614 34.3548 229.643 34.4465 229.702C34.5418 229.757 34.6537 229.819 34.782 229.889C34.9103 229.959 35.0625 230.023 35.2385 230.081C35.4145 230.136 35.6235 230.164 35.8655 230.164C36.1332 230.164 36.3733 230.122 36.586 230.037C36.8023 229.949 36.9838 229.827 37.1305 229.669C37.2808 229.511 37.3945 229.322 37.4715 229.102C37.5522 228.882 37.5925 228.639 37.5925 228.371C37.5925 228.133 37.5577 227.918 37.488 227.727C37.4183 227.537 37.3138 227.374 37.1745 227.238C37.0352 227.102 36.861 227 36.652 226.93C36.443 226.857 36.1992 226.82 35.9205 226.82C35.5318 226.82 35.1175 226.89 34.6775 227.029L34.001 226.831L34.6445 223.102H38.4285V223.569C38.4285 223.723 38.379 223.85 38.28 223.949C38.1847 224.044 38.0233 224.092 37.796 224.092H35.3925L35.0515 226.05ZM45.5519 227.051C45.5519 227.74 45.4767 228.338 45.3264 228.844C45.1797 229.35 44.9762 229.77 44.7159 230.103C44.4592 230.433 44.1549 230.679 43.8029 230.84C43.4545 231.002 43.0787 231.083 42.6754 231.083C42.272 231.083 41.8944 231.002 41.5424 230.84C41.194 230.679 40.8915 230.433 40.6349 230.103C40.3782 229.77 40.1765 229.35 40.0299 228.844C39.8832 228.338 39.8099 227.74 39.8099 227.051C39.8099 226.362 39.8832 225.764 40.0299 225.258C40.1765 224.748 40.3782 224.328 40.6349 223.998C40.8915 223.665 41.194 223.417 41.5424 223.256C41.8944 223.095 42.272 223.014 42.6754 223.014C43.0787 223.014 43.4545 223.095 43.8029 223.256C44.1549 223.417 44.4592 223.665 44.7159 223.998C44.9762 224.328 45.1797 224.748 45.3264 225.258C45.4767 225.764 45.5519 226.362 45.5519 227.051ZM44.4409 227.051C44.4409 226.457 44.3914 225.96 44.2924 225.56C44.197 225.161 44.0669 224.84 43.9019 224.598C43.7405 224.352 43.5535 224.178 43.3409 224.075C43.1282 223.973 42.9064 223.921 42.6754 223.921C42.4444 223.921 42.2225 223.973 42.0099 224.075C41.7972 224.178 41.6084 224.352 41.4434 224.598C41.282 224.84 41.1537 225.161 41.0584 225.56C40.963 225.96 40.9154 226.457 40.9154 227.051C40.9154 227.645 40.963 228.142 41.0584 228.541C41.1537 228.941 41.282 229.262 41.4434 229.504C41.6084 229.746 41.7972 229.918 42.0099 230.021C42.2225 230.124 42.4444 230.175 42.6754 230.175C42.9064 230.175 43.1282 230.124 43.3409 230.021C43.5535 229.918 43.7405 229.746 43.9019 229.504C44.0669 229.262 44.197 228.941 44.2924 228.541C44.3914 228.142 44.4409 227.645 44.4409 227.051ZM48.1267 226.517H48.5117C48.6511 226.517 48.7629 226.501 48.8472 226.468C48.9352 226.431 49.0141 226.371 49.0837 226.286L51.5972 223.366C51.6779 223.267 51.7604 223.199 51.8447 223.162C51.9291 223.122 52.0336 223.102 52.1582 223.102H53.1592L50.2332 226.468C50.1599 226.563 50.0866 226.64 50.0132 226.699C49.9436 226.758 49.8702 226.807 49.7932 226.847C49.9949 226.917 50.1709 227.058 50.3212 227.271L53.3627 231H52.3452C52.2719 231 52.2077 230.994 52.1527 230.983C52.1014 230.972 52.0556 230.958 52.0152 230.939C51.9786 230.917 51.9437 230.892 51.9107 230.862C51.8814 230.833 51.8539 230.798 51.8282 230.758L49.2267 227.678C49.1901 227.63 49.1534 227.59 49.1167 227.557C49.0801 227.524 49.0379 227.498 48.9902 227.48C48.9426 227.458 48.8876 227.443 48.8252 227.436C48.7629 227.425 48.6896 227.419 48.6052 227.419H48.1267V231H46.9552V223.102H48.1267V226.517Z" fill="#849AA9"/>
<path d="M38.621 190.18V191H34.353V190.18H36.025V185.005C36.025 184.84 36.0305 184.669 36.0415 184.493L34.6995 185.632C34.6482 185.672 34.5968 185.698 34.5455 185.709C34.4942 185.72 34.4447 185.722 34.397 185.714C34.353 185.707 34.3127 185.692 34.276 185.67C34.243 185.645 34.2155 185.619 34.1935 185.593L33.858 185.126L36.223 183.085H37.0975V190.18H38.621ZM45.5519 187.051C45.5519 187.74 45.4767 188.338 45.3264 188.844C45.1797 189.35 44.9762 189.77 44.7159 190.103C44.4592 190.433 44.1549 190.679 43.8029 190.84C43.4545 191.002 43.0787 191.083 42.6754 191.083C42.272 191.083 41.8944 191.002 41.5424 190.84C41.194 190.679 40.8915 190.433 40.6349 190.103C40.3782 189.77 40.1765 189.35 40.0299 188.844C39.8832 188.338 39.8099 187.74 39.8099 187.051C39.8099 186.362 39.8832 185.764 40.0299 185.258C40.1765 184.748 40.3782 184.328 40.6349 183.998C40.8915 183.665 41.194 183.417 41.5424 183.256C41.8944 183.095 42.272 183.014 42.6754 183.014C43.0787 183.014 43.4545 183.095 43.8029 183.256C44.1549 183.417 44.4592 183.665 44.7159 183.998C44.9762 184.328 45.1797 184.748 45.3264 185.258C45.4767 185.764 45.5519 186.362 45.5519 187.051ZM44.4409 187.051C44.4409 186.457 44.3914 185.96 44.2924 185.56C44.197 185.161 44.0669 184.84 43.9019 184.598C43.7405 184.352 43.5535 184.178 43.3409 184.075C43.1282 183.973 42.9064 183.921 42.6754 183.921C42.4444 183.921 42.2225 183.973 42.0099 184.075C41.7972 184.178 41.6084 184.352 41.4434 184.598C41.282 184.84 41.1537 185.161 41.0584 185.56C40.963 185.96 40.9154 186.457 40.9154 187.051C40.9154 187.645 40.963 188.142 41.0584 188.541C41.1537 188.941 41.282 189.262 41.4434 189.504C41.6084 189.746 41.7972 189.918 42.0099 190.021C42.2225 190.124 42.4444 190.175 42.6754 190.175C42.9064 190.175 43.1282 190.124 43.3409 190.021C43.5535 189.918 43.7405 189.746 43.9019 189.504C44.0669 189.262 44.197 188.941 44.2924 188.541C44.3914 188.142 44.4409 187.645 44.4409 187.051ZM52.0427 187.051C52.0427 187.74 51.9676 188.338 51.8172 188.844C51.6706 189.35 51.4671 189.77 51.2067 190.103C50.9501 190.433 50.6457 190.679 50.2937 190.84C49.9454 191.002 49.5696 191.083 49.1662 191.083C48.7629 191.083 48.3852 191.002 48.0332 190.84C47.6849 190.679 47.3824 190.433 47.1257 190.103C46.8691 189.77 46.6674 189.35 46.5207 188.844C46.3741 188.338 46.3007 187.74 46.3007 187.051C46.3007 186.362 46.3741 185.764 46.5207 185.258C46.6674 184.748 46.8691 184.328 47.1257 183.998C47.3824 183.665 47.6849 183.417 48.0332 183.256C48.3852 183.095 48.7629 183.014 49.1662 183.014C49.5696 183.014 49.9454 183.095 50.2937 183.256C50.6457 183.417 50.9501 183.665 51.2067 183.998C51.4671 184.328 51.6706 184.748 51.8172 185.258C51.9676 185.764 52.0427 186.362 52.0427 187.051ZM50.9317 187.051C50.9317 186.457 50.8822 185.96 50.7832 185.56C50.6879 185.161 50.5577 184.84 50.3927 184.598C50.2314 184.352 50.0444 184.178 49.8317 184.075C49.6191 183.973 49.3972 183.921 49.1662 183.921C48.9352 183.921 48.7134 183.973 48.5007 184.075C48.2881 184.178 48.0992 184.352 47.9342 184.598C47.7729 184.84 47.6446 185.161 47.5492 185.56C47.4539 185.96 47.4062 186.457 47.4062 187.051C47.4062 187.645 47.4539 188.142 47.5492 188.541C47.6446 188.941 47.7729 189.262 47.9342 189.504C48.0992 189.746 48.2881 189.918 48.5007 190.021C48.7134 190.124 48.9352 190.175 49.1662 190.175C49.3972 190.175 49.6191 190.124 49.8317 190.021C50.0444 189.918 50.2314 189.746 50.3927 189.504C50.5577 189.262 50.6879 188.941 50.7832 188.541C50.8822 188.142 50.9317 187.645 50.9317 187.051ZM54.6176 186.517H55.0026C55.1419 186.517 55.2537 186.501 55.3381 186.468C55.4261 186.431 55.5049 186.371 55.5746 186.286L58.0881 183.366C58.1687 183.267 58.2512 183.199 58.3356 183.162C58.4199 183.122 58.5244 183.102 58.6491 183.102H59.6501L56.7241 186.468C56.6507 186.563 56.5774 186.64 56.5041 186.699C56.4344 186.758 56.3611 186.807 56.2841 186.847C56.4857 186.917 56.6617 187.058 56.8121 187.271L59.8536 191H58.8361C58.7627 191 58.6986 190.994 58.6436 190.983C58.5922 190.972 58.5464 190.958 58.5061 190.939C58.4694 190.917 58.4346 190.892 58.4016 190.862C58.3722 190.833 58.3447 190.798 58.3191 190.758L55.7176 187.678C55.6809 187.63 55.6442 187.59 55.6076 187.557C55.5709 187.524 55.5287 187.498 55.4811 187.48C55.4334 187.458 55.3784 187.443 55.3161 187.436C55.2537 187.425 55.1804 187.419 55.0961 187.419H54.6176V191H53.4461V183.102H54.6176V186.517Z" fill="#849AA9"/>
<path d="M38.621 150.18V151H34.353V150.18H36.025V145.005C36.025 144.84 36.0305 144.669 36.0415 144.493L34.6995 145.632C34.6482 145.672 34.5968 145.698 34.5455 145.709C34.4942 145.72 34.4447 145.722 34.397 145.714C34.353 145.707 34.3127 145.692 34.276 145.67C34.243 145.645 34.2155 145.619 34.1935 145.593L33.858 145.126L36.223 143.085H37.0975V150.18H38.621ZM41.5424 146.05C41.9457 145.966 42.3105 145.923 42.6369 145.923C43.0475 145.923 43.4105 145.986 43.7259 146.11C44.0412 146.231 44.3052 146.4 44.5179 146.616C44.7342 146.829 44.8955 147.082 45.0019 147.375C45.1119 147.665 45.1669 147.98 45.1669 148.321C45.1669 148.739 45.0935 149.119 44.9469 149.46C44.8002 149.801 44.5985 150.092 44.3419 150.334C44.0852 150.576 43.7809 150.763 43.4289 150.895C43.0805 151.024 42.7047 151.088 42.3014 151.088C42.063 151.088 41.8357 151.064 41.6194 151.017C41.4067 150.969 41.2069 150.906 41.0199 150.829C40.8329 150.749 40.6587 150.657 40.4974 150.554C40.3397 150.452 40.1985 150.344 40.0739 150.23L40.4039 149.768C40.4735 149.665 40.567 149.614 40.6844 149.614C40.7614 149.614 40.8457 149.643 40.9374 149.702C41.0327 149.757 41.1445 149.819 41.2729 149.889C41.4012 149.959 41.5534 150.023 41.7294 150.081C41.9054 150.136 42.1144 150.164 42.3564 150.164C42.624 150.164 42.8642 150.122 43.0769 150.037C43.2932 149.949 43.4747 149.827 43.6214 149.669C43.7717 149.511 43.8854 149.322 43.9624 149.102C44.043 148.882 44.0834 148.639 44.0834 148.371C44.0834 148.133 44.0485 147.918 43.9789 147.727C43.9092 147.537 43.8047 147.374 43.6654 147.238C43.526 147.102 43.3519 147 43.1429 146.93C42.9339 146.857 42.69 146.82 42.4114 146.82C42.0227 146.82 41.6084 146.89 41.1684 147.029L40.4919 146.831L41.1354 143.102H44.9194V143.569C44.9194 143.723 44.8699 143.85 44.7709 143.949C44.6755 144.044 44.5142 144.092 44.2869 144.092H41.8834L41.5424 146.05ZM52.0427 147.051C52.0427 147.74 51.9676 148.338 51.8172 148.844C51.6706 149.35 51.4671 149.77 51.2067 150.103C50.9501 150.433 50.6457 150.679 50.2937 150.84C49.9454 151.002 49.5696 151.083 49.1662 151.083C48.7629 151.083 48.3852 151.002 48.0332 150.84C47.6849 150.679 47.3824 150.433 47.1257 150.103C46.8691 149.77 46.6674 149.35 46.5207 148.844C46.3741 148.338 46.3007 147.74 46.3007 147.051C46.3007 146.362 46.3741 145.764 46.5207 145.258C46.6674 144.748 46.8691 144.328 47.1257 143.998C47.3824 143.665 47.6849 143.417 48.0332 143.256C48.3852 143.095 48.7629 143.014 49.1662 143.014C49.5696 143.014 49.9454 143.095 50.2937 143.256C50.6457 143.417 50.9501 143.665 51.2067 143.998C51.4671 144.328 51.6706 144.748 51.8172 145.258C51.9676 145.764 52.0427 146.362 52.0427 147.051ZM50.9317 147.051C50.9317 146.457 50.8822 145.96 50.7832 145.56C50.6879 145.161 50.5577 144.84 50.3927 144.598C50.2314 144.352 50.0444 144.178 49.8317 144.075C49.6191 143.973 49.3972 143.921 49.1662 143.921C48.9352 143.921 48.7134 143.973 48.5007 144.075C48.2881 144.178 48.0992 144.352 47.9342 144.598C47.7729 144.84 47.6446 145.161 47.5492 145.56C47.4539 145.96 47.4062 146.457 47.4062 147.051C47.4062 147.645 47.4539 148.142 47.5492 148.541C47.6446 148.941 47.7729 149.262 47.9342 149.504C48.0992 149.746 48.2881 149.918 48.5007 150.021C48.7134 150.124 48.9352 150.175 49.1662 150.175C49.3972 150.175 49.6191 150.124 49.8317 150.021C50.0444 149.918 50.2314 149.746 50.3927 149.504C50.5577 149.262 50.6879 148.941 50.7832 148.541C50.8822 148.142 50.9317 147.645 50.9317 147.051ZM54.6176 146.517H55.0026C55.1419 146.517 55.2537 146.501 55.3381 146.468C55.4261 146.431 55.5049 146.371 55.5746 146.286L58.0881 143.366C58.1687 143.267 58.2512 143.199 58.3356 143.162C58.4199 143.122 58.5244 143.102 58.6491 143.102H59.6501L56.7241 146.468C56.6507 146.563 56.5774 146.64 56.5041 146.699C56.4344 146.758 56.3611 146.807 56.2841 146.847C56.4857 146.917 56.6617 147.058 56.8121 147.271L59.8536 151H58.8361C58.7627 151 58.6986 150.994 58.6436 150.983C58.5922 150.972 58.5464 150.958 58.5061 150.939C58.4694 150.917 58.4346 150.892 58.4016 150.862C58.3722 150.833 58.3447 150.798 58.3191 150.758L55.7176 147.678C55.6809 147.63 55.6442 147.59 55.6076 147.557C55.5709 147.524 55.5287 147.498 55.4811 147.48C55.4334 147.458 55.3784 147.443 55.3161 147.436C55.2537 147.425 55.1804 147.419 55.0961 147.419H54.6176V151H53.4461V143.102H54.6176V146.517Z" fill="#849AA9"/>
<path d="M38.423 109.982C38.5403 109.982 38.632 110.017 38.698 110.087C38.764 110.153 38.797 110.241 38.797 110.351V111H33.495V110.631C33.495 110.558 33.5097 110.481 33.539 110.4C33.5683 110.316 33.6178 110.241 33.6875 110.175L36.1845 107.672C36.3935 107.463 36.5823 107.262 36.751 107.067C36.9197 106.873 37.0627 106.681 37.18 106.49C37.2973 106.296 37.3872 106.098 37.4495 105.896C37.5155 105.694 37.5485 105.482 37.5485 105.258C37.5485 105.038 37.5137 104.845 37.444 104.68C37.3743 104.512 37.279 104.372 37.158 104.262C37.037 104.152 36.894 104.07 36.729 104.015C36.564 103.96 36.3862 103.932 36.1955 103.932C36.0048 103.932 35.8288 103.96 35.6675 104.015C35.5098 104.07 35.3687 104.147 35.244 104.246C35.1193 104.345 35.0148 104.462 34.9305 104.598C34.8462 104.734 34.7857 104.88 34.749 105.038C34.6977 105.177 34.6317 105.271 34.551 105.319C34.474 105.366 34.3603 105.377 34.21 105.351L33.649 105.252C33.7003 104.886 33.8012 104.563 33.9515 104.284C34.1018 104.006 34.2907 103.773 34.518 103.586C34.7453 103.395 35.0057 103.252 35.299 103.157C35.596 103.062 35.915 103.014 36.256 103.014C36.6007 103.014 36.9178 103.065 37.2075 103.168C37.5008 103.267 37.7538 103.412 37.9665 103.602C38.1792 103.793 38.346 104.026 38.467 104.301C38.588 104.572 38.6485 104.88 38.6485 105.225C38.6485 105.518 38.6045 105.791 38.5165 106.044C38.4322 106.294 38.3148 106.532 38.1645 106.759C38.0178 106.987 37.8455 107.209 37.6475 107.425C37.4532 107.638 37.246 107.854 37.026 108.074L35.024 110.12C35.178 110.08 35.332 110.047 35.486 110.021C35.6437 109.995 35.7922 109.982 35.9315 109.982H38.423ZM45.5519 107.051C45.5519 107.74 45.4767 108.338 45.3264 108.844C45.1797 109.35 44.9762 109.77 44.7159 110.103C44.4592 110.433 44.1549 110.679 43.8029 110.84C43.4545 111.002 43.0787 111.083 42.6754 111.083C42.272 111.083 41.8944 111.002 41.5424 110.84C41.194 110.679 40.8915 110.433 40.6349 110.103C40.3782 109.77 40.1765 109.35 40.0299 108.844C39.8832 108.338 39.8099 107.74 39.8099 107.051C39.8099 106.362 39.8832 105.764 40.0299 105.258C40.1765 104.748 40.3782 104.328 40.6349 103.998C40.8915 103.665 41.194 103.417 41.5424 103.256C41.8944 103.095 42.272 103.014 42.6754 103.014C43.0787 103.014 43.4545 103.095 43.8029 103.256C44.1549 103.417 44.4592 103.665 44.7159 103.998C44.9762 104.328 45.1797 104.748 45.3264 105.258C45.4767 105.764 45.5519 106.362 45.5519 107.051ZM44.4409 107.051C44.4409 106.457 44.3914 105.96 44.2924 105.56C44.197 105.161 44.0669 104.84 43.9019 104.598C43.7405 104.352 43.5535 104.178 43.3409 104.075C43.1282 103.973 42.9064 103.921 42.6754 103.921C42.4444 103.921 42.2225 103.973 42.0099 104.075C41.7972 104.178 41.6084 104.352 41.4434 104.598C41.282 104.84 41.1537 105.161 41.0584 105.56C40.963 105.96 40.9154 106.457 40.9154 107.051C40.9154 107.645 40.963 108.142 41.0584 108.541C41.1537 108.941 41.282 109.262 41.4434 109.504C41.6084 109.746 41.7972 109.918 42.0099 110.021C42.2225 110.124 42.4444 110.175 42.6754 110.175C42.9064 110.175 43.1282 110.124 43.3409 110.021C43.5535 109.918 43.7405 109.746 43.9019 109.504C44.0669 109.262 44.197 108.941 44.2924 108.541C44.3914 108.142 44.4409 107.645 44.4409 107.051ZM52.0427 107.051C52.0427 107.74 51.9676 108.338 51.8172 108.844C51.6706 109.35 51.4671 109.77 51.2067 110.103C50.9501 110.433 50.6457 110.679 50.2937 110.84C49.9454 111.002 49.5696 111.083 49.1662 111.083C48.7629 111.083 48.3852 111.002 48.0332 110.84C47.6849 110.679 47.3824 110.433 47.1257 110.103C46.8691 109.77 46.6674 109.35 46.5207 108.844C46.3741 108.338 46.3007 107.74 46.3007 107.051C46.3007 106.362 46.3741 105.764 46.5207 105.258C46.6674 104.748 46.8691 104.328 47.1257 103.998C47.3824 103.665 47.6849 103.417 48.0332 103.256C48.3852 103.095 48.7629 103.014 49.1662 103.014C49.5696 103.014 49.9454 103.095 50.2937 103.256C50.6457 103.417 50.9501 103.665 51.2067 103.998C51.4671 104.328 51.6706 104.748 51.8172 105.258C51.9676 105.764 52.0427 106.362 52.0427 107.051ZM50.9317 107.051C50.9317 106.457 50.8822 105.96 50.7832 105.56C50.6879 105.161 50.5577 104.84 50.3927 104.598C50.2314 104.352 50.0444 104.178 49.8317 104.075C49.6191 103.973 49.3972 103.921 49.1662 103.921C48.9352 103.921 48.7134 103.973 48.5007 104.075C48.2881 104.178 48.0992 104.352 47.9342 104.598C47.7729 104.84 47.6446 105.161 47.5492 105.56C47.4539 105.96 47.4062 106.457 47.4062 107.051C47.4062 107.645 47.4539 108.142 47.5492 108.541C47.6446 108.941 47.7729 109.262 47.9342 109.504C48.0992 109.746 48.2881 109.918 48.5007 110.021C48.7134 110.124 48.9352 110.175 49.1662 110.175C49.3972 110.175 49.6191 110.124 49.8317 110.021C50.0444 109.918 50.2314 109.746 50.3927 109.504C50.5577 109.262 50.6879 108.941 50.7832 108.541C50.8822 108.142 50.9317 107.645 50.9317 107.051ZM54.6176 106.517H55.0026C55.1419 106.517 55.2537 106.501 55.3381 106.468C55.4261 106.431 55.5049 106.371 55.5746 106.286L58.0881 103.366C58.1687 103.267 58.2512 103.199 58.3356 103.162C58.4199 103.122 58.5244 103.102 58.6491 103.102H59.6501L56.7241 106.468C56.6507 106.563 56.5774 106.64 56.5041 106.699C56.4344 106.758 56.3611 106.807 56.2841 106.847C56.4857 106.917 56.6617 107.058 56.8121 107.271L59.8536 111H58.8361C58.7627 111 58.6986 110.994 58.6436 110.983C58.5922 110.972 58.5464 110.958 58.5061 110.939C58.4694 110.917 58.4346 110.892 58.4016 110.862C58.3722 110.833 58.3447 110.798 58.3191 110.758L55.7176 107.678C55.6809 107.63 55.6442 107.59 55.6076 107.557C55.5709 107.524 55.5287 107.498 55.4811 107.48C55.4334 107.458 55.3784 107.443 55.3161 107.436C55.2537 107.425 55.1804 107.419 55.0961 107.419H54.6176V111H53.4461V103.102H54.6176V106.517Z" fill="#849AA9"/>
<path d="M38.423 69.9825C38.5403 69.9825 38.632 70.0173 38.698 70.087C38.764 70.153 38.797 70.241 38.797 70.351V71H33.495V70.6315C33.495 70.5582 33.5097 70.4812 33.539 70.4005C33.5683 70.3162 33.6178 70.241 33.6875 70.175L36.1845 67.6725C36.3935 67.4635 36.5823 67.2618 36.751 67.0675C36.9197 66.8732 37.0627 66.6807 37.18 66.49C37.2973 66.2957 37.3872 66.0977 37.4495 65.896C37.5155 65.6943 37.5485 65.4817 37.5485 65.258C37.5485 65.038 37.5137 64.8455 37.444 64.6805C37.3743 64.5118 37.279 64.3725 37.158 64.2625C37.037 64.1525 36.894 64.07 36.729 64.015C36.564 63.96 36.3862 63.9325 36.1955 63.9325C36.0048 63.9325 35.8288 63.96 35.6675 64.015C35.5098 64.07 35.3687 64.147 35.244 64.246C35.1193 64.345 35.0148 64.4623 34.9305 64.598C34.8462 64.7337 34.7857 64.8803 34.749 65.038C34.6977 65.1773 34.6317 65.2708 34.551 65.3185C34.474 65.3662 34.3603 65.3772 34.21 65.3515L33.649 65.2525C33.7003 64.8858 33.8012 64.5632 33.9515 64.2845C34.1018 64.0058 34.2907 63.773 34.518 63.586C34.7453 63.3953 35.0057 63.2523 35.299 63.157C35.596 63.0617 35.915 63.014 36.256 63.014C36.6007 63.014 36.9178 63.0653 37.2075 63.168C37.5008 63.267 37.7538 63.4118 37.9665 63.6025C38.1792 63.7932 38.346 64.026 38.467 64.301C38.588 64.5723 38.6485 64.8803 38.6485 65.225C38.6485 65.5183 38.6045 65.7915 38.5165 66.0445C38.4322 66.2938 38.3148 66.5322 38.1645 66.7595C38.0178 66.9868 37.8455 67.2087 37.6475 67.425C37.4532 67.6377 37.246 67.854 37.026 68.074L35.024 70.12C35.178 70.0797 35.332 70.0467 35.486 70.021C35.6437 69.9953 35.7922 69.9825 35.9315 69.9825H38.423ZM41.5424 66.05C41.9457 65.9657 42.3105 65.9235 42.6369 65.9235C43.0475 65.9235 43.4105 65.9858 43.7259 66.1105C44.0412 66.2315 44.3052 66.4002 44.5179 66.6165C44.7342 66.8292 44.8955 67.0822 45.0019 67.3755C45.1119 67.6652 45.1669 67.9805 45.1669 68.3215C45.1669 68.7395 45.0935 69.119 44.9469 69.46C44.8002 69.801 44.5985 70.0925 44.3419 70.3345C44.0852 70.5765 43.7809 70.7635 43.4289 70.8955C43.0805 71.0238 42.7047 71.088 42.3014 71.088C42.063 71.088 41.8357 71.0642 41.6194 71.0165C41.4067 70.9688 41.2069 70.9065 41.0199 70.8295C40.8329 70.7488 40.6587 70.6572 40.4974 70.5545C40.3397 70.4518 40.1985 70.3437 40.0739 70.23L40.4039 69.768C40.4735 69.6653 40.567 69.614 40.6844 69.614C40.7614 69.614 40.8457 69.6433 40.9374 69.702C41.0327 69.757 41.1445 69.8193 41.2729 69.889C41.4012 69.9587 41.5534 70.0228 41.7294 70.0815C41.9054 70.1365 42.1144 70.164 42.3564 70.164C42.624 70.164 42.8642 70.1218 43.0769 70.0375C43.2932 69.9495 43.4747 69.8267 43.6214 69.669C43.7717 69.5113 43.8854 69.3225 43.9624 69.1025C44.043 68.8825 44.0834 68.6387 44.0834 68.371C44.0834 68.1327 44.0485 67.9182 43.9789 67.7275C43.9092 67.5368 43.8047 67.3737 43.6654 67.238C43.526 67.1023 43.3519 66.9997 43.1429 66.93C42.9339 66.8567 42.69 66.82 42.4114 66.82C42.0227 66.82 41.6084 66.8897 41.1684 67.029L40.4919 66.831L41.1354 63.102H44.9194V63.5695C44.9194 63.7235 44.8699 63.85 44.7709 63.949C44.6755 64.0443 44.5142 64.092 44.2869 64.092H41.8834L41.5424 66.05ZM52.0427 67.051C52.0427 67.7403 51.9676 68.338 51.8172 68.844C51.6706 69.35 51.4671 69.7698 51.2067 70.1035C50.9501 70.4335 50.6457 70.6792 50.2937 70.8405C49.9454 71.0018 49.5696 71.0825 49.1662 71.0825C48.7629 71.0825 48.3852 71.0018 48.0332 70.8405C47.6849 70.6792 47.3824 70.4335 47.1257 70.1035C46.8691 69.7698 46.6674 69.35 46.5207 68.844C46.3741 68.338 46.3007 67.7403 46.3007 67.051C46.3007 66.3617 46.3741 65.764 46.5207 65.258C46.6674 64.7483 46.8691 64.3285 47.1257 63.9985C47.3824 63.6648 47.6849 63.4173 48.0332 63.256C48.3852 63.0947 48.7629 63.014 49.1662 63.014C49.5696 63.014 49.9454 63.0947 50.2937 63.256C50.6457 63.4173 50.9501 63.6648 51.2067 63.9985C51.4671 64.3285 51.6706 64.7483 51.8172 65.258C51.9676 65.764 52.0427 66.3617 52.0427 67.051ZM50.9317 67.051C50.9317 66.457 50.8822 65.9602 50.7832 65.5605C50.6879 65.1608 50.5577 64.84 50.3927 64.598C50.2314 64.3523 50.0444 64.1782 49.8317 64.0755C49.6191 63.9728 49.3972 63.9215 49.1662 63.9215C48.9352 63.9215 48.7134 63.9728 48.5007 64.0755C48.2881 64.1782 48.0992 64.3523 47.9342 64.598C47.7729 64.84 47.6446 65.1608 47.5492 65.5605C47.4539 65.9602 47.4062 66.457 47.4062 67.051C47.4062 67.645 47.4539 68.1418 47.5492 68.5415C47.6446 68.9412 47.7729 69.262 47.9342 69.504C48.0992 69.746 48.2881 69.9183 48.5007 70.021C48.7134 70.1237 48.9352 70.175 49.1662 70.175C49.3972 70.175 49.6191 70.1237 49.8317 70.021C50.0444 69.9183 50.2314 69.746 50.3927 69.504C50.5577 69.262 50.6879 68.9412 50.7832 68.5415C50.8822 68.1418 50.9317 67.645 50.9317 67.051ZM54.6176 66.5175H55.0026C55.1419 66.5175 55.2537 66.501 55.3381 66.468C55.4261 66.4313 55.5049 66.3708 55.5746 66.2865L58.0881 63.366C58.1687 63.267 58.2512 63.1992 58.3356 63.1625C58.4199 63.1222 58.5244 63.102 58.6491 63.102H59.6501L56.7241 66.468C56.6507 66.5633 56.5774 66.6403 56.5041 66.699C56.4344 66.7577 56.3611 66.8072 56.2841 66.8475C56.4857 66.9172 56.6617 67.0583 56.8121 67.271L59.8536 71H58.8361C58.7627 71 58.6986 70.9945 58.6436 70.9835C58.5922 70.9725 58.5464 70.9578 58.5061 70.9395C58.4694 70.9175 58.4346 70.8918 58.4016 70.8625C58.3722 70.8332 58.3447 70.7983 58.3191 70.758L55.7176 67.678C55.6809 67.6303 55.6442 67.59 55.6076 67.557C55.5709 67.524 55.5287 67.4983 55.4811 67.48C55.4334 67.458 55.3784 67.4433 55.3161 67.436C55.2537 67.425 55.1804 67.4195 55.0961 67.4195H54.6176V71H53.4461V63.102H54.6176V66.5175Z" fill="#849AA9"/>
<g filter="url(#filter1_d_1257_2949)">
<path d="M381.5 48C381.5 43.286 381.5 40.9289 382.964 39.4645C384.429 38 386.786 38 391.5 38H419.5C424.214 38 426.571 38 428.036 39.4645C429.5 40.9289 429.5 43.286 429.5 48V52C429.5 56.714 429.5 59.0711 428.036 60.5355C426.571 62 424.214 62 419.5 62H391.5C386.786 62 384.429 62 382.964 60.5355C381.5 59.0711 381.5 56.714 381.5 52V48Z" fill="#555555"/>
<path d="M397.374 50.81H395.24V53.076H394.135V50.81H392.012V49.8035H394.135V47.5485H395.24V49.8035H397.374V50.81ZM403.903 52.9825V54H399.503V52.9825H401.115V48.346C401.115 48.1627 401.12 47.9738 401.131 47.7795L399.987 48.7365C399.921 48.7878 399.855 48.8208 399.789 48.8355C399.727 48.8465 399.667 48.8465 399.608 48.8355C399.553 48.8245 399.503 48.8062 399.459 48.7805C399.415 48.7512 399.382 48.72 399.36 48.687L398.931 48.0985L401.357 46.036H402.473V52.9825H403.903ZM411.027 50.0235C411.027 50.7165 410.952 51.3197 410.801 51.833C410.655 52.3427 410.449 52.7643 410.185 53.098C409.925 53.4317 409.615 53.681 409.256 53.846C408.9 54.0073 408.515 54.088 408.101 54.088C407.686 54.088 407.301 54.0073 406.946 53.846C406.594 53.681 406.288 53.4317 406.027 53.098C405.767 52.7643 405.563 52.3427 405.417 51.833C405.27 51.3197 405.197 50.7165 405.197 50.0235C405.197 49.3268 405.27 48.7237 405.417 48.214C405.563 47.7043 405.767 47.2827 406.027 46.949C406.288 46.6153 406.594 46.3678 406.946 46.2065C407.301 46.0415 407.686 45.959 408.101 45.959C408.515 45.959 408.9 46.0415 409.256 46.2065C409.615 46.3678 409.925 46.6153 410.185 46.949C410.449 47.2827 410.655 47.7043 410.801 48.214C410.952 48.7237 411.027 49.3268 411.027 50.0235ZM409.624 50.0235C409.624 49.4478 409.582 48.9712 409.498 48.5935C409.413 48.2158 409.3 47.9152 409.157 47.6915C409.017 47.4678 408.856 47.312 408.673 47.224C408.489 47.1323 408.299 47.0865 408.101 47.0865C407.906 47.0865 407.718 47.1323 407.534 47.224C407.355 47.312 407.195 47.4678 407.056 47.6915C406.916 47.9152 406.805 48.2158 406.72 48.5935C406.64 48.9712 406.599 49.4478 406.599 50.0235C406.599 50.5992 406.64 51.0758 406.72 51.4535C406.805 51.8312 406.916 52.1318 407.056 52.3555C407.195 52.5792 407.355 52.7368 407.534 52.8285C407.718 52.9165 407.906 52.9605 408.101 52.9605C408.299 52.9605 408.489 52.9165 408.673 52.8285C408.856 52.7368 409.017 52.5792 409.157 52.3555C409.3 52.1318 409.413 51.8312 409.498 51.4535C409.582 51.0758 409.624 50.5992 409.624 50.0235ZM413.998 49.38H414.344C414.483 49.38 414.599 49.3617 414.691 49.325C414.782 49.2847 414.861 49.2223 414.927 49.138L417.122 46.3605C417.213 46.2432 417.309 46.1625 417.408 46.1185C417.51 46.0708 417.639 46.047 417.793 46.047H419.069L416.39 49.3525C416.232 49.5542 416.069 49.6972 415.901 49.7815C416.022 49.8255 416.13 49.8878 416.225 49.9685C416.324 50.0455 416.418 50.1482 416.506 50.2765L419.267 54H417.963C417.787 54 417.655 53.9762 417.567 53.9285C417.483 53.8772 417.411 53.8038 417.353 53.7085L415.103 50.7715C415.033 50.6725 414.953 50.6028 414.861 50.5625C414.769 50.5222 414.637 50.502 414.465 50.502H413.998V54H412.518V46.047H413.998V49.38Z" fill="white"/>
</g>
<g filter="url(#filter2_d_1257_2949)">
<path d="M406 67L400.804 61H411.196L406 67Z" fill="#555555"/>
</g>
<defs>
<filter id="filter0_d_1257_2949" x="394.955" y="80" width="23.0454" height="23.0159" filterUnits="userSpaceOnUse" color-interpolation-filters="sRGB">
<feFlood flood-opacity="0" result="BackgroundImageFix"/>
<feColorMatrix in="SourceAlpha" type="matrix" values="0 0 0 0 0 0 0 0 0 0 0 0 0 0 0 0 0 0 127 0" result="hardAlpha"/>
<feOffset dy="3"/>
<feGaussianBlur stdDeviation="1.5"/>
<feComposite in2="hardAlpha" operator="out"/>
<feColorMatrix type="matrix" values="0 0 0 0 0 0 0 0 0 0 0 0 0 0 0 0 0 0 0.25 0"/>
<feBlend mode="normal" in2="BackgroundImageFix" result="effect1_dropShadow_1257_2949"/>
<feBlend mode="normal" in="SourceGraphic" in2="effect1_dropShadow_1257_2949" result="shape"/>
</filter>
<filter id="filter1_d_1257_2949" x="361.5" y="28" width="98" height="74" filterUnits="userSpaceOnUse" color-interpolation-filters="sRGB">
<feFlood flood-opacity="0" result="BackgroundImageFix"/>
<feColorMatrix in="SourceAlpha" type="matrix" values="0 0 0 0 0 0 0 0 0 0 0 0 0 0 0 0 0 0 127 0" result="hardAlpha"/>
<feOffset dx="5" dy="15"/>
<feGaussianBlur stdDeviation="12.5"/>
<feColorMatrix type="matrix" values="0 0 0 0 0 0 0 0 0 0 0 0 0 0 0 0 0 0 0.25 0"/>
<feBlend mode="multiply" in2="BackgroundImageFix" result="effect1_dropShadow_1257_2949"/>
<feBlend mode="normal" in="SourceGraphic" in2="effect1_dropShadow_1257_2949" result="shape"/>
</filter>
<filter id="filter2_d_1257_2949" x="380.804" y="51" width="60.3926" height="56" filterUnits="userSpaceOnUse" color-interpolation-filters="sRGB">
<feFlood flood-opacity="0" result="BackgroundImageFix"/>
<feColorMatrix in="SourceAlpha" type="matrix" values="0 0 0 0 0 0 0 0 0 0 0 0 0 0 0 0 0 0 127 0" result="hardAlpha"/>
<feOffset dx="5" dy="15"/>
<feGaussianBlur stdDeviation="12.5"/>
<feColorMatrix type="matrix" values="0 0 0 0 0 0 0 0 0 0 0 0 0 0 0 0 0 0 0.25 0"/>
<feBlend mode="multiply" in2="BackgroundImageFix" result="effect1_dropShadow_1257_2949"/>
<feBlend mode="normal" in="SourceGraphic" in2="effect1_dropShadow_1257_2949" result="shape"/>
</filter>
<linearGradient id="paint0_linear_1257_2949" x1="270.608" y1="161.275" x2="284.116" y2="227.57" gradientUnits="userSpaceOnUse">
<stop stop-color="white"/>
<stop offset="1" stop-color="#0078FF"/>
</linearGradient>
</defs>
</svg>
