<svg width="86" height="48" viewBox="0 0 86 48" fill="none" xmlns="http://www.w3.org/2000/svg">
<rect y="19.2" width="9.59998" height="9.59999" fill="#039855"/>
<rect x="28.7998" y="28.8" width="9.6" height="9.59999" transform="rotate(180 28.7998 28.8)" fill="#027A48"/>
<path d="M9.6001 19.2L19.2001 9.59998V19.2L9.6001 28.7999V19.2Z" fill="#A6F4C5"/>
<path d="M19.2002 28.8L9.60021 38.4L9.60021 28.8L19.2002 19.2L19.2002 28.8Z" fill="#6CE9A6"/>
<path d="M0 19.2L19.2 0V9.59999L9.59998 19.2H0Z" fill="#32D583"/>
<path d="M28.7998 28.8L9.59983 48L9.59983 38.4L19.1998 28.8L28.7998 28.8Z" fill="#12B76A"/>
<path d="M50.438 22.6378C50.3812 22.0649 50.1374 21.6198 49.7065 21.3026C49.2756 20.9853 48.6909 20.8267 47.9522 20.8267C47.4503 20.8267 47.0266 20.8977 46.6809 21.0398C46.3353 21.1771 46.0701 21.3688 45.8855 21.6151C45.7056 21.8613 45.6156 22.1406 45.6156 22.4531C45.6061 22.7135 45.6606 22.9408 45.7789 23.1349C45.902 23.3291 46.0701 23.4972 46.2832 23.6392C46.4963 23.7765 46.7425 23.8973 47.0218 24.0014C47.3012 24.1009 47.5995 24.1861 47.9167 24.2571L49.2235 24.5696C49.858 24.7116 50.4404 24.901 50.9707 25.1378C51.501 25.3745 51.9603 25.6657 52.3485 26.0114C52.7368 26.357 53.0375 26.7642 53.2505 27.233C53.4683 27.7017 53.5796 28.2391 53.5843 28.8452C53.5796 29.7353 53.3523 30.5071 52.9025 31.1605C52.4574 31.8092 51.8135 32.3134 50.9707 32.6733C50.1326 33.0284 49.1217 33.206 47.938 33.206C46.7638 33.206 45.7411 33.026 44.8699 32.6662C44.0034 32.3063 43.3263 31.7737 42.8386 31.0682C42.3556 30.358 42.1023 29.4796 42.0787 28.4332H45.0545C45.0877 28.9209 45.2273 29.3281 45.4735 29.6548C45.7245 29.9768 46.0583 30.2206 46.475 30.3864C46.8964 30.5473 47.3722 30.6278 47.9025 30.6278C48.4234 30.6278 48.8755 30.5521 49.2591 30.4006C49.6473 30.2491 49.948 30.0384 50.161 29.7685C50.3741 29.4986 50.4806 29.1884 50.4806 28.8381C50.4806 28.5114 50.3836 28.2367 50.1895 28.0142C50.0001 27.7917 49.7207 27.6023 49.3514 27.446C48.9868 27.2898 48.5394 27.1477 48.0091 27.0199L46.4252 26.6222C45.1989 26.3239 44.2306 25.8575 43.5204 25.223C42.8102 24.5885 42.4574 23.7339 42.4622 22.6591C42.4574 21.7784 42.6918 21.009 43.1653 20.3509C43.6435 19.6927 44.2993 19.179 45.1326 18.8097C45.966 18.4403 46.9129 18.2557 47.9735 18.2557C49.0531 18.2557 49.9953 18.4403 50.8002 18.8097C51.6099 19.179 52.2396 19.6927 52.6895 20.3509C53.1393 21.009 53.3713 21.7713 53.3855 22.6378H50.438ZM55.5961 37.0909V22.0909H58.579V23.9233H58.714C58.8465 23.6297 59.0383 23.3314 59.2892 23.0284C59.5449 22.7206 59.8764 22.465 60.2836 22.2614C60.6955 22.053 61.2069 21.9489 61.8176 21.9489C62.6131 21.9489 63.347 22.1572 64.0194 22.5739C64.6917 22.9858 65.2291 23.6084 65.6316 24.4418C66.034 25.2704 66.2353 26.3097 66.2353 27.5597C66.2353 28.7765 66.0388 29.804 65.6458 30.642C65.2575 31.4754 64.7272 32.1075 64.0549 32.5384C63.3873 32.9645 62.6391 33.1776 61.8105 33.1776C61.2234 33.1776 60.7239 33.0805 60.312 32.8864C59.9048 32.6922 59.571 32.4484 59.3105 32.1548C59.0501 31.8565 58.8513 31.5559 58.714 31.2528H58.6216V37.0909H55.5961ZM58.5577 27.5455C58.5577 28.1941 58.6477 28.7599 58.8276 29.2429C59.0075 29.7259 59.2679 30.1023 59.6088 30.3722C59.9498 30.6373 60.3641 30.7699 60.8517 30.7699C61.3442 30.7699 61.7608 30.6349 62.1017 30.3651C62.4426 30.0904 62.7007 29.7116 62.8759 29.2287C63.0558 28.741 63.1458 28.1799 63.1458 27.5455C63.1458 26.9157 63.0582 26.3617 62.883 25.8835C62.7078 25.4053 62.4498 25.0312 62.1088 24.7614C61.7679 24.4915 61.3489 24.3565 60.8517 24.3565C60.3593 24.3565 59.9426 24.4867 59.6017 24.7472C59.2656 25.0076 59.0075 25.3769 58.8276 25.8551C58.6477 26.3333 58.5577 26.8968 58.5577 27.5455ZM71.2779 18.4545V33H68.2523V18.4545H71.2779ZM73.7015 33V22.0909H76.7271V33H73.7015ZM75.2214 20.6847C74.7716 20.6847 74.3857 20.5355 74.0637 20.2372C73.7465 19.9342 73.5879 19.572 73.5879 19.1506C73.5879 18.7339 73.7465 18.3764 74.0637 18.0781C74.3857 17.7751 74.7716 17.6236 75.2214 17.6236C75.6712 17.6236 76.0547 17.7751 76.372 18.0781C76.694 18.3764 76.8549 18.7339 76.8549 19.1506C76.8549 19.572 76.694 19.9342 76.372 20.2372C76.0547 20.5355 75.6712 20.6847 75.2214 20.6847ZM84.9533 22.0909V24.3636H78.3837V22.0909H84.9533ZM79.8752 19.4773H82.9007V29.6477C82.9007 29.9271 82.9434 30.1449 83.0286 30.3011C83.1138 30.4527 83.2322 30.5592 83.3837 30.6207C83.54 30.6823 83.7199 30.7131 83.9235 30.7131C84.0655 30.7131 84.2076 30.7012 84.3496 30.6776C84.4917 30.6491 84.6006 30.6278 84.6763 30.6136L85.1522 32.8651C85.0007 32.9124 84.7876 32.9669 84.513 33.0284C84.2383 33.0947 83.9045 33.1349 83.5115 33.1491C82.7824 33.1776 82.1432 33.0805 81.5939 32.858C81.0494 32.6354 80.6257 32.2898 80.3226 31.821C80.0196 31.3523 79.8704 30.7604 79.8752 30.0455V19.4773Z" fill="#1F2937"/>
</svg>
